<svg width="32" height="32" viewBox="0 0 10 10" fill="none" xmlns="http://www.w3.org/2000/svg">
<g clip-path="url(#clip0_196_253)">
<path d="M9.41987 3.42551C9.40387 3.32871 9.34087 3.24311 9.24287 3.18471C9.14487 3.12631 9.02388 3.10311 8.90388 3.11831C8.67988 3.14711 8.51787 3.30551 8.52687 3.49031L8.61687 4.48631C8.36387 4.45271 8.09688 4.52951 7.94388 4.69591L7.28988 5.22791C6.82588 5.36551 6.62888 5.66151 6.56488 5.78471C6.42088 6.06151 6.53887 6.32311 6.58787 6.41111L6.58387 6.78151H6.44688C6.36388 6.78151 6.29688 6.83511 6.29688 6.90151V7.60711C6.29688 7.67351 6.36388 7.72711 6.44688 7.72711H8.13988C8.22288 7.72711 8.28988 7.67351 8.28988 7.60711V6.90151C8.28988 6.83511 8.22288 6.78151 8.13988 6.78151H8.03787L8.04088 6.72791L9.05887 6.02151C9.07687 6.00871 9.09188 5.99271 9.10088 5.97431L9.61987 4.90871C9.65787 4.83111 9.66888 4.74711 9.65388 4.66551L9.41888 3.42471L9.41987 3.42551ZM9.34088 4.82231L8.83487 5.86071L7.79587 6.58151C7.76487 6.60311 7.74588 6.63431 7.74388 6.66711L7.73787 6.78311H6.88288L6.88688 6.38631C6.88688 6.36631 6.88088 6.34631 6.86888 6.32871C6.86788 6.32631 6.72288 6.10231 6.83988 5.87831C6.88988 5.78231 7.04588 5.54791 7.41888 5.44711C7.44088 5.44071 7.46087 5.43111 7.47787 5.41751L8.16488 4.85911C8.17088 4.85431 8.17587 4.84951 8.18087 4.84391C8.26587 4.74631 8.42188 4.70231 8.56888 4.72391L8.21188 5.25191L7.69388 5.69111C7.66688 5.71431 7.65287 5.74391 7.65287 5.77351C7.65287 5.80551 7.66887 5.83751 7.69987 5.86071C7.75987 5.90631 7.85488 5.90391 7.91188 5.85591L8.44388 5.40471C8.45288 5.39751 8.46087 5.38871 8.46687 5.37991L8.91488 4.71911C8.92888 4.69751 8.93487 4.67431 8.93187 4.65191L8.82588 3.47911C8.82288 3.41911 8.87688 3.36631 8.95088 3.35671C8.99088 3.35191 9.03087 3.35911 9.06387 3.37831C9.09687 3.39751 9.11788 3.42631 9.12288 3.45991L9.35788 4.70231C9.36588 4.74311 9.35988 4.78471 9.34088 4.82231ZM7.98988 7.02231V7.48791H6.59688V7.02231H7.98988Z" fill="url(#paint0_linear_196_253)"/>
<path d="M1.97308 6.78248H1.87108C1.78808 6.78248 1.72108 6.83608 1.72108 6.90248V7.60808C1.72108 7.67448 1.78808 7.72808 1.87108 7.72808H3.56408C3.64708 7.72808 3.71408 7.67448 3.71408 7.60808V6.90248C3.71408 6.83608 3.64708 6.78248 3.56408 6.78248H3.42708L3.42308 6.41208C3.47208 6.32488 3.59008 6.06248 3.44608 5.78568C3.38208 5.66248 3.18508 5.36648 2.72108 5.22888L2.06708 4.69688C1.91408 4.53048 1.64708 4.45368 1.39408 4.48728L1.48408 3.48728C1.49208 3.30648 1.33008 3.14808 1.10708 3.11928C0.986076 3.10408 0.866076 3.12728 0.768076 3.18568C0.670076 3.24408 0.607076 3.32968 0.591076 3.42408L0.356076 4.66648C0.341076 4.74808 0.352076 4.83288 0.390076 4.90968L0.909076 5.97528C0.918076 5.99368 0.932076 6.00968 0.951076 6.02248L1.96908 6.72888L1.97208 6.78248H1.97308ZM0.653076 4.70248L0.888076 3.45768C0.893076 3.42568 0.914076 3.39688 0.947076 3.37768C0.980076 3.35848 1.01908 3.35048 1.06008 3.35608C1.13408 3.36568 1.18808 3.41848 1.18608 3.47448L1.08008 4.65208C1.07808 4.67448 1.08308 4.69768 1.09708 4.71928L1.54508 5.38008C1.55108 5.38888 1.55908 5.39768 1.56808 5.40488L2.10008 5.85608C2.15708 5.90408 2.25208 5.90648 2.31208 5.86088C2.34308 5.83768 2.35908 5.80568 2.35908 5.77368C2.35908 5.74408 2.34508 5.71448 2.31808 5.69128L1.80008 5.25208L1.44308 4.72408C1.59008 4.70328 1.74608 4.74648 1.83108 4.84408C1.83608 4.84968 1.84108 4.85448 1.84708 4.85928L2.53408 5.41768C2.55008 5.43128 2.57008 5.44088 2.59308 5.44728C2.96508 5.54888 3.12208 5.78248 3.17208 5.87848C3.28908 6.10328 3.14508 6.32728 3.14408 6.32888C3.13208 6.34648 3.12608 6.36648 3.12608 6.38648L3.13008 6.78328H2.27508L2.26908 6.66728C2.26708 6.63448 2.24808 6.60328 2.21708 6.58168L1.17808 5.86088L0.672076 4.82248C0.653076 4.78408 0.648076 4.74248 0.655076 4.70248H0.653076ZM3.41408 7.48808H2.02108V7.02248H3.41408V7.48808Z" fill="url(#paint1_linear_196_253)"/>
<path d="M5.00012 5.31675C5.08212 5.31675 7.01812 5.30635 7.20412 4.37515C7.30412 3.87835 6.99012 3.68075 6.71412 3.50715C6.47012 3.35355 6.24012 3.20875 6.18412 2.85195C6.04212 1.94635 5.14012 1.95755 4.99912 1.96475C4.85912 1.95755 3.96112 1.94715 3.81512 2.85115C3.75712 3.20795 3.52712 3.35275 3.28412 3.50635C3.00812 3.68075 2.69612 3.87755 2.79512 4.37515C2.98212 5.30555 4.91712 5.31675 4.99912 5.31675H5.00012ZM3.47012 3.69435C3.72312 3.53435 4.03912 3.33515 4.11312 2.88155C4.21412 2.25995 4.72612 2.20075 4.91712 2.20075C4.94812 2.20075 4.97112 2.20235 4.98212 2.20315C4.99412 2.20395 5.00612 2.20395 5.01812 2.20315C5.04812 2.19995 5.77012 2.13835 5.88712 2.88075C5.95912 3.33515 6.27512 3.53435 6.52912 3.69515C6.80012 3.86635 6.98012 3.97915 6.90812 4.33675C6.76112 5.06635 5.01712 5.07595 5.00012 5.07595C4.98312 5.07595 3.23812 5.06635 3.09212 4.33675C3.02012 3.97835 3.19912 3.86555 3.47112 3.69435H3.47012Z" fill="url(#paint2_linear_196_253)"/>
<path d="M2.70985 1.75684C2.30585 1.77364 2.01385 2.16084 2.04585 2.63684C2.07685 3.10244 2.40285 3.45604 2.79485 3.45604C2.80385 3.45604 2.81285 3.45604 2.82285 3.45604C3.22685 3.43924 3.51885 3.05204 3.48685 2.57604C3.47285 2.35924 3.39085 2.15604 3.25885 2.00484C3.11085 1.83684 2.91685 1.74804 2.71085 1.75764L2.70985 1.75684ZM2.34485 2.62404C2.32085 2.26484 2.52585 2.00484 2.72485 1.99684C2.72885 1.99684 2.73285 1.99684 2.73585 1.99684C2.86385 1.99684 2.96285 2.08724 3.01085 2.14244C3.11085 2.25604 3.17385 2.41844 3.18485 2.58884C3.20885 2.94804 3.00385 3.20804 2.80485 3.21684C2.60685 3.22484 2.36685 2.98404 2.34385 2.62484L2.34485 2.62404Z" fill="url(#paint3_linear_196_253)"/>
<path d="M3.99822 1.98001C4.00722 1.98001 4.01722 1.98001 4.02622 1.98001C4.23222 1.97121 4.41422 1.86721 4.53922 1.68721C4.65122 1.52561 4.70522 1.31681 4.69122 1.10001C4.67722 0.883208 4.59522 0.680007 4.46322 0.528807C4.31522 0.360807 4.12222 0.272807 3.91522 0.281607C3.70922 0.290407 3.52722 0.394407 3.40222 0.574407C3.29022 0.736007 3.23622 0.944808 3.25022 1.16161C3.26422 1.37841 3.34622 1.58161 3.47822 1.73281C3.61922 1.89361 3.80322 1.98081 3.99822 1.98081V1.98001ZM3.92922 0.520007C3.92922 0.520007 3.93722 0.520007 3.94022 0.520007C4.06822 0.520007 4.16722 0.610407 4.21622 0.665607C4.31622 0.779207 4.37922 0.941607 4.39022 1.11201C4.40122 1.28241 4.36022 1.44961 4.27622 1.57041C4.23422 1.63121 4.14322 1.73361 4.01022 1.73921C3.87622 1.74481 3.77322 1.65041 3.72322 1.59361C3.62422 1.48001 3.56022 1.31761 3.54922 1.14721C3.53822 0.976808 3.57922 0.809607 3.66322 0.688807C3.70522 0.628007 3.79622 0.525607 3.92922 0.520007Z" fill="url(#paint4_linear_196_253)"/>
<path d="M7.95412 2.63671C7.98612 2.16071 7.69412 1.77351 7.29012 1.75671C7.08412 1.74791 6.88912 1.83591 6.74212 2.00391C6.60912 2.15511 6.52812 2.35831 6.51412 2.57511C6.48212 3.05111 6.77412 3.43831 7.17812 3.45511C7.18712 3.45511 7.19612 3.45511 7.20612 3.45511C7.59812 3.45511 7.92412 3.10071 7.95512 2.63591L7.95412 2.63671ZM7.19312 3.21591C6.99412 3.20711 6.78912 2.94791 6.81312 2.58791C6.82412 2.41751 6.88812 2.25511 6.98712 2.14151C7.03712 2.08471 7.14012 1.98951 7.27412 1.99591C7.47312 2.00471 7.67812 2.26391 7.65412 2.62311C7.63012 2.98231 7.39312 3.22551 7.19312 3.21511V3.21591Z" fill="url(#paint5_linear_196_253)"/>
<path d="M5.97384 1.9791C5.98284 1.9791 5.99284 1.9791 6.00184 1.9791C6.19784 1.9791 6.38084 1.8919 6.52184 1.7311C6.65484 1.5799 6.73584 1.3767 6.74984 1.1599C6.76384 0.943098 6.71084 0.734298 6.59784 0.572698C6.47284 0.392698 6.29084 0.288698 6.08484 0.279898C5.87884 0.271098 5.68384 0.359098 5.53684 0.527098C5.40384 0.678298 5.32284 0.881498 5.30884 1.0983C5.29484 1.3151 5.34784 1.5239 5.46084 1.6855C5.58584 1.8655 5.76784 1.9695 5.97384 1.9783V1.9791ZM6.05884 0.519898C6.05884 0.519898 6.06684 0.519898 6.06984 0.519898C6.20284 0.525498 6.29384 0.627898 6.33584 0.688698C6.41984 0.809498 6.46184 0.976699 6.44984 1.1471C6.43784 1.3175 6.37484 1.4799 6.27584 1.5935C6.22584 1.6503 6.12084 1.7447 5.98884 1.7391C5.85584 1.7335 5.76484 1.6311 5.72284 1.5703C5.63884 1.4495 5.59684 1.2823 5.60884 1.1119C5.61984 0.941498 5.68384 0.779098 5.78284 0.665498C5.83084 0.610298 5.93084 0.519898 6.05884 0.519898Z" fill="url(#paint6_linear_196_253)"/>
</g>
<defs>
<linearGradient id="paint0_linear_196_253" x1="7.97861" y1="3.11377" x2="7.97861" y2="7.72711" gradientUnits="userSpaceOnUse">
<stop stop-color="#FFBF00"/>
<stop offset="1" stop-color="#F2A50C"/>
</linearGradient>
<linearGradient id="paint1_linear_196_253" x1="2.03184" y1="3.11475" x2="2.03184" y2="7.72808" gradientUnits="userSpaceOnUse">
<stop stop-color="#FFBF00"/>
<stop offset="1" stop-color="#F2A50C"/>
</linearGradient>
<linearGradient id="paint2_linear_196_253" x1="4.99975" y1="1.96338" x2="4.99975" y2="5.31675" gradientUnits="userSpaceOnUse">
<stop stop-color="#FFBF00"/>
<stop offset="1" stop-color="#F2A50C"/>
</linearGradient>
<linearGradient id="paint3_linear_196_253" x1="2.76635" y1="1.75684" x2="2.76635" y2="3.45604" gradientUnits="userSpaceOnUse">
<stop stop-color="#FFBF00"/>
<stop offset="1" stop-color="#F2A50C"/>
</linearGradient>
<linearGradient id="paint4_linear_196_253" x1="3.97072" y1="0.281006" x2="3.97072" y2="1.98081" gradientUnits="userSpaceOnUse">
<stop stop-color="#FFBF00"/>
<stop offset="1" stop-color="#F2A50C"/>
</linearGradient>
<linearGradient id="paint5_linear_196_253" x1="7.23412" y1="1.7561" x2="7.23412" y2="3.45511" gradientUnits="userSpaceOnUse">
<stop stop-color="#FFBF00"/>
<stop offset="1" stop-color="#F2A50C"/>
</linearGradient>
<linearGradient id="paint6_linear_196_253" x1="6.02934" y1="0.279297" x2="6.02934" y2="1.9791" gradientUnits="userSpaceOnUse">
<stop stop-color="#FFBF00"/>
<stop offset="1" stop-color="#F2A50C"/>
</linearGradient>
<clipPath id="clip0_196_253">
<rect width="10" height="10" fill="white"/>
</clipPath>
</defs>
</svg>
