<svg width="130" height="56" viewBox="0 0 130 56" fill="none" xmlns="http://www.w3.org/2000/svg">
<g clip-path="url(#clip0_262_632)">
<path d="M57.3849 54.6893L61.5324 3.08815H72.3204L69.6914 35.9034H77.8051L76.2866 54.6893H57.3849ZM93.2845 55.5541C89.8849 55.5541 86.7573 53.6323 84.4909 50.173C83.2218 48.2512 82.2472 45.8489 81.5673 43.0622C80.8194 40.0354 80.4568 36.6241 80.4568 32.9246C80.4568 28.4083 80.8194 24.1802 81.5673 20.3366C82.2925 16.589 83.3351 13.3219 84.6949 10.6313C87.4146 5.20217 91.1541 2.31942 95.5056 2.31942C99.1318 2.31942 102.282 4.14516 104.594 7.60445C107.313 11.6403 108.741 17.7421 108.741 25.2853C108.741 29.7536 108.379 33.9816 107.631 37.7292C106.906 41.4287 105.84 44.6958 104.458 47.3864C101.715 52.6714 97.84 55.5541 93.2845 55.5541ZM95.211 19.6159C93.9644 19.6159 92.9672 20.8651 92.2873 23.3635C91.6527 25.6216 91.2901 28.9368 91.2901 32.4441C91.2901 36.4319 92.0833 38.1135 93.9418 38.1135C95.2563 38.1135 96.2762 36.8643 96.9561 34.366C97.568 32.1558 97.8853 29.0329 97.8853 25.5736C97.8853 23.6998 97.704 22.2584 97.364 21.3455C96.9561 20.2405 96.2535 19.6639 95.2789 19.6159H95.211ZM110.033 54.6893L114.181 3.08815H125.037L120.889 54.6893H110.033ZM44.6252 54.6893L44.3532 48.3953H37.1914L35.8769 54.6893H25.8595L38.098 3.08815H50.8804L54.7786 54.6893H44.6252ZM39.7524 35.9034H43.9906L43.0614 19.6159L39.7524 35.9034ZM13.3944 55.9866C9.36018 55.9866 6.16457 54.1128 3.85286 50.4132C1.33717 46.3774 0 40.1795 0 32.4922C0 23.4115 1.3825 15.6761 3.98884 10.1989C6.64052 4.62562 10.4254 1.69482 14.9808 1.69482C18.6977 1.69482 21.644 3.42447 23.7744 6.78768C24.8849 8.56537 25.7688 10.8235 26.4034 13.5141C27.038 16.2046 27.4006 19.3757 27.5139 22.883L27.5366 23.892H17.3832C17.3152 22.6908 17.1339 21.778 16.8846 21.1053C16.4086 19.9522 15.7741 19.4237 14.7768 19.3757H14.6862C13.417 19.3757 12.3971 20.6729 11.6946 23.1713C11.06 25.4775 10.6747 28.8407 10.6747 32.4441C10.6747 36.3358 11.4906 38.0655 13.3717 38.2096H13.553C14.7995 38.2096 15.7741 36.9124 16.4766 34.366C16.5446 34.1738 16.59 33.9335 16.6353 33.6933H26.9474L26.8567 34.8464C26.3354 41.717 24.681 47.2903 22.0973 50.9898C19.7856 54.2569 16.7939 55.9866 13.3944 55.9866Z" fill="#DEDEDE"/>
<path d="M129.864 4.3854C129.864 6.64356 129.003 8.46929 127.938 8.46929C126.872 8.46929 126.011 6.64356 126.011 4.3854C126.011 2.12725 126.872 0.301514 127.938 0.301514C129.003 0.301514 129.864 2.12725 129.864 4.3854Z" stroke="#DEDEDE" stroke-width="5.32252" stroke-miterlimit="10"/>
<path d="M127.462 1.9833C127.62 1.93525 127.847 1.88721 128.051 1.88721C128.368 1.88721 128.572 2.03134 128.686 2.27157C128.776 2.5118 128.821 2.84812 128.799 3.23249C128.754 3.90513 128.504 4.33754 128.255 4.48168C128.414 4.62582 128.504 4.96214 128.504 5.49064C128.527 6.16328 128.55 6.64374 128.572 6.83592H128.278C128.255 6.69178 128.232 6.25937 128.21 5.63478C128.187 4.96214 128.096 4.67386 127.824 4.67386H127.53L127.348 6.83592H127.054L127.462 1.9833ZM127.575 4.24145H127.892C128.21 4.24145 128.459 3.85708 128.504 3.28053C128.55 2.65594 128.368 2.36766 128.051 2.36766C127.915 2.36766 127.802 2.41571 127.756 2.41571L127.575 4.24145Z" fill="#DEDEDE"/>
</g>
<defs>
<clipPath id="clip0_262_632">
<rect width="130" height="56" fill="white"/>
</clipPath>
</defs>
</svg>
