<svg width="140" height="39" viewBox="0 0 190 61" fill="none" xmlns="http://www.w3.org/2000/svg">
<path d="M98.92 16.9676H93.4172L90.3137 22.1195H95.8137L98.92 16.9676ZM113.195 30.5232C110.312 30.7673 105.219 33.4073 102.445 39.1756C99.6713 44.944 99.6611 48.5049 99.6611 48.5049C99.6611 48.5049 101.124 46.863 103.367 45.1438C105.609 43.4246 107.279 42.8138 107.279 42.8138C107.279 42.8138 107.695 40.696 108.731 38.481C109.738 36.3264 111.336 34.0831 113.314 33.5742C117.322 32.5411 115.403 40.0315 112.458 44.9157C110.876 47.5407 105.262 55.0847 100.43 55.0847C95.5974 55.0847 94.6647 50.3145 95.6839 45.8545C96.7021 41.3953 98.1117 35.7297 105.162 25.4354C112.212 15.141 119.844 9.03805 124.261 6.47341C128.798 3.8409 130.647 4.99457 130.647 4.99457C130.647 4.99457 124.855 8.6469 121.56 13.041C118.409 17.2409 116.529 21.9668 117.991 24.2826C119.383 26.4891 124.291 26.5306 129.694 18.5435C135.027 10.6592 133.68 5.97104 133.68 5.97104C133.68 5.97104 134.325 5.75614 134.757 5.69676C137.358 5.34236 139.442 6.04455 142.668 7.73829C146.048 9.51309 149.29 12.3595 153.733 14.6886C155.071 13.188 156.56 11.5942 158.126 10.039C152.136 7.05401 147.589 2.7994 141.714 2.39128C136.601 2.03689 132.569 3.94458 132.569 3.94458C132.569 3.94458 131.009 1.77015 126.198 2.47988C121.387 3.19055 106.563 9.53571 93.9512 30.2131C82.548 48.9083 87.9209 59.6221 96.1175 59.4995C105.003 59.3657 113.455 49.2495 116.316 40.9071C119.176 32.5647 115.796 30.3036 113.195 30.5232ZM130.638 13.1513C129.144 16.8781 126.946 19.4823 124.782 21.471C122.007 24.0225 120.485 23.9367 119.825 23.424C118.104 22.0818 120.414 17.0204 124.423 12.4943C128.416 7.98618 131.854 6.58368 131.854 6.58368C131.854 6.63647 132.425 8.68271 130.638 13.1513ZM180.116 7.71661C176.051 10.3944 170.414 12.8195 165.003 12.2851C163.635 13.7394 162.167 15.4152 160.695 17.2485C170.086 19.1449 178.3 13.189 182.673 8.11436C185.401 4.95027 186.748 2.12549 186.748 2.12549C186.748 2.12549 184.143 5.06432 180.116 7.71661Z" fill="#9C9C9C"/>
<path d="M175.674 31.2122H169.888L168.948 32.6995C168.948 32.6995 167.768 30.5194 165.769 30.5543C162.344 30.6146 158.917 33.2914 154.934 37.9343C152.014 41.336 147.175 48.9092 147.175 48.9092C147.175 48.9092 143.462 54.7671 141.584 54.3081C138.382 53.5248 144.272 41.3953 144.272 41.3953C144.272 41.3953 147.368 39.4377 151.38 35.9814C153.906 33.806 156.813 30.8135 159.485 28.0396C161.914 25.5164 164.777 22.0903 167.499 18.3371C166.802 18.4502 166.088 18.5266 165.359 18.5633C162.919 21.8585 160.313 24.8076 158.097 27.1517C154.798 30.641 151.764 33.4959 149.559 35.3169C147.446 37.0606 146.091 37.8457 146.091 37.8457C146.091 37.8457 150.122 29.3714 156.84 20.0083C163.558 10.646 172.964 1.94832 172.227 6.07474C172.016 7.25951 171.297 8.9589 170.211 10.9759C170.975 10.8129 171.717 10.6093 172.434 10.3774C174.052 6.95696 174.604 4.13783 173.396 3.32348C168.467 9.77516e-05 155.929 13.7517 149.644 21.7388C143.359 29.7258 137.671 41.9316 137.671 41.9316C137.671 41.9316 136.688 42.3539 135.601 42.565C134.915 42.6989 134.622 42.6696 134.51 42.6244C134.454 42.6008 134.447 42.5613 134.447 42.5613C134.447 42.5613 139.976 31.9803 134.316 30.5769C128.853 29.2234 119.389 39.5687 116.024 46.765C113.715 51.702 112.412 57.9171 116.372 59.3968C120.66 61.0001 127.945 52.9848 129.657 50.6558C131.37 48.3258 133.507 44.452 133.507 44.452C133.507 44.452 134.553 44.3954 135.125 44.3097C136.219 44.1447 136.731 44.0071 136.731 44.0071C136.731 44.0071 136.022 45.9082 135.255 48.3183C133.825 52.8123 132.535 59.2423 137.683 59.5448C140.962 59.7361 145.773 53.6728 145.773 53.6728C145.773 53.6728 144.479 59.0641 148.735 59.5448C151.877 59.8992 156.45 54.9292 156.45 54.9292C156.45 54.9292 155.454 59.2112 158.639 59.5882C161.366 59.9115 165.238 56.638 168.412 53.0366C171.878 49.1043 174.537 44.7979 174.537 44.7979H172.522C172.522 44.7979 168.061 51.7293 164.929 53.5842C162.358 55.1074 163.239 52.6671 164.019 51.3881C164.879 49.9771 175.672 31.2122 175.672 31.2131L175.674 31.2122ZM131.589 44.2672C131.51 44.4529 130.061 47.0326 128.512 49.061C126.843 51.2467 123.787 54.5362 121.95 53.8406C119.079 52.7529 122.239 46.3484 124.304 43.2418C126.37 40.1352 126.605 39.925 126.663 39.8439C126.721 39.7629 126.779 39.6884 126.83 39.7845C126.88 39.8807 127.538 41.1569 128.836 42.2644C130.14 43.3765 131.394 43.9637 131.495 44.0005C131.596 44.0373 131.669 44.0816 131.589 44.2663V44.2672ZM132.88 41.959C132.699 42.2681 132.569 42.2832 132.193 42.1805C131.53 41.9967 128.783 40.6969 128.805 37.8137C128.824 35.004 132.693 32.2518 134.21 33.4281C135.626 34.5252 134.949 37.3302 134.415 38.7609C133.882 40.1908 132.999 41.7563 132.88 41.959ZM159.167 48.9092C158.403 49.9818 157.764 50.9508 157.188 51.6313C155.956 53.0875 155.152 53.7652 154.436 53.9443C154.075 54.0338 153.627 54.0121 153.331 53.8283C152.28 53.1733 153.016 50.6228 154.846 47.1938C156.521 44.0599 158.456 40.9241 161.637 37.3142C164.831 33.6901 166.053 33.5157 166.947 33.5572C167.699 33.5902 167.806 34.3998 167.806 34.3998C167.806 34.3998 167.752 34.5874 167.632 34.7995C166.578 36.6704 161.268 45.96 159.166 48.9092H159.167ZM73.8156 53.4428C70.307 51.2232 65.8059 49.799 60.6346 49.7528C47.3127 49.634 32.8077 56.2601 22.9834 56.3496C11.396 56.4533 10.8188 47.3267 11.6777 42.3153C13.5264 31.5185 21.0068 21.2185 25.8163 15.7876C30.6267 10.3567 35.6673 6.14261 39.8581 5.06529C44.049 3.98797 43.6549 7.25103 43.1421 7.69685C42.6127 7.70816 41.5972 7.82503 41.0209 8.23315C40.1187 8.8703 38.9135 10.0372 38.838 11.8874C38.7082 14.7376 42.3062 15.2371 44.907 9.269C46.6811 5.19818 43.8676 2.43561 41.531 2.16982C38.3261 1.80411 33.4283 2.94458 27.5821 6.79107C17.407 13.485 3.79691 28.3497 3.44982 44.8422C3.25188 54.2506 9.25549 59.5448 17.4926 59.5448C25.7297 59.5448 36.9129 54.3807 47.8329 54.2487C54.5942 54.1893 58.97 56.6154 61.1861 60.5665C61.1861 60.5665 63.3883 56.8162 68.2926 56.6154C73.1445 56.4156 78.4861 57.8077 82.8712 60.9633C81.4083 58.7993 77.2727 55.6295 73.8147 53.4428H73.8156Z" fill="#9C9C9C"/>
<path d="M43.4773 16.3908C37.8926 14.9336 28.6179 24.6662 24.7097 32.5873C22.2994 37.4734 21.2425 43.614 25.5337 45.2116C29.8249 46.8092 37.1054 38.7996 38.8179 36.4705C40.5303 34.1406 43.3328 29.4741 43.3328 29.4741C43.3328 29.4741 44.1927 29.3044 44.7561 29.1706C45.3195 29.0368 46.2301 28.771 46.2301 28.771C46.2301 28.771 45.1741 30.6975 44.2212 32.6721C43.0916 35.0134 40.0221 42.8072 45.9484 45.1447C51.6104 47.3776 59.6707 38.0663 60.0942 37.89C60.0942 37.89 57.695 44.2352 61.4218 45.2116C65.5114 46.2823 69.9931 40.9184 69.9931 40.9184C69.9931 40.9184 69.0495 44.9449 72.2359 45.3228C77.9421 45.9986 88.0353 31.0566 88.0353 31.0566H86.019C86.019 31.0566 80.8827 37.8231 78.4126 39.2209C75.9424 40.6186 76.8309 38.1351 77.502 37.0248C78.3582 35.6119 89.2699 16.9459 89.2699 16.9459H83.4835L82.8124 18.0327C82.8124 18.0327 81.6201 16.1693 79.6269 16.3022C73.8277 16.6895 66.9274 26.1526 63.8929 30.3233C60.8593 34.495 54.3144 42.4594 50.8683 41.04C47.113 39.4923 50.8472 32.3875 53.3173 28.2158C56.0065 23.6747 60.7728 19.1769 62.6574 19.142C64.9765 19.0977 64.066 21.2495 64.066 21.2495C64.066 21.2495 62.3324 21.028 61.0757 22.6473C60.1863 23.7925 59.4498 25.4646 60.2949 26.3741C61.6603 27.8435 63.4381 26.3515 64.4996 24.687C67.8093 19.5002 65.388 16.7668 62.7881 16.3681C57.2494 15.517 52.1471 22.8019 48.2684 25.5089C45.5773 27.3854 44.4532 27.2393 44.4532 27.2393C44.4532 27.2393 49.1219 17.863 43.4782 16.3898L43.4773 16.3908ZM68.5514 33.1641C70.2261 30.0293 72.5075 27.0028 75.4766 23.2091C78.4457 19.4154 79.9234 19.1081 80.8173 19.1496C81.5695 19.1835 81.6763 19.9922 81.6763 19.9922C81.6763 19.9922 75.2252 31.4996 72.8849 34.7834C72.1208 35.856 71.4671 36.7646 70.8908 37.4461C69.6589 38.9023 68.7641 39.6064 68.0736 39.7817C67.7127 39.8722 67.2652 39.8495 66.9679 39.6648C65.9165 39.0097 66.7184 36.5921 68.5505 33.1641H68.5514ZM41.1729 29.4298C41.0928 29.6145 39.2506 32.7334 37.702 34.7617C36.0338 36.9475 32.9505 40.2501 31.1138 39.5545C28.2423 38.4668 31.3053 32.1066 33.3713 29.0009C35.4372 25.8943 35.7401 25.4947 35.799 25.4146C35.857 25.3326 35.9141 25.2581 35.9648 25.3552C36.0154 25.4514 36.6727 26.835 38.0961 27.7662C39.5194 28.6984 40.9786 29.1272 41.0799 29.164C41.1812 29.2008 41.2539 29.246 41.1738 29.4298H41.1729ZM43.5749 24.5748C43.0409 26.0065 42.564 26.9085 42.4655 27.1215C42.3072 27.4627 41.9104 27.3534 41.9104 27.3534C41.4583 27.3327 37.9442 26.5117 37.9644 23.6285C37.9838 20.8188 41.8533 18.0666 43.3696 19.2429C44.7856 20.34 44.1089 23.145 43.5749 24.5748ZM171.321 56.1243C170.983 55.9283 170.607 55.8312 170.194 55.8312C169.78 55.8312 169.405 55.9292 169.067 56.1243C168.729 56.3204 168.464 56.5862 168.27 56.9245C168.076 57.2619 167.979 57.6295 167.979 58.0254C167.979 58.4213 168.075 58.7955 168.27 59.131C168.463 59.4656 168.729 59.7314 169.067 59.9265C169.405 60.1226 169.78 60.2196 170.194 60.2196C170.607 60.2196 170.983 60.1216 171.321 59.9265C171.659 59.7314 171.924 59.4656 172.118 59.131C172.311 58.7964 172.409 58.4279 172.409 58.0254C172.409 57.6229 172.312 57.2619 172.118 56.9245C171.925 56.5871 171.659 56.3204 171.321 56.1243ZM171.717 58.934C171.571 59.2017 171.365 59.4119 171.101 59.5655C170.836 59.7182 170.533 59.7945 170.194 59.7945C169.854 59.7945 169.551 59.7182 169.287 59.5655C169.023 59.4128 168.817 59.2026 168.67 58.934C168.524 58.6663 168.45 58.3628 168.45 58.0254C168.45 57.688 168.524 57.393 168.67 57.1253C168.816 56.8576 169.024 56.6474 169.291 56.4938C169.558 56.3401 169.859 56.2647 170.194 56.2647C170.529 56.2647 170.83 56.3411 171.097 56.4938C171.364 56.6465 171.571 56.8567 171.717 57.1253C171.864 57.393 171.937 57.6936 171.937 58.0254C171.937 58.3572 171.864 58.6663 171.717 58.934Z" fill="#9C9C9C"/>
<path d="M171.026 57.9896C171.088 57.885 171.12 57.7682 171.12 57.64C171.12 57.4628 171.064 57.3148 170.951 57.1941C170.839 57.0735 170.688 57.0132 170.5 57.0132H169.377V58.9991H169.871V58.2752H170.248L170.704 58.9991H171.269L170.759 58.2272C170.874 58.1734 170.963 58.0943 171.026 57.9896ZM170.554 57.7804C170.518 57.8153 170.468 57.8322 170.405 57.8322H169.871V57.4468H170.405C170.468 57.4468 170.518 57.4647 170.554 57.4986C170.591 57.5335 170.61 57.5806 170.61 57.639C170.61 57.6975 170.591 57.7446 170.554 57.7795V57.7804Z" fill="#9C9C9C"/>
</svg>
