<svg width="140" height="39" viewBox="0 0 185 90" fill="none" xmlns="http://www.w3.org/2000/svg">
<g clip-path="url(#clip0_201_167)">
<path d="M95.7445 89.945C103.377 89.945 110.137 83.8288 110.137 73.4147C110.137 63.0007 103.377 56.8845 95.7445 56.8845C88.1121 56.8845 81.3521 63.0007 81.3521 73.4147C81.3521 83.8288 88.1121 89.945 95.7445 89.945ZM46.5078 89.2995H52.085L39.2786 57.593H33.9458L22.1174 89.2995H27.0536L29.6176 82.1364H43.739L46.5078 89.2995ZM184.616 57.593H164.389V89.2995H184.993V84.2538H169.134V75.9415H182.647V70.8722H169.12V62.6622H184.59L184.616 57.593ZM113.811 86.1666C114.895 87.2135 118.133 89.945 123.809 89.945C129.485 89.945 134.217 86.2453 134.217 80.4519C134.217 68.377 119.553 72.2419 119.553 65.6377C119.553 63.7879 120.835 62.2608 124.219 62.2608C127.011 62.232 129.728 63.3432 131.917 65.4094L133.899 60.7416C132.684 59.3719 128.963 56.9554 124.238 56.9554C117.141 56.9554 114.234 61.6783 114.234 66.4012C114.234 77.3505 128.897 74.2098 128.897 80.7353C128.897 83.4667 126.597 84.671 123.967 84.671C120.911 84.6422 117.936 83.4904 115.45 81.3729L113.811 86.1666ZM67.4091 62.5835C71.3739 62.5835 73.6273 65.1575 74.9092 66.5193L78.2133 62.6544C77.1295 61.206 73.9577 56.9396 67.3364 56.9396C59.6975 56.9396 52.944 63.0558 52.944 73.4698C52.944 83.8839 59.6314 90.0001 67.2703 90.0001C71.3868 89.9476 75.3476 88.1185 78.4181 84.8521L75.7749 80.4283C73.6801 82.5142 70.3695 84.364 67.3298 84.364C66.1112 84.3975 64.8994 84.1398 63.7658 83.6062C62.6322 83.0726 61.5998 82.2739 60.7296 81.2573C59.8594 80.2406 59.169 79.0266 58.6991 77.6869C58.2292 76.3472 57.9894 74.9089 57.9938 73.457C57.9983 72.005 58.2468 70.5689 58.7248 69.2332C59.2028 67.8976 59.9006 66.6896 60.777 65.6805C61.6533 64.6713 62.6905 63.8816 63.8273 63.3578C64.9642 62.834 66.1775 62.5868 67.3959 62.6307L67.4091 62.5835ZM95.718 84.3168C93.9187 84.2873 92.1668 83.6248 90.6827 82.4125C89.1986 81.2003 88.0485 79.4924 87.377 77.5036C86.7055 75.5149 86.5426 73.334 86.9088 71.2353C87.2749 69.1365 88.1538 67.2136 89.4349 65.7083C90.7161 64.2029 92.3422 63.1823 94.1089 62.7749C95.8756 62.3674 97.704 62.5912 99.3642 63.4182C101.024 64.2452 102.442 65.6384 103.44 67.4227C104.437 69.207 104.969 71.3026 104.969 73.4462C104.982 74.8907 104.751 76.3234 104.289 77.659C103.827 78.9946 103.144 80.2057 102.28 81.2201C101.417 82.2346 100.391 83.0315 99.2636 83.5636C98.1361 84.0956 96.9303 84.3518 95.718 84.3168ZM146.124 62.6622V89.2995H150.849V62.6622H160.173V57.593H137.045V62.6622H146.124ZM4.71178 57.593H0.00683594V89.2995H18.8795V84.2538H4.73821L4.71178 57.593ZM36.4305 63.1424L41.8359 77.2324H31.3753L36.4305 63.1424Z" fill="#C9C9C9"/>
<path d="M127.1 35.647C126.596 35.3262 126.055 35.0979 125.494 34.97C124.78 34.7181 124.555 33.6791 124.291 33.561C123.763 33.317 123.267 34.2773 122.97 34.1514C122.672 34.0254 122.514 32.7581 122.249 32.64C121.74 32.4196 121.185 33.4272 120.862 33.2619C120.538 33.0966 120.366 31.8844 120.102 31.7663C119.566 31.538 119.018 32.5535 118.701 32.4196C118.384 32.2858 118.284 30.9949 118.04 30.8453C117.472 30.5856 116.95 31.6325 116.447 31.5223C115.746 31.3992 115.08 31.078 114.505 30.5856C114.24 30.3809 113.692 29.8535 113.646 29.7984C113.599 29.7433 113.315 29.6803 113.375 30.2471C113.507 31.5774 115.43 32.5298 117.63 33.2934C119.588 33.8884 121.513 34.6298 123.392 35.5131C124.218 35.9618 124.569 36.505 124.278 37.0324C124.047 37.4338 123.478 37.4653 122.864 37.1189C122.249 36.7726 122.144 36.1271 121.727 36.0091C121.311 35.891 120.571 37.0166 120.174 36.9064C119.652 36.7568 119.599 35.4423 119.137 35.3321C118.536 35.1432 117.862 36.2609 117.458 36.1193C117.055 35.9776 116.91 34.6079 116.533 34.4898C115.872 34.2931 115.245 35.4659 114.842 35.3636C114.439 35.2613 114.22 33.868 113.883 33.7106C113.223 33.4036 112.397 34.545 111.518 33.9939C108.676 31.7033 109.218 30.5226 107.044 29.7591C105.921 29.3655 104.52 29.8378 103.7 29.948C101.778 30.1841 101.85 28.2005 101.85 28.2005C102.752 28.5901 103.743 28.5676 104.632 28.1375C106.192 27.4527 107.057 27.3504 109.086 28.1375C110.162 28.5773 111.336 28.5381 112.39 28.0273C112.562 27.9284 112.753 27.8891 112.942 27.9142C113.132 27.9393 113.311 28.0276 113.461 28.169C114.016 28.5862 114.551 29.0506 114.822 28.8932C115.238 28.6492 115.093 27.3189 115.813 27.0276C116.143 26.8938 117.049 27.9722 117.445 27.8148C117.842 27.6574 117.716 26.2405 118.436 25.9492C118.767 25.8154 119.672 26.8938 120.069 26.7364C120.465 26.579 120.34 25.1621 121.06 24.8708C121.39 24.737 122.296 25.8154 122.692 25.658C123.089 25.5006 122.963 24.0837 123.683 23.7846C124.014 23.6586 124.919 24.737 125.315 24.5717C125.705 24.3828 125.652 24.0286 125.976 23.0761C126.049 22.8689 126.165 22.6874 126.313 22.5487C126.756 22.1158 127.423 21.1948 127.027 20.1873C126.63 19.1797 125.937 19.282 124.318 19.6835C122.963 20.0141 114.518 22.226 114.518 22.226C113.196 19.3214 112.311 21.2421 110.355 20.9587C109.119 20.7776 107.117 19.2742 103.952 22.7613C103.229 22.52 102.472 22.4563 101.728 22.5741C100.984 22.6918 100.268 22.9885 99.6233 23.4461C95.7447 21.2746 91.4981 20.1971 87.2133 20.2975C85.2706 20.2975 80.6053 20.754 73.2307 23.0761C71.3342 23.6665 69.6095 23.5405 69.1865 22.2024C68.7636 20.8642 70.2703 19.3372 73.1514 17.6999C80.2484 13.6539 84.9864 14.6064 94.5219 8.59251C99.6365 5.36518 99.9669 1.58685 99.9669 0.673748C99.9836 0.547514 99.9619 0.418308 99.9057 0.309491C99.8494 0.200674 99.7623 0.119429 99.6601 0.0804437C99.558 0.0414586 99.4474 0.0473074 99.3486 0.0969324C99.2497 0.146557 99.169 0.236683 99.1211 0.351015C97.403 3.20838 96.9602 2.97224 96.425 2.33464C95.7047 1.48452 95.2289 2.83842 94.4426 3.51537C93.861 4.03489 93.7421 3.41304 93.2729 3.05095C92.4601 2.4291 91.7795 4.26317 91.0923 4.62526C90.2861 5.05819 90.1407 4.57803 89.8698 4.23955C89.7593 4.12064 89.6138 4.05882 89.4651 4.06767C89.3164 4.07653 89.1767 4.15534 89.0768 4.28678C87.4512 6.12872 87.2133 5.91619 86.7243 5.30221C86.3675 4.84566 86.1693 4.51506 85.1186 5.79812C84.5106 6.53804 83.493 7.37242 83.189 6.49081C82.8851 5.6092 82.6075 5.03458 81.1207 6.65611C80.2352 7.61644 79.6339 7.69515 79.363 7.24648C79.092 6.7978 79.1383 5.53835 77.7374 6.8529C76.4884 8.02576 75.8607 8.7342 75.4444 7.59282C75.0281 6.45145 74.1228 7.41965 73.4223 8.21468C73.0589 8.63187 72.4509 9.62368 71.9553 8.61612C71.4597 7.60857 70.6866 8.61612 69.6821 9.91493C69.1139 10.6234 68.7372 10.3164 68.1755 9.84408C67.6138 9.37179 66.8539 11.2531 65.9155 12.4338C65.7371 12.6306 65.486 12.7723 64.9243 12.3C64.1908 11.7018 63.041 14.7559 62.7106 15.4958C62.1754 16.7081 61.5807 15.181 60.9595 16.283C59.4793 18.794 57.9066 21.612 57.4969 26.6104C56.9682 32.5928 58.8185 37.4574 60.715 39.2521C60.715 39.2521 60.4837 39.9212 60.2194 40.7635C59.6974 42.448 59.4793 44.6363 60.1533 46.1633C60.8273 47.6904 62.3472 50.0991 62.9155 47.7849C63.193 46.6592 63.4507 46.7143 64.3627 47.4857C65.7437 48.6429 65.4067 46.5333 65.6843 45.9114C65.8825 45.4785 66.1204 45.3053 67.257 46.2027C67.9178 46.7065 68.1226 46.0138 68.3143 45.0534C68.9156 42.0701 67.7328 41.3381 66.5631 41.0626C65.9851 40.9556 65.3967 40.9556 64.8186 41.0626C66.6821 37.6857 66.9134 35.8438 64.8186 34.1278C64.9503 34.0549 65.0948 34.0212 65.2398 34.0294C65.3848 34.0377 65.526 34.0876 65.6512 34.175C66.1523 34.4371 66.5693 34.8841 66.8407 35.4502C67.1314 36.0563 67.6006 37.4102 66.6424 39.811C67.199 39.7992 67.7462 39.9824 68.2161 40.3379C68.686 40.6933 69.0579 41.2053 69.2857 41.8104C72.3886 42.4183 75.5434 42.5584 78.6757 42.2276C79.6141 42.0465 80.037 41.039 80.9687 39.9999C81.9005 38.9609 83.1758 37.6385 84.2331 38.5594C82.4291 39.441 81.1603 41.1098 81.1603 43.2272C81.1603 44.8016 81.7088 45.4549 82.667 46.3759C83.6252 47.2968 83.797 48.5878 84.1142 49.6425C84.5172 50.9807 85.3631 51.0279 85.5547 49.7527C85.8124 47.9895 86.2618 48.3201 86.8301 49.0679C87.5305 49.981 88.0724 49.8551 88.0724 48.5327C88.0724 47.2102 88.3896 46.675 89.5526 48.1076C90.0284 48.6901 90.5967 48.6743 90.5901 47.3992C90.5901 45.8249 91.1583 45.998 91.9117 46.6671C92.1628 46.8954 92.3412 47.0607 92.4733 47.0528C93.0482 47.0528 93.4249 45.691 92.9822 44.6363C92.7641 44.1089 92.4469 43.3296 89.4667 42.5975C88.4887 42.3535 88.6605 41.5506 88.6605 41.5506C95.9294 41.9678 102.088 40.8815 106.139 37.9454C111.121 39.3781 118.403 39.5198 120.796 39.5198C123.188 39.5198 125.011 39.3545 126.505 38.4965C127.998 37.6385 127.826 36.1901 127.1 35.647ZM112.06 22.1788C112.109 21.9809 112.208 21.8054 112.342 21.6749C112.476 21.5444 112.64 21.4649 112.813 21.4467C113.025 21.4578 113.227 21.5579 113.383 21.7294C113.539 21.9008 113.639 22.1325 113.665 22.3834L112.344 22.7377C111.914 22.8557 111.921 22.5881 112.06 22.1788ZM108.61 22.0686C108.949 22.0719 109.279 22.1898 109.564 22.4087C109.848 22.6275 110.074 22.9382 110.216 23.3044L108.234 23.8239C107.837 23.9263 107.573 23.7216 107.54 23.3516C107.541 23.0133 107.655 22.6893 107.855 22.4494C108.055 22.2094 108.326 22.0727 108.61 22.0686ZM70.0522 11.8907C70.6813 11.5263 71.3478 11.2617 72.0346 11.1035C72.1734 11.1035 72.2593 11.1586 72.2329 11.2924C72.1205 11.8356 72.0082 12.3945 71.9157 12.9612C71.9106 12.9929 71.8994 13.0228 71.8828 13.0483C71.8663 13.0739 71.8449 13.0944 71.8204 13.1082C71.7959 13.122 71.769 13.1287 71.7419 13.1278C71.7149 13.1269 71.6883 13.1184 71.6646 13.1029C71.1491 12.7959 70.6073 12.481 70.0192 12.1504C69.9531 12.0796 69.9465 11.9615 70.0522 11.8907ZM67.0059 13.5988C67.6344 13.2327 68.3011 12.968 68.9883 12.8116C69.1271 12.8116 69.213 12.8746 69.1865 13.0006C69.0742 13.5437 68.9685 14.1026 68.8694 14.6693C68.8653 14.7008 68.8549 14.7307 68.8391 14.7563C68.8232 14.782 68.8024 14.8027 68.7783 14.8166C68.7543 14.8305 68.7277 14.8373 68.701 14.8363C68.6743 14.8354 68.6481 14.8267 68.6249 14.811L66.9794 13.8586C66.9001 13.7956 66.8935 13.6696 67.0257 13.5988H67.0059ZM68.3275 17.3614C68.4663 17.3614 68.5588 17.4244 68.5257 17.5582C68.4134 18.1013 68.3077 18.6523 68.2019 19.2269C68.198 19.2575 68.1878 19.2865 68.1723 19.3113C68.1568 19.3361 68.1364 19.356 68.1129 19.3693C68.0894 19.3825 68.0635 19.3886 68.0376 19.3871C68.0116 19.3856 67.9864 19.3766 67.964 19.3608L66.3186 18.4162C66.1931 18.3453 66.1865 18.2194 66.3186 18.1485C66.9587 17.7789 67.6361 17.509 68.3341 17.3457L68.3275 17.3614ZM67.0521 20.51C66.9332 21.0531 66.8275 21.612 66.7283 22.1788C66.7259 22.2113 66.7165 22.2424 66.701 22.2693C66.6854 22.2961 66.6644 22.3178 66.6397 22.332C66.6151 22.3463 66.5878 22.3527 66.5605 22.3507C66.5332 22.3487 66.5068 22.3382 66.4838 22.3205L64.8384 21.368C64.7129 21.305 64.7129 21.1791 64.8384 21.1082C65.4672 20.7428 66.1338 20.4782 66.8209 20.3211C66.9927 20.3053 67.0852 20.3919 67.0587 20.4943L67.0521 20.51ZM64.2834 15.7871C64.9121 15.4217 65.5787 15.157 66.2658 14.9999C66.4045 14.9999 66.4904 15.055 66.464 15.1889C66.3517 15.732 66.2459 16.283 66.1468 16.8576C66.1418 16.8893 66.1305 16.9192 66.114 16.9447C66.0974 16.9703 66.076 16.9908 66.0516 17.0046C66.0271 17.0184 66.0002 17.0251 65.9731 17.0242C65.946 17.0233 65.9195 17.0148 65.8957 16.9993L64.2569 16.0468C64.1644 15.976 64.1644 15.8579 64.29 15.7713L64.2834 15.7871ZM62.1952 18.6445C62.8248 18.2816 63.4911 18.017 64.1776 17.8573C64.3164 17.8573 64.4089 17.9124 64.3825 18.0462C64.2635 18.5894 64.1578 19.1482 64.0587 19.715C64.0553 19.7468 64.0451 19.777 64.0292 19.8029C64.0132 19.8287 63.992 19.8493 63.9676 19.8627C63.9431 19.876 63.9162 19.8818 63.8894 19.8794C63.8625 19.8769 63.8367 19.8664 63.8142 19.8488C63.2988 19.5497 62.7503 19.2269 62.1688 18.9042C62.0763 18.8412 62.0763 18.7153 62.2018 18.6445H62.1952ZM61.4022 21.9426C62.0314 21.5782 62.6978 21.3136 63.3847 21.1555C63.5234 21.1555 63.6159 21.2106 63.5829 21.3444C63.4706 21.8875 63.3648 22.4464 63.2657 23.0132C63.2617 23.0446 63.2513 23.0745 63.2354 23.1002C63.2196 23.1258 63.1987 23.1465 63.1747 23.1604C63.1506 23.1744 63.1241 23.1811 63.0974 23.1802C63.0706 23.1792 63.0445 23.1705 63.0212 23.1548C62.4992 22.8479 61.9573 22.533 61.3692 22.2024C61.2899 22.1315 61.2833 22.0135 61.4088 21.9426H61.4022ZM61.7591 25.5242C61.6335 25.4533 61.6335 25.3353 61.7591 25.2644C62.3864 24.8949 63.0535 24.63 63.7415 24.4773C63.8803 24.4773 63.9728 24.5324 63.9463 24.6662C63.8274 25.2093 63.7217 25.7603 63.6225 26.3349C63.6191 26.3667 63.609 26.397 63.593 26.4228C63.5771 26.4487 63.5559 26.4692 63.5315 26.4826C63.507 26.496 63.4801 26.5018 63.4532 26.4993C63.4264 26.4969 63.4005 26.4864 63.3781 26.4688L61.7591 25.5242ZM65.334 29.5387C65.3291 29.5695 65.3181 29.5984 65.3018 29.6231C65.2856 29.6478 65.2647 29.6675 65.2407 29.6806C65.2168 29.6937 65.1906 29.6998 65.1643 29.6984C65.138 29.697 65.1124 29.6881 65.0895 29.6725L63.4441 28.72C63.3186 28.657 63.312 28.5311 63.4441 28.4603C64.072 28.0923 64.7389 27.8275 65.4266 27.6731C65.5653 27.6337 65.6578 27.7282 65.6314 27.8541C65.5455 28.413 65.4266 28.9719 65.3406 29.5387H65.334ZM65.1622 24.6268C65.0367 24.5638 65.0367 24.4379 65.1622 24.3671C65.791 24.0017 66.4576 23.737 67.1446 23.5799C67.2834 23.5799 67.3759 23.6429 67.3495 23.7688C67.2372 24.312 67.1248 24.8708 67.0257 25.4455C67.0208 25.4763 67.0097 25.5052 66.9935 25.5299C66.9773 25.5546 66.9563 25.5743 66.9324 25.5874C66.9085 25.6005 66.8823 25.6066 66.856 25.6052C66.8297 25.6038 66.804 25.5949 66.7812 25.5793C66.2988 25.2802 65.757 24.9574 65.1688 24.6268H65.1622ZM68.3275 31.3727C68.3245 31.4066 68.3142 31.439 68.2975 31.4667C68.2808 31.4944 68.2584 31.5165 68.2324 31.5308C68.2064 31.5451 68.1778 31.5511 68.1493 31.5482C68.1208 31.5453 68.0934 31.5337 68.0698 31.5144C67.5543 31.2153 67.0059 30.8926 66.4244 30.5698C66.2988 30.4911 66.2922 30.373 66.4244 30.3022C67.0546 29.9411 67.7207 29.6766 68.4068 29.515C68.5456 29.515 68.6381 29.578 68.605 29.704C68.5389 30.2471 68.4332 30.806 68.3341 31.3727H68.3275ZM68.9883 27.8778C68.9843 27.9093 68.9739 27.9391 68.958 27.9648C68.9422 27.9904 68.9213 28.0111 68.8973 28.025C68.8732 28.039 68.8467 28.0457 68.8199 28.0448C68.7932 28.0438 68.7671 28.0351 68.7438 28.0195C68.2218 27.7125 67.6799 27.3976 67.0918 27.067C66.9662 26.9961 66.9662 26.8781 67.0918 26.8072C67.7205 26.4418 68.3871 26.1771 69.0742 26.0201C69.2064 26.0201 69.2989 26.0752 69.2724 26.209C69.1998 26.7915 69.094 27.311 68.9949 27.8778H68.9883ZM71.9619 29.6016C71.843 30.1448 71.7373 30.6958 71.6381 31.2704C71.6332 31.3012 71.6222 31.3302 71.6059 31.3548C71.5897 31.3795 71.5687 31.3993 71.5448 31.4123C71.5209 31.4254 71.4947 31.4315 71.4684 31.4301C71.4421 31.4287 71.4165 31.4198 71.3936 31.4042C70.8782 31.1051 70.3363 30.7824 69.7548 30.4596C69.6293 30.3888 69.6227 30.2628 69.7548 30.192C70.3849 29.8304 71.0511 29.5659 71.7373 29.4048C71.9091 29.3734 71.995 29.4678 71.9685 29.6016H71.9619ZM72.1007 27.7282C71.5787 27.4291 71.0368 27.1064 70.4487 26.7836C70.3297 26.7128 70.3231 26.5868 70.4487 26.516C71.0787 26.1544 71.7449 25.8899 72.4311 25.7288C72.5765 25.7288 72.6624 25.7918 72.6359 25.9256C72.517 26.4688 72.4179 27.0198 72.3122 27.5944C72.3079 27.6205 72.2989 27.6451 72.2857 27.6665C72.2726 27.688 72.2556 27.7057 72.2361 27.7185C72.2165 27.7313 72.1948 27.7387 72.1726 27.7404C72.1503 27.7421 72.128 27.7379 72.1073 27.7282H72.1007ZM74.6778 32.2071C74.5655 32.7502 74.4598 33.3012 74.3606 33.8759C74.3557 33.9067 74.3447 33.9356 74.3284 33.9603C74.3122 33.985 74.2913 34.0047 74.2673 34.0178C74.2434 34.0309 74.2172 34.037 74.1909 34.0356C74.1646 34.0342 74.139 34.0253 74.1162 34.0097L72.4906 33.0887C72.365 33.0257 72.3584 32.9077 72.4906 32.829C73.1193 32.4635 73.7859 32.1989 74.473 32.0418C74.6316 31.9867 74.7307 32.0733 74.6778 32.2071ZM75.3386 28.6019C75.2263 29.1451 75.1206 29.704 75.0149 30.2707C75.0114 30.3025 75.0013 30.3327 74.9853 30.3586C74.9694 30.3844 74.9482 30.405 74.9238 30.4184C74.8993 30.4318 74.8724 30.4375 74.8455 30.4351C74.8187 30.4327 74.7928 30.4221 74.7704 30.4045C74.2549 30.1054 73.7065 29.7827 73.1249 29.4599C72.9994 29.3891 72.9994 29.271 73.1249 29.1923C73.7549 28.8305 74.4211 28.566 75.1074 28.4052C75.2924 28.3658 75.3849 28.4681 75.3386 28.6019ZM75.7417 26.4609C75.7383 26.4927 75.7282 26.5229 75.7122 26.5488C75.6963 26.5746 75.6751 26.5952 75.6506 26.6086C75.6262 26.6219 75.5993 26.6277 75.5724 26.6253C75.5456 26.6228 75.5197 26.6123 75.4972 26.5947L73.8518 25.6501C73.7263 25.5793 73.7197 25.4533 73.8518 25.3904C74.4804 25.0243 75.147 24.7595 75.8342 24.6032C75.973 24.6032 76.0655 24.6583 76.0391 24.7921C75.9994 25.3353 75.8607 25.8941 75.7616 26.4609H75.7417ZM77.8035 32.6715C77.7994 32.703 77.789 32.7329 77.7732 32.7585C77.7573 32.7842 77.7365 32.8049 77.7124 32.8188C77.6884 32.8327 77.6618 32.8395 77.6351 32.8385C77.6084 32.8376 77.5822 32.8289 77.559 32.8132C77.0435 32.5062 76.5017 32.1914 75.9135 31.8608C75.788 31.7978 75.788 31.6718 75.9135 31.601C76.5423 31.2356 77.2089 30.9709 77.896 30.8138C78.0347 30.8138 78.1272 30.8689 78.1008 31.0028C78.0281 31.5144 77.929 32.1048 77.8233 32.6715H77.8035ZM78.4643 29.1766C78.4613 29.2078 78.4518 29.2377 78.4367 29.2635C78.4215 29.2893 78.4012 29.3102 78.3776 29.3243C78.354 29.3384 78.3277 29.3452 78.3013 29.3442C78.2749 29.3431 78.2492 29.3342 78.2264 29.3183C77.7109 29.0113 77.1559 28.6964 76.581 28.3658C76.4554 28.295 76.4488 28.1769 76.581 28.106C77.2089 27.7383 77.8758 27.4735 78.5634 27.3189C78.6955 27.3189 78.7881 27.374 78.7616 27.5157C78.6889 28.0509 78.5832 28.6098 78.4775 29.153L78.4643 29.1766ZM78.9202 25.658L77.3211 24.7134C77.1955 24.6426 77.1889 24.5245 77.3211 24.4458C77.9495 24.0795 78.6162 23.8148 79.3035 23.6586C79.4423 23.6586 79.5348 23.7137 79.5083 23.8475C79.396 24.3907 79.2837 24.9496 79.1845 25.5163C79.1828 25.5501 79.1735 25.5826 79.1576 25.6106C79.1417 25.6386 79.1198 25.6611 79.0941 25.6755C79.0685 25.69 79.04 25.696 79.0118 25.6929C78.9835 25.6898 78.9565 25.6778 78.9334 25.658H78.9202ZM81.6493 30.129C81.5304 30.6643 81.4247 31.2232 81.3255 31.7978C81.3216 31.8284 81.3115 31.8574 81.2959 31.8822C81.2804 31.907 81.26 31.9269 81.2365 31.9401C81.213 31.9533 81.1871 31.9594 81.1612 31.958C81.1352 31.9565 81.11 31.9474 81.0877 31.9316C80.5656 31.6325 80.0238 31.3097 79.4356 30.9791C79.3101 30.9083 79.3101 30.7902 79.4356 30.7194C80.0748 30.3507 80.7527 30.0859 81.4511 29.9322C81.5965 29.9401 81.689 29.9952 81.6626 30.129H81.6493ZM82.3102 26.6341C82.1978 27.1693 82.0921 27.7282 81.993 28.3028C81.9895 28.3346 81.9794 28.3649 81.9635 28.3907C81.9475 28.4165 81.9263 28.4371 81.9019 28.4505C81.8774 28.4639 81.8505 28.4696 81.8237 28.4672C81.7968 28.4648 81.7709 28.4543 81.7485 28.4366L80.1031 27.4921C79.9775 27.4212 79.9709 27.3031 80.1031 27.2244C80.7321 26.8599 81.3986 26.5952 82.0855 26.4373C82.2375 26.4137 82.3234 26.5081 82.2969 26.6341H82.3102ZM82.4093 24.9732C81.8872 24.674 81.3454 24.3513 80.7573 24.0207C80.6383 23.9499 80.6317 23.8318 80.7573 23.761C81.3864 23.3966 82.0528 23.1319 82.7397 22.9738C82.8784 22.9738 82.9644 23.0289 82.9379 23.1627C82.8256 23.7058 82.7199 24.2647 82.6207 24.8315C82.6158 24.8598 82.6056 24.8864 82.591 24.9095C82.5764 24.9326 82.5578 24.9516 82.5363 24.9652C82.5149 24.9787 82.4912 24.9864 82.4669 24.9878C82.4427 24.9892 82.4185 24.9842 82.3961 24.9732H82.4093ZM85.0525 29.6961C84.9402 30.2392 84.8344 30.7902 84.7353 31.3649C84.7319 31.3967 84.7217 31.4269 84.7058 31.4527C84.6899 31.4786 84.6687 31.4991 84.6442 31.5125C84.6198 31.5259 84.5928 31.5317 84.566 31.5292C84.5392 31.5268 84.5133 31.5163 84.4908 31.4987L82.8454 30.5541C82.7199 30.4832 82.7132 30.3652 82.8454 30.2943C83.4734 29.9266 84.1402 29.6618 84.8278 29.5072C85.0062 29.4836 85.0921 29.5701 85.0657 29.704L85.0525 29.6961ZM85.7133 26.2326C85.601 26.7757 85.4952 27.3268 85.3961 27.9014C85.3912 27.9322 85.3801 27.9611 85.3639 27.9858C85.3477 28.0105 85.3267 28.0302 85.3028 28.0433C85.2789 28.0564 85.2527 28.0625 85.2264 28.0611C85.2001 28.0597 85.1745 28.0508 85.1516 28.0352C84.6362 27.7361 84.0877 27.4133 83.5062 27.0906C83.3807 27.0198 83.3807 26.8938 83.5062 26.823C84.1353 26.4586 84.8018 26.194 85.4886 26.0358C85.6406 26.0043 85.7331 26.1067 85.7001 26.2405L85.7133 26.2326ZM86.0437 24.493C86.0407 24.5243 86.0313 24.5542 86.0161 24.58C86.001 24.6058 85.9807 24.6267 85.957 24.6408C85.9334 24.6548 85.9072 24.6616 85.8808 24.6606C85.8544 24.6595 85.8286 24.6506 85.8058 24.6347C85.2838 24.3277 84.7419 24.0128 84.1538 23.6822C84.0282 23.6114 84.0282 23.4933 84.1538 23.4146C84.7933 23.0468 85.4711 22.7821 86.1693 22.6274C86.308 22.6274 86.3939 22.6826 86.3675 22.8164C86.242 23.3752 86.1362 23.9263 86.0305 24.5009L86.0437 24.493ZM88.4557 29.8535C88.3367 30.3967 88.231 30.9555 88.1319 31.5223C88.1278 31.5538 88.1174 31.5836 88.1016 31.6093C88.0857 31.6349 88.0649 31.6556 88.0408 31.6695C88.0168 31.6835 87.9902 31.6903 87.9635 31.6893C87.9368 31.6883 87.9107 31.6796 87.8874 31.664C87.3719 31.357 86.8301 31.0421 86.2419 30.7115C86.1164 30.6407 86.1164 30.5147 86.2419 30.4439C86.8707 30.0785 87.5373 29.8138 88.2244 29.6567C88.3764 29.6331 88.4689 29.7276 88.4424 29.8614L88.4557 29.8535ZM89.1165 26.3428C89.0041 26.8859 88.8984 27.437 88.7993 28.0116C88.7952 28.0431 88.7848 28.0729 88.769 28.0986C88.7531 28.1242 88.7323 28.1449 88.7082 28.1588C88.6842 28.1728 88.6576 28.1795 88.6309 28.1786C88.6042 28.1776 88.5781 28.1689 88.5548 28.1533C88.0393 27.8463 87.4909 27.5235 86.9094 27.2008C86.7838 27.13 86.7838 27.004 86.9094 26.9332C87.5396 26.5721 88.2057 26.3076 88.8918 26.146C89.0305 26.1224 89.1165 26.2169 89.09 26.3507L89.1165 26.3428ZM89.7773 22.9108C89.6649 23.4461 89.5526 24.005 89.4535 24.5796C89.4485 24.6104 89.4375 24.6393 89.4213 24.664C89.405 24.6887 89.3841 24.7084 89.3602 24.7215C89.3362 24.7346 89.31 24.7407 89.2837 24.7393C89.2574 24.7379 89.2318 24.729 89.209 24.7134C88.6935 24.4143 88.1517 24.0916 87.5702 23.7688C87.438 23.698 87.438 23.572 87.5702 23.5012C88.1989 23.1358 88.8655 22.8711 89.5526 22.714C89.6847 22.6983 89.7773 22.7849 89.7508 22.9187L89.7773 22.9108ZM92.0703 28.7515C92.0668 28.7833 92.0567 28.8135 92.0408 28.8394C92.0248 28.8652 92.0036 28.8858 91.9792 28.8992C91.9547 28.9126 91.9278 28.9183 91.901 28.9159C91.8741 28.9135 91.8482 28.9029 91.8258 28.8853L90.1804 27.9407C90.0548 27.8699 90.0548 27.7439 90.1804 27.6731C90.8104 27.3115 91.4766 27.047 92.1628 26.8859C92.3015 26.8859 92.3941 26.9489 92.3676 27.0827C92.2487 27.6337 92.1496 28.1926 92.0438 28.7594L92.0703 28.7515ZM93.0483 23.5484C92.9359 24.0916 92.8302 24.6504 92.7311 25.2172C92.7277 25.249 92.7175 25.2792 92.7016 25.3051C92.6856 25.3309 92.6644 25.3515 92.64 25.3649C92.6155 25.3782 92.5886 25.384 92.5618 25.3816C92.5349 25.3791 92.509 25.3686 92.4866 25.351C91.9711 25.0519 91.4227 24.7291 90.8412 24.4064C90.7156 24.3356 90.709 24.2096 90.8412 24.1388C91.4696 23.7725 92.1363 23.5078 92.8236 23.3516C92.9624 23.3359 93.0549 23.4225 93.0218 23.5563L93.0483 23.5484ZM96.1673 24.8394C96.0549 25.3825 95.9492 25.9414 95.8501 26.5081C95.846 26.5396 95.8356 26.5695 95.8198 26.5951C95.8039 26.6208 95.7831 26.6414 95.759 26.6554C95.735 26.6693 95.7085 26.6761 95.6817 26.6751C95.655 26.6741 95.6289 26.6655 95.6056 26.6498C95.0901 26.3428 94.5417 26.028 93.9602 25.6973C93.8346 25.6265 93.828 25.5084 93.9602 25.4376C94.5997 25.0699 95.2775 24.8052 95.9756 24.6504C96.0814 24.6268 96.1673 24.7134 96.1408 24.8472L96.1673 24.8394Z" fill="#C9C9C9"/>
<path d="M109.04 28.2084C107.011 27.4213 106.146 27.5236 104.586 28.2084C103.697 28.6385 102.706 28.661 101.804 28.2714C101.804 28.2714 101.731 30.255 103.654 30.0189C104.474 29.9087 105.875 29.4364 106.998 29.83C109.172 30.6171 108.63 31.7742 111.472 34.0648C112.351 34.6158 113.203 33.4745 113.837 33.7815C114.174 33.9389 114.399 35.3558 114.796 35.4345C115.192 35.5132 115.846 34.364 116.487 34.5607C116.864 34.6788 117.016 36.0878 117.412 36.1902C117.809 36.2925 118.489 35.1747 119.091 35.403C119.553 35.5526 119.606 36.8671 120.128 36.9773C120.525 37.0875 121.172 35.9383 121.681 36.0799C122.19 36.2216 122.164 36.812 122.818 37.1898C123.472 37.5677 124.001 37.5047 124.232 37.1032C124.523 36.5759 124.172 36.0327 123.346 35.584C121.467 34.7007 119.542 33.9593 117.584 33.3643C115.384 32.5771 113.461 31.6483 113.329 30.318C113.269 29.7591 113.5 29.8221 113.599 29.8614C112.747 29.1136 112.575 28.4052 112.615 28.0195L112.37 28.0982C111.309 28.6169 110.124 28.6561 109.04 28.2084Z" fill="#C9C9C9"/>
</g>
<defs>
<clipPath id="clip0_201_167">
<rect width="185" height="90" fill="white"/>
</clipPath>
</defs>
</svg>
