<svg width="116" height="76" viewBox="0 0 116 76" fill="none" xmlns="http://www.w3.org/2000/svg">
<g clip-path="url(#clip0_158_447)">
<path d="M77.3735 43.8056C84.99 43.8056 96.0187 42.4333 96.0187 34.5853C96.0435 33.9794 95.9821 33.3732 95.8359 32.7803L91.2965 15.7067C90.2484 11.9489 89.3284 10.2442 81.7118 6.94556C75.8075 4.32778 62.9203 0 59.1121 0C55.578 0 54.5422 3.95833 50.3135 3.95833C46.2432 3.95833 43.2209 1.00278 39.4066 1.00278C35.7507 1.00278 33.3743 3.16667 31.5341 7.6C31.5341 7.6 26.4158 20.1189 25.7456 21.9344C25.6451 22.2684 25.604 22.6137 25.6237 22.9583C25.6237 27.8244 47.7421 43.7792 77.3735 43.7792M97.1947 37.7731C98.2488 42.1008 98.2488 42.5494 98.2488 43.1194C98.2488 50.5083 88.6581 54.6092 76.0512 54.6092C47.5593 54.625 22.6015 40.1639 22.6015 30.6111C22.5971 29.2793 22.9082 27.9608 23.5155 26.7372C13.291 27.1806 0.0078125 28.7639 0.0078125 38.9078C0.0078125 55.5222 45.4632 76 81.4437 76C109.034 76 115.992 65.1911 115.992 56.6569C115.992 49.9436 109.29 42.3225 97.2069 37.7731" fill="#9C9C9C"/>
<path d="M97.1948 37.7731C98.249 42.1008 98.249 42.5495 98.249 43.1195C98.249 50.5083 88.6582 54.6092 76.0514 54.6092C47.5595 54.625 22.6016 40.1639 22.6016 30.6111C22.5972 29.2793 22.9083 27.9608 23.5156 26.7372L25.7518 21.9556C25.6497 22.2822 25.6045 22.6202 25.6178 22.9583C25.6178 27.8245 47.7362 43.7792 77.3736 43.7792C84.9901 43.7792 96.0189 42.4175 96.0189 34.5642C96.0441 33.9565 95.9827 33.3485 95.8361 32.7539L97.1948 37.7731Z" fill="black"/>
</g>
<defs>
<clipPath id="clip0_158_447">
<rect width="116" height="76" fill="white"/>
</clipPath>
</defs>
</svg>
