<svg width="130" height="56" viewBox="0 0 130 56" fill="none" xmlns="http://www.w3.org/2000/svg">
<g clip-path="url(#clip0_262_667)">
<path fill-rule="evenodd" clip-rule="evenodd" d="M24.4204 0H19.7132V56H24.4204V43.4393H31.5624V56H36.4319V0H31.5624V32.972H24.4204V0ZM40.3276 0V56H45.3594V0H40.3276ZM64.6752 8.8972C65.6491 9.42056 66.9477 9.94393 66.9477 16.7477V56H71.6549V17.7944C71.6549 9.42056 71.8172 0.523364 67.7593 0H49.255V56H53.9622V9.42056H58.1825V56H62.7274V8.8972H64.6752ZM106.066 18.8411V56H110.936V15.1776C110.936 5.75701 109.15 0 106.229 0H94.5417V56H99.4112V9.42056H103.956C105.579 9.42056 106.066 14.6542 106.066 18.8411ZM3.80606 33.4953H10.4611C11.5973 33.4953 12.2466 36.6355 12.4089 39.2523C12.5712 42.9159 11.9219 46.5794 10.4611 46.5794H0.559707V56H13.0582C13.3828 56 14.0321 55.4766 14.3567 54.9533C15.9799 52.3364 16.6292 47.1028 16.7915 41.8692V37.1589C16.6292 26.1682 15.6553 21.4579 11.9219 21.4579H6.24083C4.94229 21.4579 4.61765 17.7944 4.61765 14.6542C4.61765 8.8972 6.07851 9.42056 7.70169 9.42056H16.3045V0H3.80606C3.48143 0 2.83216 0.523364 2.50752 0.523364C0.884343 2.61682 0.0727539 8.8972 0.0727539 15.7009C0.0727539 24.0748 0.884343 33.4953 3.80606 33.4953ZM129.927 42.9159V13.0841C129.927 5.75701 128.141 0 125.869 0H117.753C115.481 0 113.695 5.75701 113.695 13.0841V42.9159C113.695 50.243 115.481 56 117.753 56H125.869C128.141 56 129.927 50.243 129.927 42.9159ZM120.35 9.42056H123.11C124.246 9.42056 125.057 12.0374 125.057 15.7009V40.8224C125.057 43.9626 124.246 47.1028 123.11 47.1028H120.35C119.376 47.1028 118.402 43.9626 118.402 40.8224V15.7009C118.402 12.0374 119.376 9.42056 120.35 9.42056ZM74.5766 15.1776V56H79.2838V43.9626H86.9128V56H91.7823V15.7009C91.7823 5.23364 89.9968 0 87.3997 0H78.4722C75.8751 0 74.5766 7.3271 74.5766 15.1776ZM86.9128 16.2243V33.4953H79.4461V16.2243C79.4461 11.514 80.5824 9.42056 81.0693 9.42056H84.9649C85.9388 9.42056 86.9128 12.0374 86.9128 16.2243Z" fill="#DEDEDE"/>
</g>
<defs>
<clipPath id="clip0_262_667">
<rect width="130" height="56" fill="white"/>
</clipPath>
</defs>
</svg>
