<svg width="130" height="56" viewBox="0 0 130 56" fill="none" xmlns="http://www.w3.org/2000/svg">
<g clip-path="url(#clip0_262_673)">
<path d="M6.6909 11.6814C6.44996 11.7925 6.44996 11.8172 6.6909 11.9283C6.83918 11.99 7.11719 12.0517 7.284 12.0517C7.46935 12.0517 7.8771 12.1258 8.21072 12.2246C8.54434 12.3233 9.19304 12.4961 9.6564 12.6072C10.5461 12.8418 13.9564 13.928 14.568 14.1872C16.2546 14.8785 17.6632 15.8166 18.4232 16.7301C19.2757 17.7917 19.0719 19.026 17.8486 20.174C17.3111 20.6554 16.9775 20.6678 15.8283 20.2234C14.2529 19.6186 11.8435 19.0137 9.19304 18.557C6.67237 18.1249 1.50128 17.7052 0.556031 17.8534L0.111206 17.9274L0.0556022 28.5062L0.0185341 39.0849H0.463359C0.704306 39.0849 1.20473 38.9985 1.55689 38.8997C1.92757 38.801 2.428 38.7146 2.65041 38.7146C3.57713 38.7146 3.6698 38.5417 3.20644 37.7024C2.87283 37.0605 2.79869 36.6655 2.79869 35.4681C2.79869 34.1597 2.9099 33.6536 3.46593 32.2093C3.52153 32.0489 4.72626 31.802 6.96892 31.4934C7.78443 31.3823 8.9521 31.2218 9.56373 31.1231C11.7693 30.8021 13.2891 30.5799 14.7534 30.3824C15.5689 30.2713 16.718 30.0862 17.3111 29.9751C18.6085 29.7405 18.868 29.8516 18.4417 30.4195C18.1637 30.8145 17.4779 31.086 16.2361 31.3206C15.6986 31.4193 14.8646 31.6168 10.6758 32.6043C9.6564 32.8512 8.58141 33.0981 8.26632 33.1598C7.7659 33.2462 6.96892 33.4437 5.35643 33.8757C4.63359 34.0733 4.46678 34.3819 4.46678 35.4681C4.48532 36.3816 4.78187 37.258 5.35643 37.9369C5.78272 38.4553 5.57884 38.7392 4.55945 39.0849C4.46678 39.1219 3.39179 39.5786 2.18705 40.1218L0 41.0846L0.0556022 42.8374L0.111206 44.5779L2.16852 44.6149C3.83661 44.6396 4.2629 44.6149 4.46678 44.4545C4.59652 44.3557 4.76333 44.2693 4.83747 44.2693C4.96721 44.2693 12.8628 41.1957 13.734 40.813C13.8822 40.739 14.1788 40.6279 14.3827 40.5661C14.5865 40.4921 15.0128 40.3316 15.3094 40.1958C15.6245 40.06 16.0322 39.8996 16.2361 39.8379C16.7551 39.6897 16.9589 39.5046 17.6818 38.5788C18.0339 38.1344 18.5714 37.4678 18.8865 37.0728C19.2201 36.6902 19.7391 36.0606 20.0356 35.6903C20.3507 35.32 20.8326 34.7151 21.1292 34.3572C21.4257 34.0115 22.0559 33.2092 22.5378 32.6043C23.0197 31.9871 23.6498 31.2095 23.9279 30.8762C25.4847 28.9876 25.4847 28.9876 25.2438 28.6913C25.1326 28.5308 24.799 28.2222 24.521 28.0001C24.0576 27.6174 23.8723 27.568 22.6305 27.4816C18.6826 27.173 17.4408 26.9755 15.5689 26.3954C13.6228 25.7905 12.7516 24.9758 12.8443 23.8649C12.9184 23.0378 13.2891 23.0131 13.7525 23.8278C13.9378 24.1611 14.2715 24.5685 14.5124 24.7289C14.9943 25.0746 16.44 25.7535 16.6995 25.7535C16.7921 25.7535 17.1443 25.8275 17.4779 25.9263C18.9236 26.346 20.2581 26.5188 22.2598 26.5311L24.3171 26.5558L26.1705 25.2967L28.0425 24.0253L28.5615 24.2105C28.8395 24.3092 29.377 24.6178 29.7291 24.8894C30.1369 25.2103 30.4705 25.3585 30.6558 25.3214C31.1563 25.1856 31.5826 24.1611 31.6567 22.865C31.7308 21.7047 31.7123 21.6059 31.1748 20.8776C30.5261 20.0136 30.4705 19.8284 30.8782 19.8284C31.286 19.8284 32.639 20.1987 33.436 20.5443C33.8437 20.7048 34.1959 20.8036 34.2515 20.7665C34.4368 20.6431 33.195 19.0507 32.2683 18.236C29.933 16.1252 26.3929 14.4835 21.7964 13.3725C20.1098 12.9652 19.7391 12.8911 19.2943 12.8294C19.0348 12.7924 18.4602 12.6936 17.9969 12.6072C14.5495 11.953 7.39521 11.3605 6.6909 11.6814ZM55.6587 25.2967C55.4733 25.3585 55.0841 25.6917 54.8061 26.0374C54.5281 26.3953 54.0462 26.9508 53.7496 27.2965C53.4531 27.6297 53.0639 28.0741 52.9156 28.284C52.7673 28.4815 52.4893 28.8148 52.2854 29.0246C52.1001 29.2221 51.7294 29.6418 51.4885 29.9504C51.229 30.259 50.8583 30.7034 50.6359 30.9379C50.432 31.1724 50.191 31.4563 50.1169 31.5551C50.0428 31.6538 49.635 32.1476 49.1902 32.6414C48.7454 33.1475 48.3932 33.5672 48.3932 33.5918C48.3932 33.6412 46.8363 35.4434 46.5398 35.752C46.4286 35.8508 46.2988 36.0236 46.2247 36.1223C46.1506 36.2211 45.7428 36.7148 45.298 37.2086C44.8532 37.7147 44.501 38.1467 44.501 38.1714C44.501 38.1961 44.2971 38.443 44.0376 38.7269C43.7782 38.9985 43.6114 39.27 43.667 39.3318C43.7411 39.4058 45.4648 39.4552 47.9299 39.4552H52.0816L52.6932 38.7392C53.0268 38.3566 53.3975 37.9369 53.4902 37.8258C53.6014 37.7147 53.8979 37.3444 54.1574 37.0234C54.4354 36.7025 54.8246 36.2334 55.0471 35.9989C55.2509 35.7644 55.4919 35.4805 55.566 35.3817C55.6402 35.283 56.0479 34.7892 56.4927 34.2954C56.9376 33.7893 57.2897 33.3697 57.2897 33.345C57.2897 33.2956 58.8466 31.4934 59.1431 31.1848C59.2544 31.086 59.3841 30.9132 59.4582 30.8145C59.5324 30.7157 59.6621 30.5923 59.7733 30.5429C59.8845 30.4935 61.497 30.4441 63.3319 30.4441C66.0194 30.4441 66.7237 30.4812 66.7978 30.617C66.8534 30.7034 66.6125 31.0984 66.2603 31.481C65.9082 31.8637 65.6302 32.2093 65.6302 32.234C65.6302 32.271 64.0918 34.0733 63.7767 34.3942C63.6655 34.4929 63.5358 34.6658 63.4617 34.7645C63.3875 34.8633 62.9798 35.357 62.5349 35.8508C62.0901 36.3569 61.738 36.7766 61.738 36.8013C61.738 36.8259 61.3673 37.2703 60.9039 37.7764C60.4406 38.2949 60.0699 38.7516 60.0699 38.801C60.0699 38.8503 59.9401 38.9861 59.7733 39.1096C59.5138 39.2947 59.5138 39.3318 59.7177 39.3935C59.866 39.4305 61.8492 39.4428 64.1289 39.4305L68.2621 39.3935L68.6698 38.8997C69.0405 38.4306 70.3194 36.9247 70.7271 36.468C70.8383 36.3569 71.1349 35.9866 71.3944 35.6656C71.6724 35.3447 72.0616 34.8756 72.284 34.6411C72.4879 34.4065 72.7288 34.1226 72.803 34.0239C72.8771 33.9251 73.2849 33.4314 73.7297 32.9376C74.1745 32.4315 74.5267 32.0118 74.5267 31.9748C74.5267 31.9501 74.9159 31.5057 75.3792 30.9749C76.4913 29.7405 76.5469 29.2715 75.6387 28.9135C75.0086 28.6666 74.7491 28.6543 68.6698 28.6543C63.5729 28.6543 62.2569 28.6913 61.8677 28.8271C61.5897 28.9258 61.3117 28.9752 61.2561 28.9258C61.2005 28.8888 61.5155 28.4197 61.9418 27.889C62.3867 27.3582 62.8129 26.8397 62.9056 26.741C62.9798 26.6422 63.2022 26.383 63.406 26.1855C63.9621 25.6177 64.0362 25.5066 63.8323 25.3708C63.5914 25.2103 56.1406 25.161 55.6587 25.2967ZM40.8127 26.8768C36.142 28.2222 35.0485 28.5926 35.0485 28.8518C35.0485 28.9258 33.8808 30.3331 33.195 31.0613C33.1024 31.1601 32.8244 31.4934 32.5834 31.802C32.3239 32.1106 31.9532 32.555 31.7308 32.7895C31.527 33.024 31.286 33.3079 31.2119 33.4067C31.1377 33.5054 30.7485 33.9745 30.3222 34.4559C29.9145 34.925 29.5067 35.4064 29.4326 35.5051C29.3584 35.6039 29.1175 35.8878 28.9136 36.1223C28.6912 36.3569 28.339 36.7766 28.1352 37.0481C27.9128 37.3197 27.6533 37.6283 27.5235 37.727C27.1899 38.0233 27.0787 38.4924 27.2826 38.7392C27.3753 38.8627 27.7645 39.0602 28.1537 39.1713C28.7468 39.3564 29.6364 39.3935 34.511 39.4305C39.0334 39.4675 40.2196 39.4428 40.3678 39.3071C40.8127 38.9367 41.7023 37.7517 41.5911 37.6777C41.517 37.6406 40.4049 37.6036 39.089 37.6036C36.2532 37.6036 36.2717 37.616 37.5506 36.1717C38.014 35.6656 38.3847 35.2212 38.3847 35.1965C38.3847 35.1719 38.7368 34.7522 39.1816 34.2461C39.6265 33.7523 40.0342 33.2586 40.1084 33.1598C40.1825 33.0611 40.4049 32.8018 40.5903 32.592C40.7756 32.3821 41.1463 31.9624 41.3872 31.6662C42.4066 30.4071 42.3139 30.4441 44.1303 30.4441C45.6316 30.4441 45.9281 30.3948 47.5962 29.938C49.4126 29.4319 50.4691 29.1234 50.988 28.9629C51.7294 28.7283 50.988 28.6543 47.8001 28.6173C45.057 28.5926 44.3157 28.5555 44.3157 28.4197C44.3157 28.2346 45.2794 27.0125 46.1691 26.0621C46.6139 25.593 46.6325 25.3832 46.2247 25.3955C46.0394 25.3955 43.6114 26.0621 40.8127 26.8768ZM82.9598 28.716C80.6801 28.8888 79.3827 29.3826 78.6413 30.3331C78.4189 30.6293 78.1409 30.9626 78.0482 31.0613C77.659 31.4687 76.1948 33.1845 76.1948 33.2215C76.1948 33.2462 75.8241 33.6906 75.3607 34.1967C74.8974 34.7151 74.5267 35.1595 74.5267 35.1842C74.5267 35.2212 74.1374 35.678 73.6741 36.2087C71.5612 38.5664 71.5056 38.7392 72.7288 39.1713C73.2663 39.3688 74.1745 39.3935 82.8671 39.4305C95.8968 39.4799 95.7485 39.5046 98.1394 36.5544C98.4175 36.2087 98.8252 35.7397 99.0291 35.5051C99.233 35.2706 99.6222 34.8015 99.9002 34.4806C100.16 34.1597 100.475 33.7893 100.567 33.6782C100.679 33.5672 101.086 33.0734 101.494 32.6043C101.902 32.1229 102.31 31.6415 102.421 31.5304C104.07 29.6912 104.108 29.3455 102.736 28.9258C101.883 28.6666 101.642 28.6543 93.061 28.6419C88.2236 28.6296 83.6826 28.6666 82.9598 28.716ZM94.2843 30.617C94.3399 30.7157 94.1731 31.012 93.9136 31.2959C93.6541 31.5674 93.4317 31.8267 93.4317 31.8514C93.4317 31.9007 92.0787 33.4807 91.5783 34.0239C91.4856 34.1226 91.2076 34.4559 90.9666 34.7645C90.7072 35.0731 90.3365 35.5175 90.1326 35.752C89.9287 35.9866 89.5766 36.4062 89.3542 36.6778C88.5572 37.6406 88.7611 37.6036 84.8688 37.6036C82.8301 37.6036 81.3844 37.5542 81.3844 37.4925C81.3844 37.3691 82.237 36.3075 82.9042 35.5669C83.0895 35.357 83.2934 35.1101 83.3676 35.0114C83.4417 34.9126 83.8309 34.4312 84.2572 33.9622C84.665 33.4807 85.0727 33.0117 85.1469 32.9129C85.221 32.8142 85.4619 32.5303 85.6658 32.2957C85.8882 32.0612 86.2775 31.6045 86.5184 31.2712C86.7779 30.9502 87.13 30.6293 87.2968 30.5676C87.4637 30.5059 89.0761 30.4441 90.8925 30.4441C93.5615 30.4441 94.2102 30.4812 94.2843 30.617ZM107.833 28.679C107.573 28.7283 106.128 30.1849 105.609 30.9379C105.535 31.0367 105.294 31.3206 105.09 31.5551C104.867 31.7896 104.478 32.2587 104.2 32.5796C103.941 32.9006 103.644 33.2709 103.533 33.382C103.44 33.4931 103.014 33.9868 102.606 34.4559C102.198 34.9373 101.791 35.4187 101.679 35.5298C101.587 35.6409 101.272 36.0112 101.012 36.3322C100.734 36.6531 100.345 37.1222 100.123 37.3567C99.9187 37.5913 99.6592 37.8999 99.5666 38.0356C99.4739 38.1714 99.1774 38.4924 98.9179 38.7516C98.6399 39.0108 98.4731 39.2824 98.5287 39.3441C98.6028 39.4058 100.456 39.4552 102.884 39.4552H107.11L107.573 38.8627C107.814 38.5417 108.204 38.085 108.407 37.8505C108.611 37.616 109.019 37.1345 109.297 36.8013C110.168 35.7273 110.317 35.5792 110.669 35.1965C110.854 34.9867 111.225 34.5794 111.466 34.2708C111.725 33.9622 112.096 33.5178 112.318 33.2832C112.522 33.0487 112.763 32.7648 112.837 32.666C113.171 32.1846 114.616 30.617 114.802 30.5429C115.173 30.3824 119.843 30.4318 120.084 30.5923C120.251 30.7034 120.195 30.8515 119.899 31.2342C119.658 31.5181 119.361 31.839 119.232 31.9501C118.713 32.3698 119.12 32.4192 123.476 32.4192C127.702 32.4192 127.739 32.4192 127.906 32.1353C128.017 31.9871 128.35 31.5798 128.647 31.2465C129.555 30.2466 130 29.5924 129.889 29.3949C129.815 29.2962 129.444 29.111 129.036 28.9629C128.332 28.7283 127.961 28.716 122.827 28.716C119.38 28.716 117.322 28.7654 117.248 28.8394C117.082 29.0246 116.488 28.9876 116.229 28.7777C116.044 28.6173 115.358 28.5926 112.077 28.6049C109.927 28.6173 108.018 28.6419 107.833 28.679Z" fill="#DEDEDE"/>
</g>
<defs>
<clipPath id="clip0_262_673">
<rect width="130" height="56" fill="white"/>
</clipPath>
</defs>
</svg>
