<svg width="165" height="114" viewBox="0 0 165 114" fill="none" xmlns="http://www.w3.org/2000/svg">
<g clip-path="url(#clip0_158_453)">
<path fill-rule="evenodd" clip-rule="evenodd" d="M0 0H165V114H0V0Z" fill="white"/>
<path fill-rule="evenodd" clip-rule="evenodd" d="M34.7615 74.2151C34.7615 74.2151 33.6213 73.4675 33.3363 73.94C33.0512 74.4126 33.6213 74.5303 33.6213 74.5303C38.5793 77.365 38.1239 82.7203 38.1239 82.7203C37.5538 90.478 32.0258 92.6834 29.3473 92.6834C27.7534 92.6834 26.8495 91.9175 26.3753 91.2959C28.4074 90.1675 29.9063 88.7386 30.6014 87.9969C31.8554 86.658 32.0266 85.5159 32.0266 85.5159C32.8253 81.3032 29.462 81.1459 29.462 81.1459C24.0478 81.1459 22.2245 84.7282 22.1098 87.5244C22.0653 88.6239 22.2955 90.009 22.9358 91.29C21.3591 91.7809 19.416 91.9636 18.5197 90.5566C17.2665 88.5872 18.0061 85.4373 19.5461 82.563C21.0843 79.6881 24.1051 77.6412 24.8464 77.129C25.5869 76.6174 25.6442 76.3803 25.6442 76.3803C25.8719 75.79 25.0168 75.8687 25.0168 75.8687C23.4212 76.1437 21.0278 77.6406 21.0278 77.6406C15.7283 81.0265 14.7584 85.2794 14.5881 87.5628C14.4177 89.8463 15.6709 92.9182 20.5716 92.9182C21.6595 92.9182 22.6953 92.7413 23.6652 92.4515C24.7874 93.8999 26.5935 95.0065 29.349 95.0449C35.0474 95.1236 40.9753 90.9487 41.488 84.255C41.9999 77.5625 34.7615 74.2151 34.7615 74.2151ZM26.6124 84.0196C26.9539 82.9178 27.4675 82.2477 27.9803 82.2087C28.493 82.1697 28.7216 82.6812 28.7216 82.6812C29.7 84.8943 27.5197 88.0419 25.8103 89.673C25.527 86.9945 26.3017 85.0203 26.6124 84.0196Z" fill="#9C9C9C"/>
<path fill-rule="evenodd" clip-rule="evenodd" d="M47.8987 83.5477C47.8987 83.5477 47.8131 83.2727 47.4433 83.252C47.0726 83.2325 46.4452 83.1343 46.3031 83.3697C46.161 83.6062 46.2748 83.6654 46.2748 83.6654C46.2748 83.6654 43.5022 85.9696 41.518 88.8888C40.9804 88.8805 40.4335 88.8728 39.8916 88.8634V89.0402C39.8916 89.0402 40.1518 89.5299 40.8221 90.0013C40.5276 90.5188 40.2682 91.0481 40.0619 91.5804C40.0619 91.5804 39.5774 92.9193 40.3752 93.6078C40.3752 93.6078 40.8306 93.9626 42.0282 93.9821C42.0282 93.9821 42.4844 94.0815 42.6265 93.5291C42.6873 93.2925 43.2095 92.157 43.8891 90.8642C46.4332 90.9647 47.3568 90.9103 47.3568 90.9103C47.3568 90.9103 47.1009 92.4858 47.8704 92.9187C48.64 93.3517 49.2666 93.6072 49.3522 93.6267C49.4378 93.6474 49.8358 93.8437 49.8932 93.4108C49.9505 92.9779 50.4059 86.5598 47.8987 83.5477ZM44.9703 88.9349C45.6063 87.8793 46.2509 86.9643 46.7311 86.6189C46.7311 86.6189 47.1017 87.3269 47.2438 88.9616C47.243 88.9616 46.3253 88.9521 44.9703 88.9349Z" fill="#9C9C9C"/>
<path fill-rule="evenodd" clip-rule="evenodd" d="M50.7481 88.3518C50.7481 88.3518 49.1242 92.8797 52.7426 93.3132C56.3618 93.7462 58.1286 90.8908 58.1577 90.4182C58.1859 89.9457 58.0147 89.4536 57.1313 89.7493C56.2479 90.0439 54.5385 90.6548 53.4839 90.7725C53.4839 90.7725 53.0858 90.8512 53.1132 90.4963C53.1415 90.1426 53.4548 87.7598 54.7944 85.2208C54.7944 85.2208 55.2498 84.3154 54.595 83.763C54.595 83.763 54.1387 83.2319 53.483 83.802C52.8273 84.3739 51.7171 85.7608 50.9475 87.7894L50.7481 88.3518Z" fill="#9C9C9C"/>
<path fill-rule="evenodd" clip-rule="evenodd" d="M64.796 83.9417C64.796 83.9417 62.9496 83.6011 60.9346 85.6492C57.0843 85.0879 57.1553 84.3658 57.074 84.1777C56.9884 83.9813 57.1878 83.9618 56.9884 83.8033C56.7889 83.646 56.4183 83.9222 56.4183 83.9222C55.7908 84.3947 56.0476 85.3197 56.0476 85.3197C56.4825 86.4529 58.465 87.0745 59.6394 87.3495C58.2527 89.7501 58.174 92.5363 58.2989 93.7073C58.4419 95.0462 60.379 96.1871 61.3198 96.109C62.2597 96.0304 62.0037 94.7505 62.0037 94.7505C61.6639 91.4965 62.0799 89.413 62.6089 87.8936C66.9471 88.3904 67.2322 86.4322 67.2322 86.4322C67.7312 84.05 64.796 83.9417 64.796 83.9417ZM65.7076 85.2801C65.5818 85.7166 64.493 85.8254 63.5471 85.8366C64.023 85.1423 64.4767 85.0317 65.0246 84.9448C65.765 84.8277 65.7076 85.2801 65.7076 85.2801Z" fill="#9C9C9C"/>
<path fill-rule="evenodd" clip-rule="evenodd" d="M87.1123 78.1333C87.1123 78.1333 75.6709 73.7597 66.0161 75.8599C66.0161 75.8599 65.422 75.848 64.8536 76.3845C64.2852 76.9215 63.7751 77.2875 64.055 77.7045C64.3349 78.1203 65.8132 78.3214 67.1126 78.0741C67.1126 78.0741 67.7187 77.8121 66.9834 77.6258C66.2472 77.4401 65.8526 77.397 65.8526 77.397C65.8526 77.397 65.4597 77.3207 65.8611 77.1923C66.2635 77.0628 70.6625 76.1922 78.3306 77.7169C85.9986 79.2404 96.2681 83.7618 95.7828 88.2389C95.2965 92.716 85.1349 92.7171 85.1349 92.7171C85.1349 92.7171 83.0437 92.7414 80.2566 92.3233C80.2557 90.8388 80.2566 88.3276 80.3601 86.7958C84.2019 86.8384 87.8279 87.169 88.5992 88.1289C88.5992 88.1289 88.9133 88.34 87.8801 88.731C87.096 89.0267 86.4258 89.1467 87.1097 89.3999C87.1097 89.3999 88.1061 89.8316 88.7079 89.7062C89.3062 89.5814 90.9583 89.2035 91.1569 88.0094C91.3555 86.8153 89.2763 85.6077 86.2931 85.2061C83.9545 84.8909 82.703 84.7247 80.5724 84.7489C80.6169 83.4135 80.4149 81.7516 80.0117 81.3471C79.4887 80.8225 78.9229 80.1264 78.4452 80.8698C78.0155 81.5411 77.6346 82.9652 77.4583 84.892C74.1729 85.1878 70.5204 86.0761 69.4144 86.991C68.1818 88.01 69.3468 88.8682 69.4307 88.9604C69.518 89.0562 71.7967 91.4799 76.9044 93.1926C76.9601 93.8337 77.1048 94.5369 77.4574 94.9267C78.215 95.7641 79.6762 95.2106 79.8799 95.0781C80.028 94.9811 80.1573 94.7191 80.2189 94.0792C82.4993 94.5275 86.6389 95.0497 91.1449 94.2087C97.9399 92.9413 99.0013 90.0688 99.2718 88.3613C99.5406 86.6539 97.8637 82.1396 87.1123 78.1333ZM70.0949 88.4767C70.0949 88.4767 69.375 87.9154 70.4784 87.5942C71.4842 87.3033 73.6105 86.9206 77.3547 86.8189C77.3179 87.6102 77.2118 89.278 76.9147 91.6437C74.5325 91.0198 72.0509 90.0356 70.0949 88.4767ZM107.771 78.3947C107.753 78.3935 107.734 78.3935 107.716 78.3935C107.341 77.4662 104.857 77.5478 104.857 77.5478C99.818 77.7382 98.058 80.1169 97.8072 80.7462C97.5864 81.3009 97.6463 82.1289 98.605 82.7351C98.2909 83.255 98.5049 83.4987 98.5785 83.6371C98.6701 83.8103 99.0938 84.3497 99.5903 84.3255C99.9447 84.3083 100.217 84.1486 100.647 83.6223C101.633 83.9351 102.829 84.0853 104.549 83.7228C107.299 83.145 109.976 81.3666 110.063 79.8957C110.149 78.4249 107.771 78.3947 107.771 78.3947ZM100.004 80.3789C100.723 79.6385 101.737 79.3209 102.982 79.2617C101.384 79.9572 100.26 80.91 99.6433 81.5257C99.4302 81.2802 99.4576 80.9425 100.004 80.3789ZM108.076 80.5753C106.596 82.5275 103.448 82.5494 101.684 82.2987C102.861 81.1306 105.391 79.7076 106.979 79.5598C108.795 79.3912 108.076 80.5753 108.076 80.5753ZM103.289 90.3763C103.289 90.3763 103.454 93.1879 102.873 93.4848C102.292 93.7817 101.009 93.6191 100.677 93.2861C100.342 92.9543 100.245 91.7531 100.399 89.8564C100.553 87.9586 100.703 85.5811 101.337 85.2173C101.973 84.8536 102.33 85.2025 102.591 85.4645C102.854 85.7265 103.138 86.0234 103.186 86.6243C103.237 87.2252 103.288 90.1025 103.288 90.1025L103.289 90.3763ZM114.551 86.9041C112.17 86.9585 107.676 87.1258 107.067 87.4387C107.067 87.4387 106.736 87.6711 107.203 87.7492C107.671 87.8267 109.572 88.0195 110.486 88.0715C111.401 88.1247 114.745 88.1916 115.889 89.2254C115.889 89.2254 116.561 89.7346 116.491 90.8471C116.419 91.9583 116.13 92.3635 115.47 92.7438C114.81 93.1252 109.04 94.7723 105.464 91.995C105.464 91.995 103.834 90.6608 106.129 89.7139C106.129 89.7139 107.818 89.045 111.944 89.9333C111.944 89.9333 113.193 90.2834 113.131 90.6081C113.068 90.9316 112.061 91.2711 110.676 91.2274C109.29 91.1824 108.271 90.6649 108.271 90.6649C108.271 90.6649 107.001 90.2107 106.514 90.5957C106.026 90.9789 106.166 91.1871 106.603 91.4367C107.038 91.6851 108.723 91.7011 108.723 91.7011C108.723 91.7011 113.434 91.6419 114.289 90.785C114.289 90.785 114.902 90.3183 114.026 89.9582C113.149 89.5992 110.607 89.3253 109.644 89.2709C108.678 89.2177 105.173 89.1822 104.68 88.5376C104.68 88.5376 104.215 88.1011 104.787 86.8455C105.362 85.5899 109.544 85.1428 111.356 85.076C111.356 85.076 116.24 85.0553 117.102 85.7573C117.102 85.7573 117.221 85.8797 117.062 86.1328C116.903 86.3872 116.751 86.7349 115.894 86.8118L114.551 86.9041ZM123.265 88.9374C123.265 88.9374 124.677 90.6702 124.801 90.6897C124.801 90.6897 124.922 90.7684 125.061 90.7199C125.199 90.6714 125.148 90.1309 125.148 90.1309C125.148 90.1309 124.927 88.2767 123.7 85.0843C123.7 85.0843 123.518 84.704 123.683 84.3314C123.847 83.9588 124.36 84.1398 124.36 84.1398C124.36 84.1398 126.41 84.8997 127.326 87.2642C128.243 89.6287 127.485 91.7366 127.063 92.3617C126.64 92.9868 125.57 93.651 124.326 93.1968C123.081 92.7437 121.168 89.8807 121.168 89.8807C121.168 89.8807 120.446 88.8043 120.295 88.8179C120.295 88.8179 120.157 88.618 120.009 89.763C119.862 90.908 119.866 93.1601 119.206 93.5055C118.547 93.8521 117.785 93.6995 117.431 93.2814C117.077 92.8632 116.945 91.885 117.24 90.1788C117.535 88.4713 118.156 86.6693 118.922 86.1198C119.689 85.5698 120.266 85.9838 120.508 86.1346C120.508 86.1346 121.424 86.7686 123.007 88.6156L123.265 88.9374ZM133.341 87.7096L132.837 88.7795C132.837 88.7795 134.748 88.6972 136.158 88.8108C136.158 88.8108 136.628 88.8037 136.638 89.1804C136.647 89.5584 136.58 89.9511 136.58 89.9511C136.58 89.9511 136.547 90.1811 136.036 90.2385C135.524 90.2976 131.88 90.3183 131.88 90.3183L131.23 91.6756C131.23 91.6756 131.006 91.9873 131.479 91.911C131.954 91.8347 135.812 91.4119 136.267 91.5024C136.796 91.6076 137.355 92.1316 137.19 92.5314C136.953 93.1045 133.163 94.599 130.787 94.5346C130.787 94.5346 129.458 94.6026 128.591 93.4197C127.723 92.2381 128.414 91.4562 128.631 91.015C128.847 90.575 129.057 90.2876 129.057 90.2876C129.057 90.2876 128.504 89.3094 128.964 89.0006C128.964 89.0006 129.23 88.8433 129.987 88.8167L130.96 87.5079C130.96 87.5079 129.871 87.4872 129.283 86.9786C128.698 86.4694 128.659 86.2115 129.148 86.0843C129.637 85.9572 134.02 85.4551 137.124 85.5947C137.124 85.5947 138.181 85.5302 139.056 86.8142C139.056 86.8142 139.443 87.3269 138.708 87.4494C137.971 87.5718 135.386 87.751 133.579 87.706L133.341 87.7096ZM149.286 86.6261C148.074 86.0021 147.007 86.58 147.007 86.58C144.875 87.3399 142.195 89.6098 140.738 90.9476C140.525 89.983 141.511 88.7818 141.511 88.7818L141.747 88.5044C142.919 87.14 143.099 86.9981 143.336 86.6438C143.573 86.2896 143.706 85.5036 143.461 85.4308C143.217 85.3569 142.809 85.6065 142.809 85.6065C139.303 87.6416 138.735 89.9765 138.735 89.9765C138.372 91.1883 138.664 92.0589 139.151 92.6728C137.154 95.5329 136.405 98.2889 136.405 99.3576C136.407 100.513 137.688 101.266 138.375 101.468C139.059 101.671 139.184 101.082 139.184 101.082C139.879 98.1517 140.934 96.1923 142.17 94.2383C145.666 94.8953 148.572 92.3552 149.481 91.3924C150.505 90.3053 150.505 88.8268 150.505 88.8268C150.513 88.689 150.499 87.2494 149.286 86.6261ZM146.784 91.319C146.362 91.5733 145.015 92.0707 143.614 92.1446C145.024 90.3934 146.712 89.1053 147.65 88.4252C148.775 87.6084 148.89 88.3814 148.89 88.3814C149.077 89.8405 147.47 90.9044 146.784 91.319ZM17.7272 107.839C17.7272 108.457 18.0841 108.61 18.9187 108.61H19.2611V108.807H15.0444V108.61H15.2978C16.1769 108.61 16.4902 108.447 16.4902 107.757V103.423C16.4902 102.784 16.2368 102.599 15.3731 102.599H15.0453V102.404C15.4031 102.404 16.3113 102.363 16.9225 102.342C17.5328 102.322 17.8316 102.311 18.7997 102.311C21.5561 102.311 22.7921 103.094 22.7921 104.144C22.7921 104.916 22.0329 105.565 20.8113 105.811C21.3635 106.11 21.8094 106.397 22.5096 106.882L23.6867 107.695C24.5658 108.302 25.474 108.684 26.6219 108.735V108.92C24.0145 109.003 23.3443 108.611 22.0183 107.695L21.0348 107.016C20.3791 106.563 19.8577 106.265 19.5008 106.1C19.1276 106.11 18.8896 106.121 18.4873 106.121C18.1594 106.121 17.966 106.11 17.7272 106.1V107.839ZM17.7272 105.903C18.0841 105.934 18.3084 105.923 18.6508 105.923C20.3046 105.923 21.3917 105.44 21.3917 104.204C21.3917 103.247 20.766 102.506 18.4719 102.506C18.1885 102.506 17.9951 102.506 17.7272 102.527V105.903ZM43.3097 106.491H43.0264C42.9074 105.76 42.624 105.678 42.0129 105.678H39.4953V107.87C39.4953 108.344 39.7487 108.436 40.3 108.436H42.5941C43.6375 108.436 43.95 108.157 44.3223 107.273H44.5903L44.3515 108.807H36.4403V108.61H36.8571C38.0495 108.61 38.2584 108.384 38.2584 107.766V103.422C38.2584 102.846 38.0641 102.599 37.066 102.599H36.739V102.403H43.8901L44.0091 103.835H43.742C43.5477 102.959 43.1762 102.774 42.6394 102.774H39.4953V105.306H42.1627C42.6985 105.306 42.9519 105.13 43.0264 104.533H43.3097V106.491ZM64.5446 104.091C64.0532 103.134 62.7718 102.506 61.1471 102.506C58.6587 102.506 57.1093 103.751 57.1093 105.481C57.1093 107.344 59.0465 108.713 61.3106 108.713C62.4876 108.713 63.9326 108.435 64.9469 107.19H65.2303C65.0359 107.653 64.6336 108.291 64.2767 108.693C63.3231 108.601 62.6674 108.971 60.9091 108.971C57.8849 108.971 55.7089 107.591 55.7089 105.686C55.7089 103.69 57.944 102.249 61.0581 102.249C62.9353 102.249 63.74 102.66 64.2022 102.66C64.3657 102.66 64.4402 102.63 64.4701 102.599H64.6935L64.8271 104.091L64.5446 104.091ZM81.6493 108.971C78.7286 108.971 76.2701 107.674 76.2701 105.749C76.2701 103.701 78.5497 102.249 81.7229 102.249C84.5392 102.249 86.9531 103.577 86.9531 105.43C86.9531 107.509 84.5392 108.971 81.6493 108.971ZM81.336 102.506C78.714 102.506 77.6714 104.194 77.6714 105.43C77.6714 107.354 79.5632 108.713 81.9617 108.713C84.3902 108.713 85.5527 107.231 85.5527 105.769C85.5518 103.855 83.7953 102.506 81.336 102.506ZM100.397 107.839C100.397 108.457 100.754 108.61 101.589 108.61H101.93V108.807H97.7148V108.61H97.9673C98.8464 108.61 99.1597 108.447 99.1597 107.757V103.423C99.1597 102.784 98.9072 102.599 98.0426 102.599H97.7148V102.404C98.0709 102.404 98.9808 102.363 99.5903 102.342C100.202 102.322 100.499 102.311 101.467 102.311C104.225 102.311 105.46 103.094 105.46 104.144C105.46 104.916 104.701 105.565 103.479 105.811C104.031 106.11 104.477 106.397 105.177 106.882L106.354 107.695C107.234 108.302 108.143 108.684 109.291 108.735V108.92C106.682 109.003 106.012 108.611 104.686 107.695L103.703 107.016C103.048 106.563 102.526 106.265 102.169 106.1C101.795 106.11 101.558 106.121 101.155 106.121C100.827 106.121 100.634 106.11 100.396 106.1V107.839H100.397ZM100.397 105.903C100.754 105.934 100.977 105.923 101.319 105.923C102.973 105.923 104.061 105.44 104.061 104.204C104.061 103.247 103.435 102.506 101.14 102.506C100.858 102.506 100.664 102.506 100.397 102.527V105.903ZM120.718 103.433C120.718 102.764 120.466 102.599 119.587 102.599H119.289V102.404C119.839 102.383 120.569 102.363 121.388 102.342C122.208 102.322 123.118 102.311 123.891 102.311C127.826 102.311 129.569 103.691 129.569 105.389C129.569 106.944 127.826 108.807 124.057 108.807H119.29V108.61H119.542C120.348 108.61 120.719 108.457 120.719 107.859V103.433H120.718ZM121.956 108.044C121.956 108.466 122.001 108.61 123.178 108.61C125.175 108.61 126.009 108.415 126.934 107.776C127.484 107.407 128.169 106.613 128.169 105.554C128.169 104.792 127.856 103.947 126.976 103.341C126.291 102.867 125.234 102.507 123.148 102.507C122.537 102.507 122.134 102.538 121.955 102.547L121.956 108.044ZM141.011 107.241C141.326 108.157 142.367 108.693 143.529 108.693C144.527 108.693 145.585 108.291 145.585 107.478C145.585 105.996 140.802 105.543 140.802 103.741C140.802 102.888 141.935 102.249 143.455 102.249C144.706 102.249 144.96 102.507 145.482 102.507C145.601 102.507 145.66 102.486 145.749 102.404H145.987L146.24 103.712H145.987C145.57 102.97 144.616 102.496 143.588 102.496C142.605 102.496 141.92 102.888 141.92 103.464C141.92 104.926 146.701 105.316 146.701 107.211C146.701 108.22 145.405 108.971 143.662 108.971C142.842 108.971 141.801 108.694 141.592 108.694C141.533 108.694 141.474 108.704 141.422 108.724C141.37 108.744 141.326 108.772 141.294 108.807H141.04L140.727 107.242L141.011 107.241Z" fill="#9C9C9C"/>
<path fill-rule="evenodd" clip-rule="evenodd" d="M14.4922 99.2885V99.7735H148.645V99.2885H14.4922ZM126.871 37.0444C126.871 19.3632 106.125 5.02954 80.5329 5.02954C54.9418 5.02954 34.1966 19.3626 34.1966 37.0444C34.1966 49.0839 43.8266 59.5604 58.0448 65.0263C56.8387 63.7926 56.5383 62.6156 56.391 61.874C56.0041 59.9335 57.7384 58.0723 61.7291 58.0723C67.2186 58.0723 70.8207 59.4421 73.0908 60.3919C73.0908 60.3919 72.2117 59.5397 71.2093 59.0032C71.2093 59.0032 61.2489 54.2293 61.2489 47.338C61.2489 47.338 60.9972 47.4705 60.4511 47.7976C59.7277 48.2299 59.7474 48.0572 59.6986 47.574C59.6986 47.574 59.6815 43.5464 64.7097 38.9292C64.7097 38.9292 60.6291 39.0392 58.5747 36.1353C58.5747 36.1353 57.5347 37.5329 57.3729 37.828C57.2111 38.1231 56.9706 37.9581 56.8995 37.8948C56.8293 37.8321 54.9016 36.8332 53.6895 35.2458C53.6895 35.2458 53.2829 35.0229 53.716 33.9418C54.1492 32.8601 54.1543 32.2296 55.66 30.699C55.66 30.699 53.5534 30.5571 53.93 29.1359C53.9626 29.0129 54.085 28.8993 54.1748 28.7822C53.5951 28.6767 53.0379 28.519 52.5176 28.3132C52.5176 28.3132 48.8214 26.7873 49.6423 24.1827C50.2201 22.3529 52.0203 22.1281 52.0203 22.1281C52.0203 22.1281 51.4793 19.4987 55.0762 18.9575C55.0762 18.9575 54.8956 16.3316 58.0466 16.4735C59.6284 16.5451 60.8988 17.2063 61.6769 18.3608L77.6448 9.58703C77.6448 9.58703 79.2121 9.48472 79.1068 10.6167L65.2849 19.3928C65.2849 19.3928 65.8936 19.0758 67.2161 19.2745C69.0856 19.556 69.4408 20.9139 69.1104 21.5444C68.7826 22.1713 68.3451 22.4209 66.9969 22.5563C65.6487 22.6917 64.9562 23.6475 64.5025 24.7741C63.8785 26.3254 62.7794 27.1357 61.8438 27.5609C62.2127 28.2943 61.1581 28.8544 61.1581 28.8544C63.7236 33.0144 72.7322 35.7787 72.7322 35.7787C67.1202 31.524 70.2412 28.8987 70.2412 28.8987C70.0041 28.7556 69.3544 28.3451 69.238 27.2025C69.1207 26.0593 70.1933 24.9699 72.0696 24.8782C73.9468 24.7872 74.5854 25.7275 74.6736 26.5851C74.76 27.442 74.2096 27.9992 74.2096 27.9992C76.086 28.2168 76.5294 29.7415 76.5294 29.7415C78.9887 23.1288 90.0277 24.492 90.8118 24.9835C90.8118 24.9835 89.5895 24.2703 89.414 22.5563C89.0947 19.4141 92.4331 17.9923 95.5515 17.8403C98.67 17.6889 103.411 19.6891 103.729 22.81C104.09 26.3485 100.265 27.3953 98.5775 27.4775C96.892 27.5597 96.0112 27.3811 96.0112 27.3811C98.2317 29.0844 98.3935 31.307 98.3935 31.307C98.7932 30.8457 99.9754 29.5735 103.314 29.4115C106.305 29.266 109.416 30.3075 109.776 33.846C109.974 35.8018 107.962 39.3953 102.428 39.6644C97.879 39.8855 96.7046 36.9982 96.7046 36.9982C92.7824 41.5468 84.0905 40.6579 84.0905 40.6579C84.0905 40.6579 84.4654 42.6978 92.8329 44.9978C92.8329 44.9978 97.4493 45.3456 98.0913 42.8793C98.7333 40.4137 101.124 40.9832 101.124 40.9832C101.124 40.9832 103.547 41.3801 103.727 43.1543C103.727 43.1543 103.808 44.4194 102.413 44.8641C102.413 44.8641 108.524 47.0128 109.867 49.3578C110.806 50.9984 110.063 51.5519 110.063 51.5519C110.063 51.5519 111.359 53.2907 110.715 54.4292C110.18 55.3761 108.762 55.3654 108.15 55.1631C108.15 55.1631 106.94 57.1994 103.497 55.3045C100.053 53.4096 100.05 53.9223 98.9345 53.6692C97.8208 53.4161 94.8616 53.7011 93.2771 50.954L90.3214 51.7057C90.3214 51.7057 85.7974 51.0622 83.0025 49.9586L84.896 48.5919C84.896 48.5919 81.805 49.2235 78.2114 44.3673C74.2447 52.4485 88.6778 54.8574 88.6778 54.8574C84.2694 56.7133 79.8918 55.2181 79.8918 55.2181C80.5158 56.6452 84.0665 60.0702 84.0665 60.0702C84.8241 59.9673 89.224 57.6329 94.3805 57.6329C96.1978 57.6329 100.462 58.4704 100.699 61.7256C100.848 63.763 99.2538 65.8241 94.6536 67.5321C113.335 63.407 126.871 51.3219 126.871 37.0444Z" fill="#9C9C9C"/>
</g>
<defs>
<clipPath id="clip0_158_453">
<rect width="165" height="114" fill="white"/>
</clipPath>
</defs>
</svg>
