<svg width="140" height="39" viewBox="0 0 97 88" fill="none" xmlns="http://www.w3.org/2000/svg">
<g clip-path="url(#clip0_158_356)">
<path d="M47.8312 21.291C54.0373 21.291 59.4817 19.3932 64.1642 15.5974C68.8467 11.8016 71.1881 7.38783 71.1881 2.35599C71.1881 1.80335 71.1323 1.01802 71.0208 0C70.2032 0.0872589 69.59 0.159975 69.1812 0.218147C63.4582 0.858046 58.4226 3.05406 54.0745 6.80611C49.7265 10.5582 47.5525 14.5722 47.5525 18.8478C47.5525 19.3422 47.6453 20.1567 47.8312 21.291ZM70.0731 88C74.4955 88 79.3824 85.6296 84.734 80.8885C90.0855 76.1474 94.1733 70.5774 96.9977 64.1785C86.4806 59.9319 81.222 53.8384 81.222 45.8978C81.222 39.2662 85.4772 33.5945 93.9875 28.8825C88.0786 23.0943 80.2744 20.2003 70.5749 20.2003C66.4869 20.2003 62.7521 20.6802 59.3703 21.64L57.252 22.2508L54.409 23.1234C52.5508 23.6761 50.8599 23.9525 49.3362 23.9525C48.147 23.9525 46.5861 23.6324 44.6537 22.9925L42.4796 22.2945L40.4172 21.64C37.4069 20.6511 34.1738 20.1566 30.7176 20.1566C21.4641 20.1566 14.0315 22.5999 8.41986 27.4864C2.80821 32.3728 0.00244141 38.8154 0.00244141 46.8141C0.00244141 58.0704 4.49912 68.4687 13.4926 78.0089C19.736 84.6696 25.4405 88 30.6061 88C32.7988 88 34.9728 87.6655 37.1282 86.9965L39.8597 86.1239L42.0338 85.5131C45.0811 84.6696 47.8869 84.2479 50.4511 84.2479C53.164 84.2479 56.2857 84.7861 59.8162 85.8622L61.5443 86.3857C65.149 87.4619 67.9921 88 70.0731 88Z" fill="#9C9C9C"/>
</g>
<defs>
<clipPath id="clip0_158_356">
<rect width="97" height="88" fill="white"/>
</clipPath>
</defs>
</svg>
