<svg width="130" height="56" viewBox="0 0 130 56" fill="none" xmlns="http://www.w3.org/2000/svg">
<g clip-path="url(#clip0_262_637)">
<path d="M13.2034 39.0698C13.2247 44.1489 13.1236 48.5334 12.086 52.093C10.9154 55.9024 8.25757 55.9783 6.65863 56C2.71582 55.9783 0.0393944 55.2295 0.111227 35.1628C0.0393944 23.0403 0.970557 17.4186 4.10192 16.2791C5.16877 15.845 6.26488 15.6822 7.45677 15.6279C10.5669 15.6822 13.1448 15.921 13.2034 31.907H9.69156C9.55322 30.1597 9.49203 28.7489 9.21268 28C8.74178 26.4372 7.82924 26.3504 7.13752 26.0465H6.65863C5.82058 26.3504 4.72447 26.4372 4.10458 28.6512C3.60974 29.9969 3.58845 33.2961 3.6257 35.814C3.58845 45.2233 4.80695 45.3101 6.81826 45.5814C7.42485 45.2992 8.96526 45.1365 9.37231 42.9768C9.63569 42.076 9.65432 40.752 9.69156 39.0698H13.2034ZM14.64 27.3489C14.6879 17.6682 16.8376 16.1706 18.7904 16.2791C20.0221 15.7582 21.2619 15.6822 22.4618 15.6279C24.8722 15.6822 27.0431 17.3318 27.091 29.3023V55.3489H23.5792V48.8372C22.9034 55.8915 20.8362 55.9783 19.2692 56H18.6307C16.1485 55.9783 14.241 55.2295 14.3208 42.9768C14.241 34.5442 15.4169 30.9085 17.3537 30.6047C18.096 30.3225 18.8276 30.3225 19.5885 30.6047H20.5463C21.6849 30.3225 22.8023 30.4961 23.5792 34.5117V29.9535C23.5127 25.4388 23.0045 24.7008 21.9829 24.093C21.3982 24.245 20.8117 24.245 20.227 24.093H19.1096C18.5828 24.3644 18.1572 24.8636 18.1518 27.3489H14.64Z" fill="#DEDEDE"/>
<path d="M19.5884 46.8837H20.0673C20.9372 46.8837 21.77 46.7969 22.6213 46.2325C23.1853 45.8853 23.4727 44.8108 23.5791 42.3256C23.5126 38.7659 22.6213 38.3535 21.9828 38.4186C21.2919 38.2286 20.5986 38.2286 19.9076 38.4186C19.2319 38.1907 17.7101 38.1907 17.6729 42.3256C17.7101 46.4604 18.7051 46.8729 19.5884 46.8837Z" fill="white"/>
<path d="M31.5606 16.2791V24.7442C32.1672 16.7566 33.8087 15.6822 35.5513 15.6279C39.1829 15.6822 40.8882 18.9054 40.8191 35.1628V55.3489H37.3072V35.1628C37.3605 27.6853 36.6687 26.7737 34.9128 26.6977H34.5936C32.7126 26.7628 31.5154 27.5985 31.5606 37.1163V55.3489H28.0488V16.2791H31.5606ZM45.7675 16.2791V24.7442C46.3422 16.7566 47.9837 15.6822 49.7582 15.6279C53.3605 15.6822 55.0659 18.9054 55.0259 35.1628V55.3489H51.5141V35.1628C51.5354 27.6853 50.8437 26.7737 49.1197 26.6977H48.6408C46.8902 26.7628 45.693 27.5985 45.7675 37.1163V55.3489H42.2584V16.2791H45.7675ZM57.8992 17.5814C59.2135 15.7582 61.1796 15.7582 62.5285 15.6279C63.7576 15.7582 64.9947 15.845 66.1999 16.2791C68.8284 17.5814 69.6 22.6279 69.5521 33.2093V34.5117C69.6026 48.6202 69.5601 54.0791 65.3991 55.3489C64.1407 55.9892 62.845 55.9892 61.5707 56.0109C57.9578 55.9892 56.0289 54.6651 55.981 37.7783V35.1628C56.0289 28.3365 56.0715 20.5659 57.8992 17.5814Z" fill="#DEDEDE"/>
<path d="M60.1341 43.628C60.5944 45.2993 61.8714 45.3862 62.5285 45.5815H63.0074C63.7364 45.3862 65.0161 45.2993 65.5615 43.628C66.0111 42.3257 66.051 39.5148 66.0403 37.1164V34.5117C66.051 32.0699 66.0111 29.5846 65.5615 28.0001C64.8724 26.3505 63.5342 26.3505 62.6882 26.0466C61.9938 26.3505 60.6529 26.5133 60.1341 28.6513C59.5807 30.1598 59.5807 33.6327 59.6552 35.8141C59.5807 38.2668 59.6393 42.2497 60.1341 43.628Z" fill="white"/>
<path d="M74.0216 16.2791V24.7442C74.6069 16.7566 76.251 15.6822 78.0123 15.6279C81.6252 15.6822 83.3305 18.9054 83.28 35.1628V55.3488H79.7682V35.1628C79.8001 27.6853 79.1111 26.7736 77.3738 26.6977H76.8949C75.1549 26.7628 73.9577 27.5985 74.0216 37.1163V55.3488H70.5098V16.2791H74.0216ZM97.9658 55.3488H94.454V46.8837C93.9724 54.9907 92.0223 55.9783 90.3036 56C88.7579 55.9783 86.3449 55.8155 85.1955 51.4419C84.3575 48.1209 84.2936 42.5752 84.2378 37.7674V35.1628C84.2936 29.8341 84.3362 22.8775 85.3552 19.5349C86.6481 16.0078 88.5344 15.6822 89.9844 15.6279C91.7829 15.6822 93.3658 16.0837 94.454 22.7907V0H97.9658V55.3488Z" fill="#DEDEDE"/>
<path d="M90.4632 45.5815C90.8334 45.3419 91.2105 45.3419 91.5806 45.5815C93.4642 45.2993 94.4593 44.8978 94.4539 36.4652C94.4566 27.349 93.8926 26.3505 91.5806 26.0466H90.9421C90.136 26.3505 89.0399 26.4373 88.5477 28.0001C87.9677 29.6606 87.9278 32.8079 87.9092 35.1629C87.9251 43.6497 88.3721 45.3862 90.4632 45.5815Z" fill="white"/>
<path d="M99.0832 27.3489C99.1204 17.6682 101.27 16.1706 103.236 16.2791C104.457 15.7582 105.694 15.6822 106.908 15.6279C109.305 15.6822 111.476 17.3318 111.537 29.3023V55.3489H108.025V48.8372C107.339 55.8915 105.269 55.9783 103.715 56H103.077C100.584 55.9783 98.6761 55.2295 98.6069 42.9768C98.6761 34.5442 99.852 30.9085 101.799 30.6047C102.528 30.3225 103.26 30.3225 104.034 30.6047H104.992C106.12 30.3225 107.237 30.4961 108.025 34.5117V29.9535C107.948 25.4388 107.44 24.7008 106.269 24.093C105.796 24.2884 105.247 24.2016 104.673 24.093H103.555C103.015 24.3644 102.592 24.8636 102.598 27.3489H99.0832Z" fill="#DEDEDE"/>
<path d="M104.032 46.8837H104.511C105.367 46.8837 106.2 46.7969 107.065 46.2325C107.621 45.8853 107.903 44.8108 108.022 42.3256C107.945 38.7659 107.051 38.3535 106.426 38.4186C105.735 38.2286 105.042 38.2286 104.351 38.4186C103.662 38.1907 102.143 38.1907 102.116 42.3256C102.143 46.4604 103.135 46.8729 104.032 46.8837Z" fill="white"/>
<path d="M112.651 0H116.161V55.3488H112.651V0ZM129.891 42.3256C129.801 55.4791 127.146 55.9783 124.626 56C123.453 55.9783 122.338 55.8155 121.271 55.338C117.751 54.4806 117.001 47.8713 116.961 34.5008C116.999 22.1287 118.015 16.4961 121.112 15.6171C122.293 15.6713 123.389 15.6713 124.464 15.6171C125.948 15.6713 127.672 15.9101 128.774 19.524C130.085 24.1147 129.761 32.0589 129.891 38.4078H120.635C120.574 44.3876 121 46.6992 122.551 46.8729C123.15 46.8729 123.799 46.9488 124.466 46.8729C125.137 46.9488 125.951 46.6992 126.222 45.5705C126.355 44.4636 126.355 43.3891 126.382 42.3147H129.891V42.3256Z" fill="#DEDEDE"/>
<path d="M124.304 24.093H122.868C121.889 24.2884 120.55 24.2884 120.473 29.9535C120.55 30.3225 120.55 30.7457 120.635 31.2558H126.382C126.393 25.0264 125.581 24.2884 124.304 24.093Z" fill="white"/>
<path d="M98.7642 7.16275C98.8227 3.3643 99.5942 0.75965 100.52 0.651123C101.414 0.75965 102.186 3.3643 102.119 7.16275C102.186 10.462 101.414 13.0666 100.52 13.0232C99.5942 13.0666 98.8227 10.462 98.7642 7.16275Z" fill="#DEDEDE"/>
<path d="M100.52 11.721C101.259 12.0357 101.853 9.85431 101.797 7.16284C101.853 3.98299 101.259 1.77989 100.52 1.95353C100.341 1.9036 100.162 1.99941 99.9925 2.23537C99.8231 2.47134 99.667 2.84271 99.5332 3.32777C99.3994 3.81283 99.2907 4.40183 99.2134 5.06033C99.1361 5.71883 99.0918 6.43361 99.083 7.16284C99.1548 9.85431 99.7481 12.0357 100.52 11.721Z" fill="white"/>
<path d="M100.201 10.4186H99.8813V3.25586H100.52C101.047 3.36439 101.273 3.98299 101.318 5.20935C101.273 6.65276 101.057 7.20625 100.839 7.16284L101.318 10.4186H100.999L100.52 7.16284H100.201V10.4186Z" fill="#DEDEDE"/>
<path d="M100.52 6.51162C100.751 6.47906 100.97 6.41394 100.999 5.20929C100.97 4.43875 100.754 4.27596 100.52 4.55813H100.201V6.51162H100.52Z" fill="white"/>
</g>
<defs>
<clipPath id="clip0_262_637">
<rect width="130" height="56" fill="white"/>
</clipPath>
</defs>
</svg>
