<svg width="130" height="56" viewBox="0 0 130 56" fill="none" xmlns="http://www.w3.org/2000/svg">
<g clip-path="url(#clip0_262_652)">
<path fill-rule="evenodd" clip-rule="evenodd" d="M0 0H130V56H0V0Z" fill="white"/>
<path fill-rule="evenodd" clip-rule="evenodd" d="M98.522 43.1369V21.3869H83.8518V43.1369H98.522ZM117.968 38.2872V21.3869H103.298V38.2872H117.968ZM91.1876 19.7678C95.5174 19.7678 99.0264 18.256 99.0264 16.3905C99.0264 14.5254 95.5174 13.0132 91.1876 13.0132C86.8577 13.0132 83.3473 14.5251 83.3473 16.3905C83.3473 18.2557 86.8577 19.7678 91.1876 19.7678ZM110.633 19.6208C114.964 19.6208 118.473 18.1087 118.473 16.2435C118.473 14.3784 114.964 12.8662 110.633 12.8662C106.303 12.8662 102.792 14.3781 102.792 16.2435C102.792 18.109 106.303 19.6208 110.633 19.6208ZM11.5269 12.8633H44.2791V19.4767H28.2432V21.3869H37.7965V28.0001H28.2432V38.2872H11.5269V12.8633ZM81.1555 30.5718C81.1555 36.1376 72.8924 38.5214 62.7004 38.5214C52.5091 38.5214 44.246 35.4029 44.246 31.0125L44.2784 21.3866H58.2377V30.8655C58.2377 31.3754 58.7079 31.8643 59.5448 32.2249C60.3817 32.5854 61.5168 32.7879 62.7004 32.7879C63.884 32.7879 65.0191 32.5854 65.856 32.2249C66.6929 31.8643 67.1631 31.3754 67.1631 30.8655V21.3869H81.1217L81.1555 30.5718Z" fill="#DEDEDE"/>
</g>
<defs>
<clipPath id="clip0_262_652">
<rect width="130" height="56" fill="white"/>
</clipPath>
</defs>
</svg>
