<svg width="130" height="56" viewBox="0 0 130 56" fill="none" xmlns="http://www.w3.org/2000/svg">
<path d="M44.0516 17.9483H51.625C52.3985 12.7112 51.7938 3.69744 41.2337 4.83737C37.2078 4.92842 28.676 6.56729 26.2631 26.2519C25.4853 33.3355 27.0806 46.858 37.3589 42.8592C39.8511 41.803 45.355 37.4327 47.7503 41.9851L51.0966 21.4446H40.8814L39.8247 28.8741H42.4665C41.8868 31.8314 39.8511 33.4703 37.5351 33.6815C35.3365 33.4703 33.6295 31.9698 33.8365 26.689C34.0698 21.3171 36.3271 13.3959 40.8814 13.578C42.217 13.5343 43.5923 14.6269 44.0516 17.9483ZM55.3221 6.14847H62.1924L56.3803 42.4221H49.51L55.3221 6.14847ZM56.9072 42.4221L70.9986 6.14847H79.6287L81.0377 42.4221H73.9927L73.8166 37.6148H65.7134L63.7775 42.4221H56.9072Z" fill="#DEDEDE"/>
<path d="M69.4136 28H73.4644L73.1107 18.3889L69.4136 28Z" fill="white"/>
<path d="M82.0945 42.4221L87.9066 6.14844H96.1844L100.059 25.8185L103.229 6.14844H109.568L103.756 42.4221H96.1844L91.956 20.1335L88.435 42.4221H82.0945ZM110.803 6.14844L109.218 15.7631H115.557L111.331 42.4221H117.848L122.075 15.7631H128.415L130 6.14844H110.803ZM22.5646 29.7482C21.1909 27.3263 17.3382 22.5444 12.1733 31.4963C12.9365 28.0073 16.5676 18.0394 22.5646 24.0668C22.6777 25.6874 22.6219 28.2841 22.5646 29.7482Z" fill="#DEDEDE"/>
<path d="M22.0359 19.6964C14.6152 10.7773 10.1842 24.3253 7.76983 30.6222C5.23071 36.6168 0.818802 34.7849 0.196497 34.1184C0.046792 32.0462 -0.04127 30.054 0.0203734 28C-0.04127 12.489 5.02963 -0.0938842 11.2908 0.0299416C13.6999 -0.034947 16.0518 1.84954 17.9906 5.3981C19.9294 8.94666 21.3495 13.9661 22.0359 19.6964ZM22.3881 33.6814C17.7781 25.8221 14.53 33.0623 13.4058 36.7406C8.97187 47.2658 1.74052 39.778 0.724869 38.4851C2.49785 48.9047 6.55163 56.1084 11.2923 55.9664C16.7668 56.1121 21.3402 46.4427 22.3881 33.6814ZM123.696 43.8788C125.23 43.8788 126.47 40.7795 126.47 36.9592C126.47 33.1715 125.23 30.0759 123.696 30.0759C122.155 30.0759 120.907 33.1715 120.907 36.9592C120.907 38.7944 121.201 40.5544 121.724 41.8521C122.247 43.1498 122.956 43.8788 123.696 43.8788ZM123.696 42.9683C122.338 42.9683 121.348 40.3425 121.348 36.9592C121.348 33.6086 122.338 30.9864 123.696 30.9864C125.046 30.9864 126.03 33.6086 126.03 36.9592C126.031 40.3425 125.048 42.9683 123.696 42.9683ZM124.144 37.2651C124.694 37.2287 125.12 36.6642 125.12 35.1528C125.12 33.8781 124.841 33.1133 124.019 33.1133H122.661V40.8123H123.043V37.2614H123.74L124.628 40.8123H125.083L124.144 37.2651ZM123.043 36.5185V33.787H123.931C124.312 33.787 124.709 33.9327 124.709 35.1345C124.709 36.7006 124.063 36.5185 123.623 36.5185H123.043Z" fill="#DEDEDE"/>
</svg>
