<svg width="130" height="56" viewBox="0 0 130 56" fill="none" xmlns="http://www.w3.org/2000/svg">
<g clip-path="url(#clip0_262_675)">
<path fill-rule="evenodd" clip-rule="evenodd" d="M0 0H130V56H0V0Z" fill="white"/>
<path fill-rule="evenodd" clip-rule="evenodd" d="M104.787 19.2455C104.444 19.43 104.016 19.43 104.187 19.1717C104.358 18.9134 104.701 18.2124 104.701 18.2124C104.828 17.9358 104.315 17.9172 103.716 17.9172H95.1086C94.0801 17.9172 93.3922 18.5468 94.679 18.8027C95.7931 19.0241 95.7075 19.3559 95.4512 19.8727L91.8538 25.9972C91.5969 26.3662 91.7681 26.8089 92.7953 26.8089H98.362C99.1342 26.8089 99.9901 26.5138 100.247 26.1079L102.131 22.861C103.074 21.57 104.615 20.2783 107.784 20.1679C108.812 20.2045 109.326 20.3893 108.812 21.2748L106.67 24.8903C105.984 25.9603 107.356 26.9196 110.181 26.9196C113.008 26.9196 116.52 26.1079 118.403 24.9272C119.346 24.3738 117.975 23.7097 116.948 24.0789C115.921 24.4479 115.063 24.4479 115.407 23.8944L117.376 20.5737C118.318 18.9875 117.291 17.8068 114.293 17.6589C111.295 17.5113 108.384 17.9541 104.787 19.2455ZM89.0273 32.3797C88.6847 32.5642 88.2564 32.5642 88.4277 32.3059C88.599 32.0477 88.9416 31.3469 88.9416 31.3469C89.0704 31.07 88.5572 31.0512 87.9563 31.0512H79.3492C78.3221 31.0512 77.6328 31.681 78.921 31.937C80.0338 32.1583 79.9481 32.4901 79.6918 33.0072L76.0945 39.1315C75.8375 39.5004 76.0088 39.9435 77.036 39.9435H82.604C83.3749 39.9435 84.2307 39.6477 84.4877 39.2422L86.3714 35.9953C87.3142 34.7045 88.856 33.4128 92.0251 33.3021C93.0523 33.339 93.5662 33.5235 93.0523 34.4087L90.9116 38.0243C90.2251 39.0946 91.5968 40.0539 94.422 40.0539C97.2486 40.0539 100.76 39.2419 102.644 38.0612C103.587 37.508 102.216 36.8442 101.189 37.2129C100.161 37.5815 99.3049 37.5818 99.6475 37.0284L101.617 33.7077C102.558 32.1212 101.531 30.9405 98.5347 30.7929C95.5368 30.6456 92.6247 31.0883 89.0273 32.3797ZM50.3144 31.2365C50.4433 30.9596 49.9293 30.9408 49.3298 30.9408H40.7221C39.6942 30.9408 39.007 31.5706 40.2938 31.8266C41.4073 32.0479 41.3216 32.3797 41.0647 32.8963L38.1525 37.9139C37.4673 38.9842 38.8377 39.9435 41.6642 39.9435C44.4908 39.9435 48.0018 39.1315 49.8862 37.9508C50.8284 37.3976 49.4579 36.7338 48.4301 37.1025C47.4029 37.4714 46.8027 37.4714 47.1453 36.918L50.3144 31.2365ZM42.2638 30.4614C42.3495 29.5018 43.206 27.5469 47.8312 27.6576C49.9725 27.7314 51.6856 27.842 52.884 27.5469C53.3123 28.5428 51.2566 29.9817 47.9169 30.1662C46.2031 30.3876 43.9768 29.9449 42.2638 30.4614ZM120.332 30.9594H116.293L117.421 29.0407C117.548 28.8563 117.249 28.6901 116.905 28.7087L109.626 29.2987C109.198 29.3536 109.027 29.4649 108.898 29.6494L108.131 30.9591H105.215C104.701 30.9591 104.444 31.0509 104.358 31.199L104.016 31.7891C103.93 31.9367 104.187 32.1212 104.615 32.1212H107.45L104.016 37.9871C103.331 39.0574 104.701 40.0167 107.528 40.0167C110.353 40.0167 115.192 39.094 117.506 37.4156C118.447 36.8619 117 35.959 116.092 36.3823C115.064 36.8616 112.152 38.0426 112.752 36.9912L115.61 32.1209H119.731C120.16 32.1209 120.46 31.9916 120.545 31.844L120.888 31.3277C121.017 31.1069 120.803 30.9594 120.332 30.9594ZM35.9255 15.2607C34.2125 14.8917 31.8142 14.2645 25.2197 14.3014C18.6251 14.3383 9.37465 15.8513 6.3775 19.6144C4.23619 22.8979 7.57595 26.1448 14.1712 26.7721C20.7664 27.399 25.391 26.8827 30.1875 26.0341C30.7871 25.8865 31.129 25.7021 31.3003 25.37L33.014 22.5659C33.4423 21.8279 34.2125 21.7541 35.1553 21.6803C36.1825 21.6066 36.5258 20.6473 35.241 20.6104H24.1062C22.7357 20.6104 22.3931 21.5328 23.5923 21.7172C24.7914 21.9017 24.7914 22.2338 24.6201 22.529L23.421 24.4107C22.9927 24.8903 22.2218 25.739 19.1383 25.5914C16.0549 25.4438 13.6141 23.9345 14.3425 21.8279C14.9421 20.0941 18.2818 15.7403 27.6179 15.8141C30.5301 15.851 32.0718 16.6255 32.4145 17.6955C32.4145 18.1752 35.1553 18.3228 35.4123 17.8434L36.5258 15.9986C36.6971 15.5927 36.3538 15.3716 35.9255 15.2607Z" fill="#DEDEDE"/>
<path fill-rule="evenodd" clip-rule="evenodd" d="M38.4948 28.1739C36.7824 27.805 34.3842 27.1777 27.7889 27.2146C21.1944 27.2515 11.9439 28.764 8.94676 32.5274C6.80545 35.8112 10.1459 39.0581 16.7411 39.685C23.3357 40.3126 27.9609 39.7957 32.7574 38.9474C33.357 38.7998 33.6996 38.6153 33.8709 38.283L35.584 35.4794C36.0122 34.7418 36.7831 34.668 37.7253 34.5936C38.7531 34.5198 39.0957 33.5608 37.8109 33.5239H26.6754C25.305 33.5239 24.9624 34.446 26.1609 34.6305C27.36 34.815 27.36 35.1474 27.1887 35.4425L25.9895 37.3243C25.5613 37.8036 24.7904 38.6525 21.7069 38.5049C18.6241 38.3574 16.1827 36.8481 16.9111 34.7418C17.5106 33.0077 20.8511 28.6539 30.1865 28.7277C33.0987 28.7646 34.6404 29.5391 34.9824 30.6094C34.9824 31.0888 37.7232 31.2369 37.9802 30.757L39.0937 28.9122C39.2657 28.5057 38.923 28.2843 38.4948 28.1739ZM59.0574 22.7627C58.4579 23.5546 58.2366 24.4207 59.7359 24.8164C62.8423 25.6365 65.9872 24.595 68.6431 23.7833C69.9285 23.3774 71.042 24.2998 69.7572 24.8902C64.7887 27.3619 55.1107 27.2144 53.055 26.4029C51.0263 25.6022 49.1757 23.7263 53.0773 20.9071C47.7142 19.9992 45.5614 22.3342 44.918 23.3039L43.2906 26.1078C43.0344 26.5136 42.1772 26.8088 41.4063 26.8088H35.8396C34.8117 26.8088 34.6404 26.366 34.8974 25.9971L38.4941 19.8726C38.7511 19.356 38.8367 19.0239 37.7232 18.8026C36.4358 18.5466 37.1237 17.917 38.1515 17.917H46.7592C47.3588 17.917 47.8727 17.9353 47.7439 18.2122C47.7439 18.2122 47.4869 18.655 47.3156 18.9132C47.1443 19.1715 47.5726 19.1715 47.9152 18.987C51.4269 17.4005 54.1678 17.5481 55.6232 17.9539L54.7148 19.9341C59.3474 17.6489 66.6737 17.291 69.6689 17.6219C72.2148 17.9031 74.2078 19.356 72.4954 20.6843C70.0546 22.473 62.0499 22.8272 59.0574 22.7627ZM60.0994 21.6752C66.5112 21.5372 67.9673 18.7311 65.5589 18.8026C63.0757 18.8764 61.1913 20.6843 60.5061 21.3115C60.4069 21.4022 60.2626 21.5285 60.0994 21.6752ZM120.359 38.5912C122.161 38.5912 123.557 39.2103 123.557 40.0133C123.557 40.8343 122.161 41.4535 120.359 41.4535C118.537 41.4535 117.141 40.8343 117.141 40.0133C117.14 39.2103 118.537 38.5912 120.359 38.5912V38.3443C118.225 38.3443 116.434 39.0665 116.434 40.013C116.434 40.9776 118.225 41.7001 120.359 41.7001C122.483 41.7001 124.264 40.9779 124.264 40.013C124.264 39.0665 122.483 38.3443 120.359 38.3443V38.5912Z" fill="#DEDEDE"/>
<path fill-rule="evenodd" clip-rule="evenodd" d="M119.548 39.2871H120.485C120.964 39.2871 121.484 39.3275 121.484 39.5872C121.484 39.8969 120.911 39.91 120.287 39.91H119.548V40.1569H120.297L121.537 41.0006H122.297L120.995 40.1348C121.671 40.1038 122.192 39.955 122.192 39.6009C122.192 39.2241 121.681 39.0402 120.599 39.0402H118.839V41.0006H119.548V39.2871ZM64.8748 35.811C63.6756 37.25 61.4487 37.25 60.7635 37.25C60.0782 37.25 58.6222 36.9548 59.393 35.7372C60.3352 33.9662 64.1039 32.1216 67.1017 32.4165L64.8748 35.811ZM72.6685 36.9548L75.9232 31.3099C76.0507 31.088 75.8376 30.9407 75.3237 30.9407H65.5175C63.5475 30.9407 54.6835 30.9776 51.428 35.5896C49.6293 38.2459 52.1132 39.4635 53.655 39.7955C54.6147 40.0027 57.916 40.6456 63.2373 38.8002C63.5165 39.5204 65.2133 39.9803 67.445 39.9803C70.2715 39.9803 73.7819 39.1683 75.667 37.9876C76.6085 37.4344 75.2387 36.7706 74.2102 37.1393C73.1824 37.5079 72.3259 37.5079 72.6685 36.9548ZM79.2704 22.7627C78.6709 23.5547 78.4497 24.4208 79.9489 24.8165C83.0546 25.6366 86.2015 24.5951 88.8561 23.7834C90.1402 23.3775 91.255 24.2999 89.9689 24.8902C85.0017 27.362 75.3237 27.2144 73.2674 26.403C71.2124 25.5916 69.3273 23.6779 73.4387 20.795C77.8069 17.7326 86.5428 17.2533 89.8832 17.6219C92.4278 17.9032 94.4221 19.3561 92.7098 20.6844C90.2683 22.4731 82.2635 22.8272 79.2704 22.7627ZM80.3124 21.6753C86.7249 21.5373 88.1803 18.7312 85.7726 18.8026C83.2893 18.8764 81.4043 20.6844 80.7198 21.3116C80.6206 21.4022 80.4756 21.5286 80.3124 21.6753Z" fill="#DEDEDE"/>
</g>
<defs>
<clipPath id="clip0_262_675">
<rect width="130" height="56" fill="white"/>
</clipPath>
</defs>
</svg>
