<svg width="130" height="59" viewBox="0 0 130 59" fill="none" xmlns="http://www.w3.org/2000/svg">
<g clip-path="url(#clip0_262_681)">
<path d="M0.00292969 29.6458V0H8.73495V10.699H18.4529V0H27.3257V29.6458H18.4529V18.7998H8.73495V29.6458H0.00292969ZM47.7474 0H56.4794V17.4983C56.4489 27.5634 52.9772 30.6364 42.6772 30.6581C32.2645 30.6364 28.9735 27.3175 29.0158 17.4983V0H37.7478V16.9198C37.7713 21.7234 38.5506 23.3214 41.973 23.2828C46.7521 23.3214 47.7098 22.5838 47.7474 16.9198V0ZM43.0997 41.5041C41.304 38.5034 38.5506 36.7223 34.7902 36.7319C29.7505 36.7223 25.2601 40.6557 25.2131 46.2764C25.2624 51.9645 29.8092 56.5753 35.0719 56.544C38.4309 56.5753 40.8862 54.8544 42.5363 51.9163H45.494C43.5785 56.0836 39.6867 58.9735 34.931 59.0024C27.8351 58.9735 22.6264 53.0106 22.678 46.5656C22.6604 44.9274 22.9617 43.302 23.5641 41.785C24.1666 40.2679 25.0581 38.8897 26.1864 37.7312C27.3146 36.5727 28.6568 35.6573 30.1343 35.0387C31.6118 34.4201 33.1947 34.1108 34.7902 34.1288C40.1679 34.0782 43.5785 37.0283 45.7756 41.5041H43.0997ZM16.9036 34.9965H19.4387V58.1347H16.9036V34.9965ZM45.9165 34.9965H48.5924L54.3668 48.154L60.5637 34.9965H63.3805L55.7752 50.7594V58.1347H53.0993V50.904L45.9165 34.9965ZM0.00292969 58.1347V34.8519H3.24223C7.90166 34.8784 9.15982 35.2472 10.2842 35.8642C11.6104 36.6596 12.8686 38.6263 12.8193 40.4918C12.8686 42.9286 11.0119 44.7122 9.15747 45.1195C12.2113 45.5726 14.3051 47.5394 14.3685 51.1933C14.3051 55.4088 11.1926 58.113 5.21398 58.1347H0.00292969ZM129.152 41.2149H126.899C126.354 38.1346 125.336 36.5993 122.815 36.5873C120.726 36.5993 118.751 38.0744 118.73 40.7811C118.749 46.9248 129.765 42.6225 129.716 52.2056C129.765 56.2065 127.371 58.9735 123.096 59.0024C118.331 58.9735 115.759 56.1439 115.491 51.7717H118.026C118.331 54.7941 119.888 56.5151 122.955 56.544C126.174 56.5126 127.429 54.8544 127.462 52.3502C127.429 45.2038 116.176 49.4459 116.195 40.6365C116.176 36.7198 118.988 34.0782 122.533 34.1288C126.831 34.0782 128.807 36.5367 129.152 41.2149ZM66.9015 19.6675H77.6053V11.8583H66.9015V7.95376H79.2953V0H58.1695V29.7904H67.0423L66.9015 19.6675ZM104.928 0L113.097 11.8583L121.265 0H129.997L117.322 19.089V29.6458H108.731V19.089L100.844 7.95376H89.7174V11.8583H100.421V19.6675H89.7174V29.7904H80.9854V0H104.928ZM82.3938 41.5041C80.6803 38.5034 77.8658 36.7223 74.0843 36.7319C69.0657 36.7223 64.5753 40.6557 64.5072 46.2764C64.5753 51.9645 69.1244 56.5753 74.366 56.544C77.7438 56.5753 80.1991 54.8544 81.8304 51.9163H84.7881C82.8914 56.0836 79.0019 58.9735 74.2251 59.0024C67.5071 58.9735 61.8806 53.1962 61.8313 46.5656C61.8806 39.4868 67.7489 34.0782 74.0843 34.1288C79.4808 34.0782 82.8938 37.0283 85.0697 41.5041H82.3938ZM86.9006 34.9965H89.4357V55.5317H98.7311V58.1347H86.9006V34.9965ZM100.844 34.9965H112.674V37.455H103.379V45.2641H112.674V47.7225H103.379V55.5317H112.674V58.1347H100.844V34.9965Z" fill="#DEDEDE"/>
<path d="M2.53809 55.821H5.91822C9.51901 55.8378 11.6738 53.6252 11.6926 51.0487C11.6715 48.2769 9.69741 46.6187 5.77738 46.5657H2.53809V55.821ZM2.53809 44.2519H5.91822C8.38056 44.2205 10.1176 42.2538 10.1434 40.6365C10.1152 38.0744 8.14113 37.3972 5.35487 37.455H2.53809V44.2519Z" fill="white"/>
<path d="M124.002 21.3692C124.592 21.3679 125.156 21.1262 125.572 20.6972C125.988 20.2683 126.221 19.6872 126.22 19.0819C126.219 18.4765 125.984 17.8965 125.566 17.4693C125.148 17.0422 124.582 16.8029 123.993 16.8042C123.701 16.8048 123.412 16.8645 123.142 16.9798C122.873 17.0951 122.628 17.2637 122.422 17.4761C122.216 17.6885 122.053 17.9405 121.942 18.2177C121.831 18.4948 121.774 18.7918 121.774 19.0915C121.775 19.3913 121.833 19.6879 121.945 19.9646C122.058 20.2413 122.222 20.4926 122.429 20.7041C122.636 20.9156 122.881 21.0832 123.151 21.1973C123.421 21.3114 123.71 21.3698 124.002 21.3692ZM124.002 21.0679C122.915 21.0679 122.124 20.2002 122.124 19.0795C122.124 17.9708 122.915 17.1031 124.002 17.1031C125.082 17.1031 125.868 17.9708 125.868 19.0795C125.868 20.2002 125.082 21.0679 124.002 21.0679ZM124.361 19.1807C124.802 19.1686 125.143 18.9806 125.143 18.4817C125.143 18.0599 124.92 17.8069 124.263 17.8069H123.178V20.3545H123.483V19.1807H124.04L124.751 20.3545H125.115L124.361 19.1807ZM123.481 18.9348V18.031H124.192C124.497 18.031 124.814 18.0792 124.814 18.4769C124.814 18.9951 124.298 18.9348 123.946 18.9348H123.481Z" fill="#DEDEDE"/>
</g>
<defs>
<clipPath id="clip0_262_681">
<rect width="130" height="59" fill="white"/>
</clipPath>
</defs>
</svg>
