<svg width="140" height="39" viewBox="0 0 192 89" fill="none" xmlns="http://www.w3.org/2000/svg">
<g clip-path="url(#clip0_158_450)">
<path d="M123.196 81.7972H130.34V83.0172H123.196V81.7972ZM4.36602 74.3982L3.72744 86.643V86.8557C3.72744 87.8922 4.14132 88.1061 6.38171 88.2231V88.7904C4.75098 88.6978 4.1091 88.674 3.21526 88.674C2.31894 88.674 1.67954 88.6978 0.0166016 88.7904V88.2231C2.25451 88.1061 2.57586 87.9166 2.63947 86.643L3.31109 75.06V74.9204C3.31109 73.8333 2.86252 73.5981 0.657656 73.5042V72.9131C1.90259 72.9844 2.38255 73.0082 3.27887 73.0082C4.29421 73.015 5.30917 72.9761 6.3181 72.8918L12.2644 84.8271L18.3073 72.8918C19.7488 72.9844 20.4196 73.0082 21.3796 73.0082C22.1759 73.0082 22.6898 72.9844 23.9041 72.9131V73.5042C21.7307 73.5981 21.2482 73.8333 21.2482 74.8948V75.06L21.601 86.643C21.6357 87.9166 21.9215 88.1043 24.2247 88.2231V88.7904C22.2106 88.6491 21.4415 88.6003 20.2272 88.6003C19.0103 88.6003 18.2429 88.6466 16.2288 88.7904V88.2231C18.4023 88.1299 18.8823 87.8691 18.8823 86.7624V86.646L18.5973 74.425L13.3185 84.9453L12.936 85.7247L12.4882 86.5961L12.0702 87.4955L11.7191 88.2731H11.2392L10.8889 87.5187L10.4395 86.5961L9.99259 85.6771L9.60846 84.852L4.36602 74.3982ZM28.3783 82.0178C28.6988 79.3055 29.9124 77.9155 31.9594 77.9155C34.0387 77.9155 35.0937 79.236 35.2845 82.0178H28.3783ZM32.5369 88.1981C29.6265 88.1981 28.3452 86.5467 28.3163 82.8667H37.8462C37.781 79.2342 35.7661 77.2994 31.9916 77.2994C28.1569 77.2994 25.7571 79.5882 25.7571 83.2213C25.7571 86.8538 28.1577 88.9763 32.2808 88.9763C35.415 88.9763 37.4629 87.5363 37.876 85.1074H36.5955C36.2122 87.1122 34.8053 88.1981 32.5369 88.1981ZM39.7487 78.1721V77.7485C41.5703 77.6309 42.6591 77.4896 43.9693 77.2056C44.1295 78.0794 44.1931 78.4554 44.2568 79.1641V79.4243C44.9622 78.0794 46.3344 77.3 47.999 77.3C49.5967 77.3 50.7813 78.0794 50.7813 79.2129C50.7813 79.8972 50.2377 80.3445 49.4381 80.3445C48.7028 80.3445 48.1279 80.0136 48.1279 79.5432C48.1279 79.4962 48.1609 79.4036 48.1898 79.3055L48.2534 79.0709V78.8564C48.2534 78.5261 47.8693 78.2909 47.2935 78.2909C45.633 78.2909 44.5781 79.7765 44.5781 82.1123V87.0415C44.5781 88.058 44.8962 88.2463 46.8482 88.3163V88.7886C45.087 88.6722 44.4162 88.646 43.2968 88.646C42.1461 88.646 41.4753 88.6722 39.7173 88.7886V88.3163C41.6661 88.2463 42.018 88.058 42.018 87.0415V79.3305C41.9875 78.3153 41.8255 78.1989 40.1651 78.1739L39.7487 78.1721ZM63.015 77.0892V80.9825H62.3095C61.7337 78.9283 60.5516 77.9381 58.602 77.9381C56.2014 77.9381 54.7962 79.8503 54.7962 83.2232C54.7962 86.5248 56.0427 88.1999 58.5045 88.1999C60.4872 88.1999 61.6701 87.1628 62.0543 85.0879H63.3645C62.9481 87.6125 61.1257 88.9799 58.2493 88.9799C54.5392 88.9799 52.0147 86.6674 52.0147 83.225C52.0147 79.7083 54.5715 77.3031 58.3451 77.3031C59.7205 77.3031 60.5838 77.5633 61.609 78.2945L62.4698 77.091H63.0159L63.015 77.0892ZM68.2657 82.0178C68.5854 79.3055 69.799 77.9155 71.8469 77.9155C73.9253 77.9155 74.9803 79.236 75.1703 82.0178H68.2657ZM72.4227 88.1981C69.5123 88.1981 68.2343 86.5467 68.2021 82.8667H77.7304C77.6667 79.2342 75.6502 77.2994 71.8799 77.2994C68.0402 77.2994 65.6412 79.5882 65.6412 83.2213C65.6412 86.8538 68.0394 88.9763 72.1674 88.9763C75.3008 88.9763 77.3479 87.5363 77.7617 85.1074H76.4829C76.0996 87.1122 74.6928 88.1981 72.4227 88.1981ZM86.5862 88.3413C84.2838 88.3413 83.0695 86.5705 83.0695 83.1994C83.0695 79.7808 84.188 78.105 86.4912 78.105C88.8588 78.105 90.074 79.8972 90.074 83.367C90.0731 86.6424 88.8893 88.3413 86.5862 88.3413ZM92.5977 86.3347V72.7163C90.9992 73.032 89.5618 73.219 87.7716 73.3604V73.7626C89.7856 73.7626 90.0417 73.9277 90.0417 75.1538V79.2811C88.8588 77.8668 87.931 77.4408 86.2037 77.4408C82.7828 77.4408 80.383 79.8229 80.383 83.2195C80.383 86.6168 82.8117 88.997 86.2995 88.997C88.1219 88.997 89.3693 88.384 90.264 87.0641C90.3912 87.9605 90.3912 88.0543 90.7125 88.9495C92.0219 88.6424 92.5671 88.5485 94.4539 88.384L94.9331 88.3377V87.9367C92.7902 87.8898 92.5977 87.7734 92.5977 86.3347ZM98.7678 82.0178C99.0875 79.3055 100.302 77.9155 102.35 77.9155C104.428 77.9155 105.482 79.236 105.673 82.0178H98.7678ZM102.926 88.1981C100.014 88.1981 98.7373 86.5467 98.7034 82.8667H108.232C108.168 79.2342 106.154 77.2994 102.382 77.2994C98.5423 77.2994 96.145 79.5882 96.145 83.2213C96.145 86.8538 98.5423 88.9763 102.67 88.9763C105.803 88.9763 107.849 87.5363 108.263 85.1074H106.983C106.603 87.1122 105.193 88.1981 102.926 88.1981ZM110.948 89.0007V85.0598L111.652 85.0373C112.226 87.1847 113.57 88.2231 115.809 88.2231C117.694 88.2231 119.102 87.3023 119.102 86.1019C119.102 85.2999 118.496 84.7582 116.926 84.2378L115.712 83.8356L114.242 83.3408C111.904 82.5395 111.17 81.8783 111.17 80.5096C111.17 78.6455 113.151 77.3738 115.967 77.3738C117.215 77.3738 118.144 77.5858 119.23 78.1257L119.771 77.1593H120.347V80.8155H119.61C119.32 78.9277 118.267 78.0331 116.254 78.0331C114.56 78.0331 113.245 78.8826 113.245 79.991C113.245 80.9337 113.725 81.2421 116.636 82.1848L117.98 82.6107C120.408 83.3865 121.274 84.1433 121.274 85.5358C121.274 87.5174 119.13 88.9306 116.128 88.9306C114.655 88.9306 113.504 88.6472 112.289 87.9404L111.519 89.0007H110.948ZM139.058 80.8618C140.752 80.8618 141.711 81.0751 142.448 81.6162C143.184 82.161 143.601 83.1744 143.601 84.3048C143.601 86.6637 142 87.9861 139.155 87.9861H138.004C136.308 87.9861 136.022 87.7959 136.022 86.7582V80.86L139.058 80.8618ZM136.019 73.7139H138.738C141.424 73.7139 142.607 74.6828 142.607 76.8753C142.607 77.96 142.255 78.74 141.552 79.3512C140.849 79.9429 139.986 80.1294 138.197 80.1294H136.022V73.7132H136.019V73.7139ZM145.452 76.8278C145.452 75.6011 144.749 74.5176 143.533 73.8315C142.448 73.2422 141.202 72.9838 139.12 72.9838H130.711V73.5731C133.015 73.6682 133.333 73.8565 133.333 75.13V86.5699C133.333 87.8441 133.075 88.0074 130.711 88.1512V88.7185H138.801C141.166 88.7185 142.447 88.5046 143.791 87.8916C145.389 87.1372 146.444 85.6979 146.444 84.2146C146.444 82.938 145.708 81.7832 144.461 81.0782C143.791 80.701 143.086 80.4859 141.934 80.3225C144.239 79.6827 145.452 78.4792 145.452 76.8278ZM151.664 82.0178C151.985 79.3055 153.2 77.9155 155.247 77.9155C157.324 77.9155 158.381 79.236 158.571 82.0178H151.664ZM155.823 88.1981C152.913 88.1981 151.632 86.5467 151.601 82.8667H161.132C161.067 79.2342 159.052 77.2994 155.278 77.2994C151.441 77.2994 149.042 79.5882 149.042 83.2213C149.042 86.8538 151.441 88.9763 155.565 88.9763C158.698 88.9763 160.745 87.5363 161.161 85.1074H159.881C159.5 87.1122 158.093 88.1981 155.823 88.1981ZM162.823 78.2659V77.8668C164.678 77.6766 165.765 77.4896 167.043 77.1587C167.204 77.7034 167.301 78.3147 167.363 79.211C168.515 77.9362 169.825 77.3719 171.681 77.3719C173.601 77.3719 175.261 78.1002 175.903 79.2574C176.225 79.8247 176.384 80.484 176.384 81.3792V87.0409C176.384 88.0561 176.704 88.2444 178.653 88.3145V88.7868C176.958 88.668 176.32 88.6454 175.168 88.6454C173.983 88.6454 173.345 88.668 171.68 88.7868V88.3145C173.407 88.2694 173.823 88.0324 173.823 87.0891V81.3091C173.823 79.2574 172.992 78.4304 170.947 78.4304C168.77 78.4304 167.62 79.4463 167.62 81.3792V87.0891C167.62 88.0324 168.038 88.2694 169.702 88.3145V88.7868C168.038 88.668 167.399 88.6454 166.247 88.6454C165.128 88.6454 164.454 88.668 162.792 88.7868V88.3145C164.741 88.2444 165.062 88.0561 165.062 87.0409V79.3999C165.03 78.4304 164.839 78.2909 163.241 78.2909C163.142 78.2909 162.984 78.2659 162.823 78.2659ZM179.895 88.7185L188.561 78.197H184.627C182.55 78.197 182.035 78.5261 180.886 80.6498H180.249L180.985 77.5834H191.985L183.286 88.1043H187.026C189.203 88.1043 190.097 87.4687 191.056 85.3206H191.728L190.898 88.7185H179.895Z" fill="#9C9C9C"/>
<path d="M135.122 50.9579C139.382 45.7319 141.628 39.7472 141.616 33.6491C141.616 15.065 121.192 0 95.9988 0C70.8052 0 50.3824 15.0656 50.3824 33.6491C50.3707 39.7474 52.6166 45.7322 56.878 50.9579L56.712 51.056L56.9102 50.9993C64.8945 60.7652 79.4115 67.2983 95.9988 67.2983C112.587 67.2983 127.102 60.7652 135.086 50.9993L135.284 51.056L135.122 50.9579ZM136.012 33.6491C136.02 38.8022 134.188 43.866 130.702 48.3314L102.482 31.5657L96.6944 4.14863C118.47 4.42285 136.012 17.5208 136.012 33.6491ZM55.9908 33.6491C55.9908 17.5214 73.5314 4.42346 95.3065 4.14863L89.5189 31.5657L61.2993 48.3314C57.8139 43.8657 55.983 38.8021 55.9908 33.6491ZM96.0005 63.1624C81.8031 63.1624 69.3414 57.7024 62.2402 49.4789L96.0005 39.8447L129.761 49.4795C122.659 57.7024 110.199 63.1624 96.0005 63.1624Z" fill="#9C9C9C"/>
</g>
<defs>
<clipPath id="clip0_158_450">
<rect width="192" height="89" fill="white"/>
</clipPath>
</defs>
</svg>
