<svg width="140" height="39" viewBox="0 0 220 57" fill="none" xmlns="http://www.w3.org/2000/svg">
<path d="M16.3356 2.32178C18.2367 2.32178 20.1216 2.88195 21.8786 3.97389C23.6356 5.06177 25.2322 6.66112 26.5758 8.6745C27.9194 10.6879 28.9883 13.0788 29.7145 15.7092C30.4428 18.3403 30.8171 21.1595 30.816 24.0063C30.816 32.7743 27.2884 40.6817 21.8759 44.0346C16.4634 47.3916 10.235 45.5366 6.09266 39.334C1.95034 33.1355 0.712817 23.8074 2.95397 15.7092C5.19511 7.60692 10.477 2.32584 16.3329 2.32584L16.3356 2.32178ZM16.3356 30.5052C16.9069 30.5069 17.4729 30.34 18.0008 30.0139C18.5287 29.6879 19.0083 29.2092 19.4117 28.6054C19.8147 28.0003 20.1344 27.2832 20.3528 26.4946C20.5704 25.7031 20.6819 24.8587 20.6819 24.0063C20.6819 21.3759 19.6239 19.0053 18.0001 17.9986C16.3764 16.9919 14.5078 17.548 13.2649 19.4072C12.0219 21.2663 11.6493 24.0631 12.3238 26.4946C12.6514 27.6819 13.2077 28.6973 13.9225 29.412C14.6372 30.1268 15.478 30.5086 16.3383 30.5092L16.3356 30.5052Z" fill="#9C9C9C"/>
<path d="M32.6139 18.5833C36.2938 20.1705 40.6374 18.5833 40.6374 18.5833C39.3781 26.8236 35.38 31.9829 29.6166 32.608C29.0618 34.5402 28.3193 36.3385 27.4163 37.95C26.5133 39.5615 25.458 40.966 24.2858 42.1229C23.1108 43.2798 21.8325 44.1728 20.4861 44.7736C19.1398 45.3743 17.7418 45.6828 16.3384 45.6788L20.682 25.005C25.1479 3.75485 27.438 2.31787 38.0291 2.31787H45.302C44.0862 10.339 39.8922 16.4684 32.6139 18.5792V18.5833Z" fill="#9C9C9C"/>
<path d="M84.2526 23.9821C84.2526 36.3181 80.1837 45.1632 72.0868 45.1632C63.9327 45.1632 59.959 36.3059 59.959 23.9739C59.959 11.784 63.9952 2.84554 72.0868 2.84554C80.3496 2.84554 84.2553 11.577 84.2526 23.9861V23.9821ZM72.0868 38.1732C76.8138 38.1732 77.57 31.0654 77.57 23.9739C77.57 16.9271 76.7676 9.82745 72.0868 9.82745C67.4059 9.82745 66.6416 16.9717 66.6416 23.9699C66.6416 30.9153 67.4521 38.1691 72.0868 38.1691V38.1732ZM105.462 21.5912V44.1687H100.292C100.164 44.1687 100.039 44.1322 99.9189 44.0591C99.8005 43.9864 99.6932 43.8787 99.6034 43.7425C99.5136 43.6085 99.4402 43.4462 99.3939 43.2716C99.345 43.0971 99.3205 42.9063 99.3205 42.7155V23.1621C99.3205 20.7752 98.986 19.0298 97.3785 19.0298C96.2552 19.0298 95.1728 20.1176 94.1338 22.3015C94.0233 22.5419 93.938 22.8061 93.8808 23.085C93.8536 23.223 93.8319 23.365 93.8183 23.5112C93.8047 23.6533 93.7992 23.7994 93.7992 23.9455V44.1728H88.6288C88.501 44.1728 88.3759 44.1362 88.2562 44.0632C88.1378 43.9905 88.0305 43.8828 87.9407 43.7465C87.7595 43.4732 87.6578 43.1041 87.6578 42.7196V13.2778H91.3895C91.6152 13.2778 91.8409 13.3387 92.0558 13.4524C92.268 13.5701 92.4665 13.7406 92.6406 13.9598C92.8147 14.179 92.9615 14.4428 93.073 14.7351C93.1873 15.0314 93.2634 15.3521 93.3042 15.6849L93.4511 16.9393C95.1428 13.9598 97.1147 12.2833 99.7475 12.2833C103.207 12.2833 105.462 15.486 105.465 21.5952L105.462 21.5912ZM117.312 37.8403C117.407 37.8688 117.497 37.9256 117.576 38.0027C117.658 38.0798 117.726 38.1813 117.783 38.299C117.84 38.4168 117.881 38.5466 117.905 38.6847L118.912 44.1241C118.615 44.3027 118.316 44.461 118.009 44.5909C117.704 44.7248 117.394 44.8344 117.078 44.9237C116.766 45.013 116.45 45.0739 116.132 45.1145C115.814 45.1551 115.495 45.1713 115.177 45.1632C111.701 45.1632 109.501 42.1594 109.501 36.3181V2.29754C109.502 1.93936 109.591 1.5942 109.751 1.32738C109.83 1.19342 109.925 1.08382 110.031 1.00264C110.137 0.92145 110.252 0.86868 110.371 0.852443L115.648 0V35.965C115.645 37.2436 115.996 37.885 116.698 37.885C116.725 37.885 116.752 37.8809 116.782 37.8809C116.809 37.8769 116.836 37.8769 116.866 37.8688C116.893 37.8647 116.921 37.8606 116.948 37.8525C116.975 37.8485 117.002 37.8403 117.029 37.8322C117.125 37.8079 117.22 37.8119 117.315 37.8403H117.312ZM138.639 13.2697L132.07 44.2296C130.397 52.275 126.794 56.1679 121.348 56.9838C121.226 57 121.104 56.9797 120.987 56.9269C120.87 56.8742 120.761 56.7889 120.663 56.6753C120.568 56.5616 120.486 56.4236 120.424 56.2612C120.361 56.1029 120.323 55.9284 120.304 55.7457L119.779 50.627C123.271 49.9369 125.167 48.7029 126.426 44.1646H125.768C125.562 44.1646 125.358 44.1119 125.162 44.0145C124.966 43.917 124.781 43.775 124.615 43.5882C124.449 43.4056 124.305 43.1823 124.185 42.9306C124.066 42.679 123.976 42.3989 123.916 42.1026L118.028 13.2616H123.777C123.886 13.2616 123.995 13.29 124.101 13.3428C124.204 13.3955 124.302 13.4767 124.387 13.5823C124.471 13.6837 124.544 13.8096 124.604 13.9476C124.661 14.0856 124.705 14.2399 124.727 14.4022L128.26 38.2828L132.125 14.3738C132.149 14.2155 132.193 14.0653 132.252 13.9314C132.309 13.7933 132.383 13.6756 132.47 13.5741C132.554 13.4727 132.649 13.3955 132.753 13.3428C132.856 13.29 132.962 13.2616 133.071 13.2616H138.641L138.639 13.2697Z" fill="#9C9C9C"/>
<path d="M141.301 4.73718C141.35 4.56263 141.421 4.40026 141.511 4.26631C141.601 4.13235 141.709 4.02275 141.826 3.94969C141.943 3.87662 142.071 3.84009 142.199 3.84009H157.281L156.81 8.7802C156.786 9.03593 156.728 9.2876 156.647 9.51492C156.562 9.74224 156.454 9.9452 156.323 10.1157C156.193 10.2862 156.04 10.4201 155.877 10.5094C155.714 10.5987 155.543 10.6475 155.368 10.6475H147.606V21.3598H155.309L154.961 26.2147C154.941 26.4785 154.89 26.7383 154.808 26.9738C154.727 27.2133 154.618 27.4243 154.485 27.6029C154.351 27.7815 154.199 27.9196 154.033 28.017C153.867 28.1103 153.69 28.1591 153.511 28.1591H147.601V42.7034C147.601 42.8941 147.576 43.0849 147.527 43.2595C147.478 43.434 147.407 43.5964 147.318 43.7303C147.228 43.8643 147.119 43.9739 147.002 44.047C146.885 44.12 146.757 44.1566 146.63 44.1566H141.228V5.28518C141.228 5.0944 141.252 4.90361 141.301 4.72906V4.73718ZM176.923 33.8095C176.923 36.1842 177.209 37.4832 178.588 38.5223L177.726 41.721C177.587 42.2365 177.377 42.7074 177.111 43.0971C176.844 43.4868 176.529 43.7953 176.181 43.9983C175.833 44.2012 175.463 44.2946 175.09 44.2702C174.717 44.2499 174.353 44.1119 174.016 43.8724C172.99 43.1255 172.128 42.0539 171.557 40.4423C170.202 43.2148 168.524 45.1551 166.014 45.1551C160.196 45.1551 158.045 37.3614 158.045 28.6299C158.045 19.866 160.971 12.2793 166.637 12.2793C168.736 12.2793 169.95 13.4849 171.247 15.8879L171.285 15.6079C171.372 14.9489 171.611 14.356 171.96 13.9314C172.131 13.7203 172.327 13.5539 172.536 13.4402C172.746 13.3266 172.969 13.2697 173.192 13.2697H176.926V33.8136L176.923 33.8095ZM170.417 35.8513C170.474 35.7296 170.526 35.5997 170.57 35.4657C170.613 35.3318 170.651 35.1937 170.684 35.0517C170.714 34.9096 170.738 34.7635 170.755 34.6173C170.771 34.4712 170.779 34.321 170.782 34.1708V22.6547C170.782 22.472 170.771 22.2894 170.746 22.1108C170.724 21.932 170.69 21.7567 170.646 21.5871C170.556 21.2474 170.424 20.9362 170.257 20.6697C169.444 19.387 168.913 18.9852 168.002 18.9852C165.04 18.9852 164.426 24.2622 164.426 28.6989C164.426 33.1357 164.776 38.4127 167.73 38.4127C168.946 38.4127 169.631 37.5603 170.42 35.8595L170.417 35.8513ZM199.318 21.5871V44.1647H194.148C194.02 44.1647 193.895 44.1282 193.775 44.0551C193.657 43.9824 193.55 43.8747 193.46 43.7385C193.37 43.6045 193.297 43.4421 193.25 43.2676C193.201 43.093 193.177 42.9023 193.177 42.7115V23.1581C193.177 20.7712 192.84 19.0257 191.232 19.0257C190.109 19.0257 189.027 20.1136 187.988 22.2975C187.877 22.5379 187.792 22.8021 187.735 23.0809C187.707 23.219 187.686 23.361 187.672 23.5072C187.658 23.6492 187.653 23.7954 187.653 23.9415V44.1687H182.483C182.355 44.1687 182.23 44.1322 182.11 44.0591C181.992 43.9864 181.884 43.8787 181.794 43.7425C181.705 43.6086 181.631 43.4462 181.585 43.2716C181.536 43.0971 181.512 42.9063 181.512 42.7155V13.2697H185.243C185.469 13.2697 185.695 13.3306 185.91 13.4443C186.122 13.562 186.32 13.7325 186.494 13.9517C186.668 14.1709 186.815 14.4347 186.93 14.727C187.044 15.0233 187.12 15.344 187.161 15.6769L187.308 16.9352C188.189 15.3846 189.141 14.2196 190.163 13.4443C193.857 10.6515 199.318 12.2468 199.321 21.5912L199.318 21.5871ZM219.287 34.9786C219.287 41.8834 214.778 45.1633 210.113 45.1633C207.01 45.1633 203.773 43.7385 201.481 40.556L203.89 36.5252C203.964 36.3953 204.054 36.2897 204.154 36.2086C204.255 36.1274 204.364 36.0746 204.475 36.0502C204.587 36.0259 204.704 36.034 204.812 36.0665C204.924 36.103 205.03 36.168 205.125 36.2613C207.086 38.2301 209.159 38.9445 211.343 38.4046C211.569 38.3478 211.783 38.2301 211.979 38.0596C212.378 37.7167 212.68 37.1724 212.833 36.5252C212.909 36.2045 212.948 35.8635 212.945 35.5225C212.918 33.976 212.442 33.3508 211.43 32.7257C208.832 31.1223 202.49 30.1968 202.49 21.6967C202.49 15.4861 206.599 12.2712 210.927 12.2712C213.652 12.2712 216.377 13.4524 218.507 16.0544L216.755 20.0771C216.693 20.2273 216.611 20.3572 216.516 20.4627C216.421 20.5683 216.315 20.6454 216.2 20.6941C216.086 20.7428 215.967 20.755 215.85 20.7387C215.733 20.7225 215.618 20.6697 215.512 20.5886C213.715 19.1435 211.9 18.5955 210.073 18.9567C209.276 19.111 208.634 20.1502 208.675 21.3517C208.718 22.675 209.287 23.1784 210.149 23.7385C213.807 26.1213 219.285 26.4136 219.287 34.9786Z" fill="#9C9C9C"/>
</svg>
