<svg width="50" height="39" viewBox="0 0 229 80" fill="none" xmlns="http://www.w3.org/2000/svg">
<g clip-path="url(#clip0_201_164)">
<path d="M224.223 0.0256348H177.664H131.104C128.212 0.427792 126.611 2.63162 126.327 6.66928V73.3309C126.611 77.3525 128.199 79.5563 131.079 79.9746H224.249C227.128 79.5563 228.716 77.3525 229 73.3309V6.66928C228.716 2.6477 227.115 0.427792 224.223 0.0256348Z" fill="#CC11CC" fill-opacity="0.109804"/>
<path d="M219.562 31.0722C217.986 28.9006 215.856 27.501 213.545 26.8576C212.873 26.6485 212.125 26.4876 211.272 26.4394C208.212 26.1176 204.3 27.6137 202.467 29.5279L202.906 13.9242H195.469V62.2475H202.376V59.5771C203.964 61.1858 206.508 63.0357 210.42 63.0357H211.156C214.423 63.0357 217.199 61.4271 219.484 58.2098C221.77 54.9604 222.906 50.3597 222.906 44.3756C222.906 38.5845 221.795 34.1608 219.549 31.0722M213.558 53.1104C212.422 54.8478 211.014 55.7164 209.374 55.7164C207.244 55.7164 205.527 54.4939 204.249 52.0166C203.319 50.2953 202.854 47.6089 202.854 43.9734C202.854 40.4666 203.448 37.8606 204.623 36.1233C205.785 34.4021 207.283 33.5495 209.065 33.5495C210.872 33.5495 212.37 34.4182 213.532 36.1877C214.694 37.9571 215.275 40.8527 215.275 44.8421C215.275 48.6063 214.694 51.357 213.545 53.0944M183.487 41.9948C183.487 46.9816 183.306 50.1506 182.931 51.4375C182.544 52.7244 181.86 53.8022 180.866 54.6547C179.833 55.5395 178.709 55.9416 177.444 55.9416C176.334 55.9416 175.417 55.6199 174.694 54.9765C173.971 54.333 173.467 53.4643 173.196 52.3544C172.938 51.2283 172.783 48.2363 172.783 43.2978V27.2115H165.346V49.4106C165.346 52.6922 165.682 55.266 166.353 57.132C167.024 58.998 168.109 60.4619 169.607 61.4753C171.104 62.5209 172.796 63.0357 174.694 63.0357C174.978 63.0357 175.249 63.0357 175.533 63.0035C180.285 62.8427 182.764 60.1562 184.003 58.3868V62.2475H190.911V27.2115H183.474L183.487 41.9948ZM159.213 30.654C158.529 29.4153 157.496 28.4019 156.114 27.5976C154.875 26.9059 153.493 26.5198 151.982 26.4394H151.905C148.767 26.2302 144.765 27.3724 142.893 29.6084V13.9242H135.456V62.2475H142.893V44.7134C142.893 41.7696 143.112 39.5336 143.564 38.0376C144.016 36.5255 144.726 35.3994 145.694 34.6595C146.663 33.9034 147.76 33.5334 149 33.5334C150.084 33.5334 150.988 33.823 151.711 34.4021C152.408 34.9812 152.912 35.7694 153.196 36.7668C153.48 37.7319 153.622 40.0805 153.622 43.7482V62.2475H161.046V41.6892C161.046 38.5684 160.917 36.252 160.659 34.7721C160.401 33.2599 159.936 31.8765 159.239 30.67M117.315 32.7774C117.031 31.2652 116.514 29.8818 115.791 28.6914C115.055 27.485 113.984 26.5037 112.537 25.7316C111.091 24.9594 109.542 24.5733 107.812 24.5733C104.687 24.3481 99.6 25.8281 98.0765 28.8684V25.3937H90.8072V62.2314H98.6317V45.5499C98.6317 41.4318 98.8124 38.6328 99.2127 37.0885C99.6 35.5603 100.349 34.3538 101.408 33.3886C102.505 32.4878 103.732 32.0213 105.075 32.0213C106.107 32.0213 107.011 32.343 107.786 32.9865C108.522 33.6299 109.077 34.5308 109.4 35.7212C109.736 36.8472 109.916 39.421 109.916 43.4104V62.1992H117.728V39.3406C117.728 36.4933 117.573 34.3056 117.289 32.7774M80.0519 24.702C77.7278 25.072 75.5328 27.4045 74.5645 28.8845V25.3937H67.2952V62.2314H75.1197V50.8584C75.1197 44.5847 75.3392 40.4666 75.7652 38.5041C76.2042 36.5416 76.7982 35.1903 77.5729 34.4342C78.3217 33.6621 79.2514 33.3082 80.3488 33.3082C81.4851 33.3082 82.6988 33.823 84.0157 34.8847L86.4431 26.3911C84.7904 25.1685 83.0861 24.5573 81.2785 24.5573C80.8653 24.5573 80.4521 24.6055 80.0519 24.6859M48.1602 24.5573C45.2551 24.5573 42.6341 25.3616 40.2842 26.938C37.9601 28.5467 36.1266 30.847 34.8613 33.8551C33.5701 36.9115 32.9246 40.0323 32.9246 43.2817C32.9246 47.5124 33.5701 51.0997 34.8613 54.0595C36.1266 56.9872 37.9988 59.2072 40.4649 60.7514C42.9181 62.2796 45.5005 63.0357 48.2119 63.0357C52.6018 63.0357 56.2171 61.2019 59.1093 57.5664C62.0015 53.9308 63.4347 49.2658 63.4347 43.6839C63.4347 38.1663 62.0144 33.5978 59.148 29.9783C56.3075 26.3589 52.6406 24.5573 48.1732 24.5573M53.3378 52.1935C51.9433 54.1239 50.239 55.0891 48.199 55.0891C46.159 55.0891 44.4546 54.1239 43.0343 52.1935C41.6528 50.2632 40.9685 47.4481 40.9685 43.7965C40.9685 40.1449 41.6528 37.362 43.0343 35.3994C44.4546 33.4691 46.159 32.5039 48.199 32.5039C50.239 32.5039 51.9433 33.4691 53.3378 35.3994C54.7193 37.3298 55.4036 40.1127 55.4036 43.7321C55.4036 47.432 54.7193 50.2471 53.3378 52.1935ZM23.0214 12.1547C21.4978 11.6399 18.2441 11.3826 13.2086 11.3826H0V62.2153H8.2376V43.0404H13.6088C17.3532 43.0404 20.1937 42.7991 22.1563 42.3165C23.6024 41.9144 25.0227 41.1101 26.4171 39.9036C27.8116 38.6971 28.9994 37.0081 29.9033 34.8847C30.8071 32.7613 31.259 30.1392 31.259 27.0024C31.259 22.9808 30.4843 19.667 28.9091 17.1093C27.3209 14.5355 25.3713 12.8947 23.0343 12.1225M21.8464 31.1044C21.2396 32.2304 20.3874 33.0669 19.2899 33.5978C18.1924 34.1286 16.0233 34.4021 12.7696 34.4021H8.25051V19.9727H12.2531C15.2228 19.9727 17.1853 20.1013 18.1666 20.3426C19.5094 20.6322 20.6198 21.3882 21.4849 22.5947C22.35 23.7851 22.7761 25.3294 22.7761 27.1632C22.7761 28.6753 22.4791 29.9944 21.8722 31.1205" fill="#C9C9C9"/>
</g>
<defs>
<clipPath id="clip0_201_164">
<rect width="229" height="80" fill="white"/>
</clipPath>
</defs>
</svg>
