<svg width="140" height="39" viewBox="0 0 216 67" fill="none" xmlns="http://www.w3.org/2000/svg">
<mask id="mask0_158_307" style="mask-type:luminance" maskUnits="userSpaceOnUse" x="110" y="9" width="8" height="8">
<path d="M111.341 10.8452C110.493 11.6539 110.069 12.6646 110.069 13.877C110.069 14.747 110.354 15.4472 110.924 15.976C111.494 16.504 112.291 16.7688 113.314 16.7688C114.601 16.7688 115.661 16.3719 116.493 15.5794C117.326 14.7867 117.743 13.7831 117.743 12.5707C117.743 11.7007 117.458 10.9933 116.888 10.4493C116.318 9.90498 115.536 9.63281 114.542 9.63281C113.255 9.63281 112.188 10.0368 111.341 10.8452Z" fill="white"/>
</mask>
<g mask="url(#mask0_158_307)">
<path d="M110.163 8.70922L109.306 16.675L117.639 17.6895L118.496 9.72368L110.163 8.70922Z" fill="url(#paint0_linear_158_307)"/>
</g>
<mask id="mask1_158_307" style="mask-type:luminance" maskUnits="userSpaceOnUse" x="7" y="6" width="46" height="55">
<path d="M22.2383 48.1403L22.5662 47.5709L24.4134 44.3663L26.5939 40.5814C27.2434 39.4487 26.9072 37.9702 25.8418 37.2795C24.4704 36.385 23.4599 35.0571 22.9025 33.541C22.3435 32.0236 22.2386 30.3164 22.6772 28.6634C23.1144 27.0159 24.0399 25.6225 25.2605 24.6396C26.4798 23.6591 27.9952 23.0893 29.6116 23.0893C31.228 23.0893 32.7418 23.6591 33.9608 24.6396C35.1811 25.6225 36.1076 27.0159 36.5445 28.6634C36.9821 30.3164 36.8778 32.023 36.3192 33.5404C35.7618 35.0571 34.7512 36.385 33.3799 37.2792C32.3148 37.9699 31.9782 39.4483 32.6284 40.5811L35.9842 46.4053L36.9932 48.1563C35.9055 48.6759 34.7751 49.0778 33.6179 49.3591C32.3129 49.6761 30.9469 49.7764 29.6148 49.7764C29.4851 49.7794 29.3563 49.7811 29.227 49.7811C26.8144 49.7811 24.4293 49.2212 22.2383 48.14M15.236 19.3315C17.4958 16.111 20.7041 13.6483 24.5042 12.4484C28.3133 11.2469 32.2711 11.4486 35.8179 12.8372C39.364 14.2248 42.4951 16.7956 44.6604 20.3327C46.8275 23.8729 47.7695 27.9635 47.5276 31.9762C47.2858 35.9878 45.8596 39.9161 43.2874 43.1282C42.5382 44.0626 41.722 44.9038 40.8478 45.6488L39.835 43.8938L37.549 39.9249C38.8776 38.6264 39.8892 37.0341 40.5301 35.291C41.4387 32.8239 41.6089 30.05 40.8979 27.3667C40.1833 24.6755 38.6746 22.4019 36.686 20.8018C34.6973 19.2007 32.2322 18.2717 29.6113 18.2717C26.9904 18.2717 24.5237 19.2007 22.5357 20.8018C20.5483 22.4016 19.0377 24.6752 18.3244 27.3667C17.6121 30.0504 17.783 32.8245 18.6909 35.291C19.3321 37.0348 20.3434 38.6264 21.6723 39.9249L13.0902 54.8211C12.9971 54.9814 12.8662 55.0973 12.7208 55.159C12.5745 55.2193 12.4002 55.2275 12.2237 55.1759C12.0522 55.1234 11.9126 55.0221 11.8177 54.8909C11.7255 54.7601 11.6717 54.5865 11.6717 54.3896V30.7462H11.6628C11.6634 26.5295 12.9723 22.5558 15.2356 19.3319M23.2298 7.83892C18.4551 9.34616 14.4322 12.4281 11.6079 16.453C8.78496 20.4744 7.15165 25.4493 7.15101 30.7462H7.14209V54.3896C7.14209 55.6555 7.52994 56.8347 8.2094 57.7874C8.88726 58.7409 9.85131 59.4581 11.0034 59.8038C12.1504 60.1481 13.3209 60.0715 14.3659 59.6374C15.4109 59.2018 16.3202 58.4097 16.947 57.3231L17.5102 56.3463H17.5095L19.8554 52.2753C22.8996 53.8358 26.2357 54.6438 29.6148 54.6404C29.7075 54.6404 30.2343 54.6292 30.3398 54.6323C31.7794 54.5821 33.2087 54.3852 34.6081 54.0453C39.2148 52.9268 43.4936 50.2644 46.7197 46.2335C49.9488 42.2015 51.737 37.2873 52.0394 32.2772C52.3422 27.2663 51.1601 22.1511 48.4471 17.7165C45.7308 13.2798 41.8084 10.0569 37.3753 8.32123C34.9096 7.3556 32.2855 6.85059 29.6205 6.85059C27.4955 6.85059 25.3449 7.17224 23.2298 7.83858" fill="white"/>
</mask>
<g mask="url(#mask1_158_307)">
<path d="M8.07884 -0.000291886L-0.000488281 59.0432L51.4042 66.9991L59.4835 7.95564L8.07884 -0.000291886Z" fill="url(#paint1_linear_158_307)"/>
</g>
<path fill-rule="evenodd" clip-rule="evenodd" d="M209.215 46.3432C209.603 46.3432 209.776 46.6221 209.776 46.9014C209.776 47.1807 209.607 47.46 209.215 47.46H208.277V46.3432H209.215ZM210.555 49.1682L209.565 47.9813C210.186 47.8474 210.391 47.3654 210.391 46.8868C210.391 46.2829 209.985 45.7372 209.215 45.7324C208.696 45.7372 208.179 45.7324 207.66 45.7324V49.2129H208.276V48.0507H208.869L209.821 49.2129H210.554V49.1682H210.555Z" fill="#343434"/>
<path fill-rule="evenodd" clip-rule="evenodd" d="M210.87 45.4625C210.386 44.948 209.718 44.6301 208.98 44.6301C208.241 44.6301 207.573 44.948 207.09 45.4625C206.606 45.977 206.306 46.6877 206.306 47.4724C206.306 48.257 206.606 48.9684 207.09 49.4829C207.573 49.9974 208.242 50.316 208.98 50.316C209.717 50.316 210.386 49.9974 210.87 49.4829C211.354 48.9684 211.653 48.2584 211.653 47.4724C211.653 46.6864 211.354 45.977 210.87 45.4625ZM208.98 44.2C209.829 44.2 210.599 44.5663 211.156 45.1585C211.712 45.7506 212.057 46.5691 212.057 47.472C212.057 48.375 211.712 49.1942 211.156 49.7863C210.599 50.3784 209.829 50.7448 208.98 50.7448C208.13 50.7448 207.361 50.3784 206.804 49.7863C206.247 49.1942 205.903 48.3756 205.903 47.472C205.903 46.5684 206.247 45.7506 206.804 45.1585C207.361 44.5663 208.131 44.2 208.98 44.2Z" fill="#343434"/>
<path fill-rule="evenodd" clip-rule="evenodd" d="M197.968 19.3728L201.397 35.5037L209.707 19.3728H216L198.51 50.745H192.329L197.202 42.4536L191.635 19.3728H197.968Z" fill="#9C9C9C"/>
<path fill-rule="evenodd" clip-rule="evenodd" d="M180.124 19.073C183.082 19.073 185.408 19.9024 187.102 21.5615C188.796 23.2199 189.644 25.4792 189.644 28.3398H183.633C183.579 27.0814 183.183 26.0876 182.443 25.3582C181.704 24.6285 180.689 24.2645 179.398 24.2645C177.865 24.2645 176.5 24.8579 175.304 26.0442C174.106 27.2318 173.32 28.9692 172.944 31.2567C172.836 31.8573 172.782 32.5009 172.782 33.1869C172.782 34.8464 173.179 36.1052 173.972 36.963C174.766 37.8209 175.793 38.2496 177.058 38.2496C178.323 38.2496 179.525 37.8846 180.507 37.1559C181.488 36.4261 182.208 35.4327 182.665 34.1743H188.675C187.734 37.0342 186.161 39.2935 183.956 40.9519C181.75 42.6114 179.21 43.4404 176.332 43.4404C173.454 43.4404 171.168 42.5751 169.474 40.8452C167.78 39.1142 166.933 36.7193 166.933 33.6594C166.933 32.7439 167.013 31.7712 167.175 30.7415C167.578 28.3395 168.398 26.2594 169.636 24.4997C170.872 22.7413 172.399 21.3967 174.214 20.467C176.029 19.538 177.999 19.073 180.124 19.073Z" fill="#9C9C9C"/>
<path fill-rule="evenodd" clip-rule="evenodd" d="M115.621 19.3728L111.667 43.1403H105.979L109.933 19.3728H115.621Z" fill="#9C9C9C"/>
<path fill-rule="evenodd" clip-rule="evenodd" d="M126.835 37.091L135.426 19.3728H141.478L129.255 43.1403H122.316L118.041 19.3728H124.092L126.835 37.091Z" fill="#9C9C9C"/>
<path fill-rule="evenodd" clip-rule="evenodd" d="M153.087 24.3498C151.312 24.3498 149.78 24.9646 148.488 26.1946C147.198 27.4246 146.378 29.1119 146.028 31.2566C145.92 32.0579 145.867 32.6151 145.867 32.9296C145.867 34.5602 146.304 35.8326 147.178 36.7481C148.051 37.6632 149.255 38.1208 150.788 38.1208C152.51 38.1208 154.029 37.4985 155.347 36.2542C156.665 35.0107 157.497 33.3448 157.847 31.2563C157.955 30.513 158.009 29.969 158.009 29.6264C158.009 27.9957 157.559 26.7091 156.658 25.7652C155.757 24.8213 154.566 24.3495 153.087 24.3495M151.918 19.0726C153.881 19.0726 155.474 19.5512 156.698 20.5097C157.921 21.4679 158.681 22.7338 158.977 24.3064L159.825 19.3729H165.471L161.519 43.1397H155.871L156.718 38.1638C155.885 39.7656 154.715 41.0451 153.209 42.0029C151.703 42.9614 150.009 43.44 148.126 43.44C145.598 43.44 143.608 42.6113 142.156 40.9515C140.704 39.2931 139.979 36.9901 139.979 34.0447C139.979 32.9293 140.072 31.8284 140.26 30.7411C140.664 28.3672 141.431 26.2943 142.559 24.521C143.689 22.7477 145.067 21.396 146.695 20.4663C148.322 19.5373 150.062 19.0723 151.918 19.0723" fill="#9C9C9C"/>
<path fill-rule="evenodd" clip-rule="evenodd" d="M98.1133 23.9204C99.1889 22.4051 100.486 21.211 102.006 20.3386C103.525 19.4661 105.146 19.0303 106.867 19.0303L105.778 25.5083H104.124C99.9557 25.5083 97.5355 27.5677 96.8627 31.6861L94.9675 43.1408H89.2393L93.1927 19.3733H98.8804L98.1139 23.9211L98.1133 23.9204Z" fill="#9C9C9C"/>
<path fill-rule="evenodd" clip-rule="evenodd" d="M75.0239 38.1211C76.7722 38.1211 78.2914 37.5134 79.5828 36.2984C80.8729 35.0826 81.7072 33.4025 82.0833 31.2567C82.1642 30.6561 82.2047 30.1128 82.2047 29.6268C82.2047 27.9389 81.7671 26.6377 80.8929 25.7226C80.0194 24.8074 78.8163 24.3499 77.2831 24.3499C75.5618 24.3499 74.0426 24.9718 72.7245 26.2157C71.407 27.4599 70.5733 29.14 70.224 31.2567C70.1431 31.8007 70.1032 32.3152 70.1032 32.8012C70.1032 34.46 70.5536 35.7615 71.4539 36.7054C72.3551 37.6493 73.5451 38.1211 75.0239 38.1211ZM79.9856 19.073C82.46 19.073 84.4298 19.8878 85.8955 21.5181C87.3608 23.1487 88.0942 25.4074 88.0942 28.2964C88.0942 29.2404 88.0132 30.2274 87.8523 31.2567C87.4214 33.7455 86.6282 35.9113 85.4719 37.7558C84.3154 39.6006 82.9036 41.0099 81.2362 41.982C79.5694 42.954 77.7936 43.4404 75.9111 43.4404C74.0286 43.4404 72.503 42.9618 71.3328 42.0033C70.1635 41.0451 69.4302 39.7657 69.1344 38.1642L67.0489 50.7455H61.3599L66.553 19.3733H72.2407L71.393 24.3068C72.2267 22.705 73.3973 21.432 74.9025 20.4887C76.4086 19.5448 78.1031 19.073 79.985 19.073" fill="#9C9C9C"/>
<defs>
<linearGradient id="paint0_linear_158_307" x1="114.282" y1="9.06091" x2="113.392" y2="16.365" gradientUnits="userSpaceOnUse">
<stop stop-color="#9C9C9C"/>
<stop offset="1" stop-color="#9C9C9C"/>
</linearGradient>
<linearGradient id="paint1_linear_158_307" x1="33.8788" y1="4.42939" x2="25.5347" y2="58.3417" gradientUnits="userSpaceOnUse">
<stop stop-color="#9C9C9C"/>
<stop offset="1" stop-color="#9C9C9C"/>
</linearGradient>
</defs>
</svg>
