<svg width="150" height="47" viewBox="0 0 227 47" fill="none" xmlns="http://www.w3.org/2000/svg">
<path d="M16.952 18.2724C27.0301 15.3004 28.7455 7.55849 27.4589 0.440349C27.4589 0.183509 27.7162 5.14276e-05 27.9736 0.0734344C37.6228 4.1095 48.4727 12.9154 48.4727 26.1244C48.4727 36.2512 39.2953 45.2039 25.958 45.2039C21.1988 45.3891 16.5031 44.213 12.612 41.8612C8.72091 39.5095 5.85601 36.116 4.46949 32.2165C3.08296 28.3169 3.25378 24.1333 4.95498 20.3261C6.65617 16.5188 9.79087 13.3047 13.8643 11.1909C14.1216 11.0442 14.4647 11.1909 14.4647 11.4478C14.5933 12.8054 15.0222 16.2177 16.7805 18.2724H16.952Z" fill="url(#paint0_radial_151_178)"/>
<path d="M76.8629 37.1683L77.5919 36.4345L79.8648 42.5987L79.5646 42.8555C77.8492 44.2131 75.2761 44.9102 71.974 44.9102H71.8453C68.8433 44.9102 66.4846 44.1764 64.855 42.8188C63.2253 41.4246 62.3676 39.3331 62.3676 36.6914V19.8867H56.5781V13.0987H62.3676V4.91654H71.2878V13.0987H78.3639V19.8867H71.2449V35.0402C71.2449 35.7374 71.4593 37.9756 73.9467 37.9756C75.2332 37.9756 76.434 37.572 76.8629 37.1317V37.1683ZM81.5803 44.2131V13.1354H90.5004V44.2131H81.5803ZM85.9974 0.440186C87.0558 0.440215 88.0906 0.708304 88.9712 1.21066C89.8518 1.71302 90.5388 2.42717 90.9458 3.2631C91.3528 4.09902 91.4614 5.01931 91.258 5.90798C91.0546 6.79664 90.5483 7.61391 89.8029 8.25677C89.0575 8.89963 88.1063 9.33932 87.0693 9.52041C86.0323 9.7015 84.9558 9.61589 83.9755 9.27437C82.9953 8.93286 82.1552 8.35072 81.561 7.60132C80.9668 6.85193 80.6452 5.96882 80.6368 5.06331C80.6368 2.56829 83.0812 0.440186 85.9974 0.440186ZM114.473 12.3649C122.193 12.3649 126.438 15.9607 126.438 22.5285V44.1764H117.518V24.363C117.347 20.8406 115.374 19.2262 111.171 19.2262C107.397 19.2262 104.352 21.2076 102.808 22.8954V44.1764H93.8883V13.1721H102.808V16.4744C105.382 14.3463 109.499 12.4383 114.473 12.4383V12.3649ZM156.115 16.3643V1.76108H165.035V44.2498H156.115V41.021C154.75 42.2527 153.108 43.2354 151.288 43.9101C149.467 44.5848 147.506 44.9375 145.522 44.9469C135.787 44.9469 129.269 38.4159 129.269 28.6926C129.269 18.9327 135.787 12.4016 145.522 12.4016C147.51 12.4094 149.476 12.7649 151.297 13.4464C153.119 14.1278 154.758 15.1208 156.115 16.3643ZM156.115 22.9321C155.121 21.8243 153.85 20.9201 152.396 20.2854C150.942 19.6507 149.341 19.3014 147.709 19.2629C142.177 19.2629 138.489 23.0421 138.489 28.6926C138.489 34.3064 142.177 38.0856 147.709 38.0856C150.926 38.0856 154.442 36.618 156.115 34.4899V22.9321ZM185.877 12.4016C196.427 12.4016 203.76 19.373 203.76 29.2797V31.3711H176.786C177.686 35.7374 181.717 38.5259 187.207 38.5259C190.68 38.5259 194.497 37.2417 196.684 35.3705L197.285 34.9302L201.53 40.1404L201.102 40.4706C197.083 43.519 191.844 45.1226 186.478 44.9469C175.328 44.9469 167.48 38.2324 167.48 28.6559C167.393 26.5416 167.806 24.4341 168.695 22.4599C169.584 20.4858 170.93 18.6856 172.652 17.1675C174.375 15.6495 176.438 14.4448 178.718 13.6258C180.998 12.8068 183.448 12.3904 185.92 12.4016H185.877ZM176.743 25.6105H195.055C194.54 20.9507 190.037 18.8226 185.877 18.8226C179.616 18.8226 177.257 22.8587 176.743 25.6472V25.6105ZM225.332 12.4016H225.975V20.1068L225.203 19.9967C224.56 19.8867 223.745 19.8133 222.93 19.8133C220.057 19.8133 216.069 21.5378 214.568 23.3724V44.1764H205.647V13.1354H214.61V16.5844C217.57 13.9426 221.472 12.4016 225.332 12.4016Z" fill="#9C9C9C"/>
<defs>
<radialGradient id="paint0_radial_151_178" cx="0" cy="0" r="1" gradientUnits="userSpaceOnUse" gradientTransform="translate(26.007 45.2229) scale(44.9315 45.1658)">
<stop stop-color="#9C9C9C"/>
<stop offset="1" stop-color="#9C9C9C"/>
</radialGradient>
</defs>
</svg>
