<svg width="32" height="32" viewBox="0 0 24 23" fill="none" xmlns="http://www.w3.org/2000/svg">
<g clip-path="url(#clip0_196_253)">
<path d="M22.608 7.87886C22.5696 7.65622 22.4184 7.45934 22.1832 7.32502C21.948 7.1907 21.6576 7.13734 21.3696 7.1723C20.832 7.23854 20.4432 7.60286 20.4648 8.0279L20.6808 10.3187C20.0736 10.2414 19.4328 10.4181 19.0656 10.8008L17.496 12.0244C16.3824 12.3409 15.9096 13.0217 15.756 13.305C15.4104 13.9417 15.6936 14.5433 15.8112 14.7457L15.8016 15.5977H15.4728C15.2736 15.5977 15.1128 15.7209 15.1128 15.8737V17.4965C15.1128 17.6493 15.2736 17.7725 15.4728 17.7725H19.536C19.7352 17.7725 19.896 17.6493 19.896 17.4965V15.8737C19.896 15.7209 19.7352 15.5977 19.536 15.5977H19.2912L19.2984 15.4744L21.7416 13.8497C21.7848 13.8202 21.8208 13.7834 21.8424 13.7411L23.088 11.2902C23.1792 11.1117 23.2056 10.9185 23.1696 10.7309L22.6056 7.87702L22.608 7.87886ZM22.4184 11.0915L21.204 13.4798L18.7104 15.1377C18.636 15.1873 18.5904 15.2591 18.5856 15.3345L18.5712 15.6013H16.5192L16.5288 14.6887C16.5288 14.6427 16.5144 14.5967 16.4856 14.5562C16.4832 14.5507 16.1352 14.0355 16.416 13.5203C16.536 13.2995 16.9104 12.7604 17.8056 12.5285C17.8584 12.5138 17.9064 12.4917 17.9472 12.4605L19.596 11.1761C19.6104 11.1651 19.6224 11.1541 19.6344 11.1412C19.8384 10.9167 20.2128 10.8155 20.5656 10.8652L19.7088 12.0796L18.4656 13.0897C18.4008 13.1431 18.3672 13.2112 18.3672 13.2793C18.3672 13.3529 18.4056 13.4265 18.48 13.4798C18.624 13.5847 18.852 13.5792 18.9888 13.4688L20.2656 12.431C20.2872 12.4145 20.3064 12.3942 20.3208 12.374L21.396 10.8541C21.4296 10.8045 21.444 10.7511 21.4368 10.6996L21.1824 8.00214C21.1752 7.86414 21.3048 7.7427 21.4824 7.72062C21.5784 7.70958 21.6744 7.72614 21.7536 7.7703C21.8328 7.81446 21.8832 7.8807 21.8952 7.95798L22.4592 10.8155C22.4784 10.9093 22.464 11.005 22.4184 11.0915ZM19.176 16.1515V17.2224H15.8328V16.1515H19.176Z" fill="url(#paint0_linear_196_253)"/>
<path d="M4.73519 15.5996H4.49039C4.29119 15.5996 4.13039 15.7229 4.13039 15.8756V17.4985C4.13039 17.6512 4.29119 17.7745 4.49039 17.7745H8.55359C8.75279 17.7745 8.91359 17.6512 8.91359 17.4985V15.8756C8.91359 15.7229 8.75279 15.5996 8.55359 15.5996H8.22479L8.21519 14.7477C8.33279 14.5471 8.61599 13.9436 8.27039 13.307C8.11679 13.0236 7.64399 12.3428 6.53039 12.0263L4.96079 10.8027C4.59359 10.42 3.95279 10.2434 3.34559 10.3207L3.56159 8.02065C3.58079 7.60481 3.19199 7.24049 2.65679 7.17425C2.36639 7.13929 2.07839 7.19265 1.84319 7.32697C1.60799 7.46129 1.45679 7.65817 1.41839 7.87529L0.854387 10.7328C0.818387 10.9205 0.844787 11.1155 0.935987 11.2922L2.18159 13.7431C2.20319 13.7854 2.23679 13.8222 2.28239 13.8516L4.72559 15.4763L4.73279 15.5996H4.73519ZM1.56719 10.8156L2.13119 7.95257C2.14319 7.87897 2.19359 7.81273 2.27279 7.76857C2.35199 7.72441 2.44559 7.70601 2.54399 7.71889C2.72159 7.74097 2.85119 7.86241 2.84639 7.99121L2.59199 10.6997C2.58719 10.7512 2.59919 10.8046 2.63279 10.8543L3.70799 12.3741C3.72239 12.3943 3.74159 12.4146 3.76319 12.4311L5.03999 13.4689C5.17679 13.5793 5.40479 13.5848 5.54879 13.4799C5.62319 13.4266 5.66159 13.353 5.66159 13.2794C5.66159 13.2113 5.62799 13.1432 5.56319 13.0899L4.31999 12.0797L3.46319 10.8653C3.81599 10.8175 4.19039 10.9168 4.39439 11.1413C4.40639 11.1542 4.41839 11.1652 4.43279 11.1763L6.08159 12.4606C6.11999 12.4919 6.16799 12.5139 6.22319 12.5287C7.11599 12.7623 7.49279 13.2996 7.61279 13.5204C7.89359 14.0375 7.54799 14.5527 7.54559 14.5563C7.51679 14.5968 7.50239 14.6428 7.50239 14.6888L7.51199 15.6015H5.45999L5.44559 15.3347C5.44079 15.2592 5.39519 15.1875 5.32079 15.1378L2.82719 13.4799L1.61279 11.0916C1.56719 11.0033 1.55519 10.9076 1.57199 10.8156H1.56719ZM8.19359 17.2225H4.85039V16.1516H8.19359V17.2225Z" fill="url(#paint1_linear_196_253)"/>
<path d="M12.0001 12.2286C12.1969 12.2286 16.8433 12.2047 17.2897 10.0629C17.5297 8.9203 16.7761 8.46583 16.1137 8.06654C15.5281 7.71326 14.9761 7.38023 14.8417 6.55959C14.5009 4.4767 12.3361 4.50246 11.9977 4.51902C11.6617 4.50246 9.5065 4.47854 9.1561 6.55774C9.0169 7.37838 8.4649 7.71143 7.8817 8.06471C7.2193 8.46583 6.4705 8.91846 6.7081 10.0629C7.1569 12.2029 11.8009 12.2286 11.9977 12.2286H12.0001ZM8.3281 8.49711C8.9353 8.12911 9.6937 7.67095 9.8713 6.62766C10.1137 5.19798 11.3425 5.06182 11.8009 5.06182C11.8753 5.06182 11.9305 5.0655 11.9569 5.06734C11.9857 5.06918 12.0145 5.06918 12.0433 5.06734C12.1153 5.05998 13.8481 4.9183 14.1289 6.62582C14.3017 7.67094 15.0601 8.1291 15.6697 8.49894C16.3201 8.8927 16.7521 9.15214 16.5793 9.97462C16.2265 11.6527 12.0409 11.6748 12.0001 11.6748C11.9593 11.6748 7.7713 11.6527 7.4209 9.97462C7.2481 9.1503 7.6777 8.89087 8.3305 8.49711H8.3281Z" fill="url(#paint2_linear_196_253)"/>
<path d="M6.50414 4.04053C5.53454 4.07917 4.83374 4.96973 4.91054 6.06453C4.98494 7.13541 5.76734 7.94869 6.70814 7.94869C6.72974 7.94869 6.75134 7.94869 6.77534 7.94869C7.74494 7.91005 8.44574 7.01949 8.36894 5.92469C8.33534 5.42605 8.13854 4.95869 7.82174 4.61093C7.46654 4.22453 7.00094 4.02029 6.50654 4.04237L6.50414 4.04053ZM5.62814 6.03509C5.57054 5.20893 6.06254 4.61093 6.54014 4.59253C6.54974 4.59253 6.55934 4.59253 6.56654 4.59253C6.87374 4.59253 7.11134 4.80045 7.22654 4.92741C7.46654 5.18869 7.61774 5.56221 7.64414 5.95413C7.70174 6.78029 7.20974 7.37829 6.73214 7.39853C6.25694 7.41693 5.68094 6.86309 5.62574 6.03693L5.62814 6.03509Z" fill="url(#paint3_linear_196_253)"/>
<path d="M9.59534 4.55394C9.61694 4.55394 9.64094 4.55394 9.66254 4.55394C10.1569 4.5337 10.5937 4.2945 10.8937 3.8805C11.1625 3.50882 11.2921 3.02858 11.2585 2.52994C11.2249 2.0313 11.0281 1.56394 10.7113 1.21618C10.3561 0.829784 9.89294 0.627384 9.39614 0.647624C8.90174 0.667864 8.46494 0.907064 8.16494 1.32106C7.89614 1.69274 7.76654 2.17298 7.80014 2.67162C7.83374 3.17026 8.03054 3.63762 8.34734 3.98538C8.68574 4.35522 9.12734 4.55578 9.59534 4.55578V4.55394ZM9.42974 1.19594C9.42974 1.19594 9.44894 1.19594 9.45614 1.19594C9.76334 1.19594 10.0009 1.40386 10.1185 1.53082C10.3585 1.7921 10.5097 2.16562 10.5361 2.55754C10.5625 2.94946 10.4641 3.33402 10.2625 3.61186C10.1617 3.7517 9.94334 3.98722 9.62414 4.0001C9.30254 4.01298 9.05534 3.79586 8.93534 3.66522C8.69774 3.40394 8.54414 3.03042 8.51774 2.6385C8.49134 2.24658 8.58974 1.86202 8.79134 1.58418C8.89214 1.44434 9.11054 1.20882 9.42974 1.19594Z" fill="url(#paint4_linear_196_253)"/>
<path d="M19.0897 6.06469C19.1665 4.96989 18.4657 4.07933 17.4961 4.04069C17.0017 4.02045 16.5337 4.22285 16.1809 4.60925C15.8617 4.95701 15.6673 5.42437 15.6337 5.92301C15.5569 7.01781 16.2577 7.90837 17.2273 7.94701C17.2489 7.94701 17.2705 7.94701 17.2945 7.94701C18.2353 7.94701 19.0177 7.13189 19.0921 6.06285L19.0897 6.06469ZM17.2633 7.39685C16.7857 7.37661 16.2937 6.78045 16.3513 5.95245C16.3777 5.56053 16.5313 5.18701 16.7689 4.92573C16.8889 4.79509 17.1361 4.57613 17.4577 4.59085C17.9353 4.61109 18.4273 5.20725 18.3697 6.03341C18.3121 6.85957 17.7433 7.41893 17.2633 7.39501V7.39685Z" fill="url(#paint5_linear_196_253)"/>
<path d="M14.3376 4.55212C14.3592 4.55212 14.3832 4.55212 14.4048 4.55212C14.8752 4.55212 15.3144 4.35156 15.6528 3.98172C15.972 3.63396 16.1664 3.1666 16.2 2.66796C16.2336 2.16932 16.1064 1.68908 15.8352 1.3174C15.5352 0.903402 15.0984 0.664202 14.604 0.643962C14.1096 0.623722 13.6416 0.826122 13.2888 1.21252C12.9696 1.56028 12.7752 2.02764 12.7416 2.52628C12.708 3.02492 12.8352 3.50516 13.1064 3.87684C13.4064 4.29084 13.8432 4.53004 14.3376 4.55028V4.55212ZM14.5416 1.19596C14.5416 1.19596 14.5608 1.19596 14.568 1.19596C14.8872 1.20884 15.1056 1.44436 15.2064 1.5842C15.408 1.86204 15.5088 2.2466 15.48 2.63852C15.4512 3.03044 15.3 3.40396 15.0624 3.66524C14.9424 3.79588 14.6904 4.013 14.3736 4.00012C14.0544 3.98724 13.836 3.75172 13.7352 3.61188C13.5336 3.33404 13.4328 2.94948 13.4616 2.55756C13.488 2.16564 13.6416 1.79212 13.8792 1.53084C13.9944 1.40388 14.2344 1.19596 14.5416 1.19596Z" fill="url(#paint6_linear_196_253)"/>
<path d="M3.5245 22.8767H2.7468C2.7326 22.7761 2.7036 22.6867 2.6598 22.6086C2.616 22.5293 2.55978 22.4618 2.49112 22.4062C2.42247 22.3505 2.34316 22.3079 2.2532 22.2783C2.16442 22.2487 2.06795 22.234 1.96378 22.234C1.77557 22.234 1.61162 22.2807 1.47195 22.3742C1.33227 22.4666 1.22396 22.6015 1.14702 22.7791C1.07008 22.9554 1.03161 23.1697 1.03161 23.4218C1.03161 23.681 1.07008 23.8988 1.14702 24.0752C1.22514 24.2516 1.33404 24.3848 1.47372 24.4747C1.6134 24.5647 1.77498 24.6097 1.95845 24.6097C2.06143 24.6097 2.15672 24.5961 2.24432 24.5688C2.3331 24.5416 2.41181 24.5019 2.48047 24.4499C2.54912 24.3966 2.60594 24.3321 2.65092 24.2563C2.69709 24.1806 2.72905 24.0942 2.7468 23.9971L3.5245 24.0006C3.50438 24.1675 3.45407 24.3285 3.37358 24.4836C3.29427 24.6375 3.18714 24.7754 3.0522 24.8973C2.91844 25.018 2.75864 25.1139 2.5728 25.1849C2.38814 25.2548 2.17921 25.2897 1.94602 25.2897C1.62169 25.2897 1.33168 25.2163 1.07599 25.0695C0.821496 24.9228 0.620265 24.7103 0.472301 24.4321C0.325521 24.1539 0.252131 23.8172 0.252131 23.4218C0.252131 23.0253 0.326705 22.6879 0.475852 22.4097C0.625 22.1316 0.827415 21.9197 1.0831 21.7741C1.33878 21.6273 1.62642 21.5539 1.94602 21.5539C2.15672 21.5539 2.35204 21.5835 2.53196 21.6427C2.71307 21.7019 2.87346 21.7883 3.01314 21.9019C3.15282 22.0144 3.26645 22.1523 3.35405 22.3156C3.44283 22.479 3.49964 22.666 3.5245 22.8767ZM4.06161 25.24V22.5127H4.79492V22.9886H4.82333C4.87305 22.8193 4.9565 22.6915 5.07369 22.605C5.19087 22.5175 5.32582 22.4737 5.47852 22.4737C5.51639 22.4737 5.55723 22.476 5.60103 22.4808C5.64483 22.4855 5.6833 22.492 5.71644 22.5003V23.1715C5.68093 23.1608 5.63181 23.1513 5.56907 23.143C5.50633 23.1348 5.44892 23.1306 5.39684 23.1306C5.28557 23.1306 5.18614 23.1549 5.09854 23.2034C5.01213 23.2508 4.94348 23.317 4.89258 23.4023C4.84286 23.4875 4.818 23.5858 4.818 23.697V25.24H4.06161ZM7.22346 25.2933C6.94292 25.2933 6.70144 25.2364 6.49902 25.1228C6.29779 25.008 6.14273 24.8458 6.03382 24.6363C5.92492 24.4256 5.87047 24.1764 5.87047 23.8888C5.87047 23.6082 5.92492 23.362 6.03382 23.1501C6.14273 22.9383 6.29602 22.7731 6.4937 22.6548C6.69256 22.5364 6.92575 22.4772 7.19327 22.4772C7.37319 22.4772 7.54069 22.5062 7.69576 22.5642C7.85201 22.621 7.98813 22.7068 8.10414 22.8217C8.22132 22.9365 8.31247 23.0809 8.37757 23.2549C8.44268 23.4277 8.47523 23.6301 8.47523 23.8621V24.0699H6.17232V23.6011H7.76323C7.76323 23.4922 7.73955 23.3958 7.69221 23.3117C7.64486 23.2277 7.57916 23.162 7.49512 23.1146C7.41226 23.0661 7.31578 23.0418 7.2057 23.0418C7.09088 23.0418 6.98908 23.0685 6.9003 23.1217C6.81271 23.1738 6.74405 23.2443 6.69434 23.333C6.64462 23.4206 6.61917 23.5183 6.61799 23.626V24.0717C6.61799 24.2066 6.64284 24.3232 6.69256 24.4215C6.74346 24.5197 6.81507 24.5955 6.9074 24.6487C6.99973 24.702 7.10923 24.7286 7.23588 24.7286C7.31993 24.7286 7.39687 24.7168 7.46671 24.6931C7.53655 24.6694 7.59632 24.6339 7.64604 24.5866C7.69576 24.5392 7.73364 24.4812 7.75968 24.4126L8.45925 24.4587C8.42374 24.6268 8.35094 24.7736 8.24086 24.8991C8.13195 25.0234 7.99109 25.1204 7.81827 25.1903C7.64663 25.2589 7.44836 25.2933 7.22346 25.2933ZM9.74654 25.2915C9.57253 25.2915 9.41747 25.2613 9.28134 25.2009C9.14521 25.1394 9.03749 25.0488 8.95819 24.9293C8.88006 24.8085 8.841 24.6582 8.841 24.4783C8.841 24.3268 8.86882 24.1995 8.92445 24.0965C8.98008 23.9935 9.05584 23.9107 9.15172 23.8479C9.2476 23.7852 9.3565 23.7379 9.47843 23.7059C9.60153 23.6739 9.73056 23.6514 9.8655 23.6384C10.0241 23.6219 10.152 23.6065 10.249 23.5923C10.3461 23.5769 10.4165 23.5544 10.4603 23.5248C10.5041 23.4952 10.526 23.4514 10.526 23.3934V23.3827C10.526 23.2703 10.4905 23.1833 10.4195 23.1217C10.3496 23.0602 10.2502 23.0294 10.1212 23.0294C9.98506 23.0294 9.87675 23.0596 9.79625 23.12C9.71576 23.1791 9.66249 23.2537 9.63645 23.3437L8.93688 23.2869C8.97239 23.1211 9.04223 22.9779 9.1464 22.8572C9.25056 22.7353 9.38491 22.6417 9.54945 22.5766C9.71517 22.5104 9.90693 22.4772 10.1247 22.4772C10.2762 22.4772 10.4213 22.495 10.5597 22.5305C10.6994 22.566 10.8231 22.621 10.9308 22.6956C11.0397 22.7702 11.1256 22.8661 11.1883 22.9832C11.251 23.0992 11.2824 23.2383 11.2824 23.4005V25.24H10.5651V24.8618H10.5438C10.5 24.947 10.4414 25.0222 10.368 25.0873C10.2946 25.1512 10.2064 25.2015 10.1034 25.2382C10.0004 25.2737 9.88148 25.2915 9.74654 25.2915ZM9.96316 24.7695C10.0744 24.7695 10.1727 24.7476 10.2579 24.7038C10.3431 24.6588 10.41 24.5984 10.4585 24.5227C10.5071 24.4469 10.5313 24.3611 10.5313 24.2652V23.9758C10.5077 23.9912 10.4751 24.0054 10.4337 24.0184C10.3934 24.0302 10.3479 24.0415 10.297 24.0521C10.2461 24.0616 10.1952 24.0705 10.1443 24.0788C10.0934 24.0859 10.0472 24.0924 10.0058 24.0983C9.91699 24.1113 9.83946 24.132 9.77317 24.1604C9.70688 24.1889 9.65539 24.2273 9.6187 24.2759C9.582 24.3232 9.56365 24.3824 9.56365 24.4534C9.56365 24.5564 9.60094 24.6351 9.67551 24.6896C9.75127 24.7428 9.84715 24.7695 9.96316 24.7695ZM1.75249 28.5127V29.0809H0.110085V28.5127H1.75249ZM0.482955 27.8593H1.23935V30.4019C1.23935 30.4718 1.25 30.5262 1.27131 30.5653C1.29261 30.6032 1.32221 30.6298 1.36009 30.6452C1.39915 30.6606 1.44413 30.6683 1.49503 30.6683C1.53054 30.6683 1.56605 30.6653 1.60156 30.6594C1.63707 30.6523 1.6643 30.647 1.68324 30.6434L1.8022 31.2063C1.76432 31.2181 1.71106 31.2317 1.6424 31.2471C1.57375 31.2637 1.49029 31.2737 1.39205 31.2773C1.20975 31.2844 1.04995 31.2601 0.912642 31.2045C0.776515 31.1488 0.670573 31.0624 0.594815 30.9452C0.519058 30.8281 0.481771 30.6801 0.482955 30.5014V27.8593ZM3.45881 31.2933C3.17827 31.2933 2.93679 31.2364 2.73438 31.1228C2.53314 31.008 2.37808 30.8458 2.26918 30.6363C2.16027 30.4256 2.10582 30.1764 2.10582 29.8888C2.10582 29.6082 2.16027 29.362 2.26918 29.1501C2.37808 28.9383 2.53137 28.7731 2.72905 28.6548C2.92791 28.5364 3.1611 28.4772 3.42862 28.4772C3.60855 28.4772 3.77604 28.5062 3.93111 28.5642C4.08736 28.621 4.22348 28.7068 4.33949 28.8217C4.45668 28.9365 4.54782 29.0809 4.61293 29.2549C4.67803 29.4277 4.71058 29.6301 4.71058 29.8621V30.0699H2.40767V29.6011H3.99858C3.99858 29.4922 3.97491 29.3958 3.92756 29.3117C3.88021 29.2277 3.81451 29.162 3.73047 29.1146C3.64761 29.0661 3.55114 29.0418 3.44105 29.0418C3.32623 29.0418 3.22443 29.0685 3.13565 29.1217C3.04806 29.1738 2.9794 29.2443 2.92969 29.333C2.87997 29.4206 2.85452 29.5183 2.85334 29.626V30.0717C2.85334 30.2066 2.8782 30.3232 2.92791 30.4215C2.97881 30.5197 3.05043 30.5955 3.14276 30.6487C3.23509 30.702 3.34458 30.7286 3.47124 30.7286C3.55528 30.7286 3.63222 30.7168 3.70206 30.6931C3.7719 30.6694 3.83168 30.6339 3.88139 30.5866C3.93111 30.5392 3.96899 30.4812 3.99503 30.4126L4.6946 30.4587C4.65909 30.6268 4.58629 30.7736 4.47621 30.8991C4.36731 31.0234 4.22644 31.1204 4.05362 31.1903C3.88198 31.2589 3.68371 31.2933 3.45881 31.2933ZM6.20916 31.2844C6.00201 31.2844 5.81439 31.2311 5.64631 31.1246C5.4794 31.0169 5.34683 30.8588 5.24858 30.6505C5.15152 30.441 5.10298 30.1841 5.10298 29.8799C5.10298 29.5674 5.15329 29.3076 5.25391 29.1004C5.35452 28.8921 5.48828 28.7364 5.65518 28.6335C5.82327 28.5293 6.00734 28.4772 6.20739 28.4772C6.36009 28.4772 6.48733 28.5032 6.58913 28.5553C6.69212 28.6062 6.77498 28.6702 6.83771 28.7471C6.90163 28.8229 6.95017 28.8974 6.98331 28.9708H7.00639V27.6036H7.76101V31.24H7.01527V30.8032H6.98331C6.9478 30.879 6.89749 30.9541 6.83239 31.0287C6.76847 31.1021 6.68501 31.163 6.58203 31.2116C6.48023 31.2601 6.35594 31.2844 6.20916 31.2844ZM6.44886 30.6825C6.57079 30.6825 6.67377 30.6493 6.75781 30.583C6.84304 30.5156 6.90814 30.4215 6.95312 30.3007C6.99929 30.18 7.02237 30.0385 7.02237 29.8764C7.02237 29.7142 6.99988 29.5733 6.9549 29.4538C6.90992 29.3342 6.84482 29.2419 6.75959 29.1768C6.67436 29.1117 6.57079 29.0791 6.44886 29.0791C6.32457 29.0791 6.21982 29.1129 6.13459 29.1803C6.04936 29.2478 5.98485 29.3413 5.94105 29.4609C5.89725 29.5804 5.87536 29.7189 5.87536 29.8764C5.87536 30.035 5.89725 30.1752 5.94105 30.2972C5.98603 30.4179 6.05054 30.5126 6.13459 30.5813C6.21982 30.6487 6.32457 30.6825 6.44886 30.6825ZM9.55433 31.24V27.6036H10.3107V28.9708H10.3338C10.367 28.8974 10.4149 28.8229 10.4776 28.7471C10.5415 28.6702 10.6244 28.6062 10.7262 28.5553C10.8292 28.5032 10.957 28.4772 11.1097 28.4772C11.3086 28.4772 11.4921 28.5293 11.6602 28.6335C11.8282 28.7364 11.9626 28.8921 12.0632 29.1004C12.1638 29.3076 12.2141 29.5674 12.2141 29.8799C12.2141 30.1841 12.165 30.441 12.0668 30.6505C11.9697 30.8588 11.8371 31.0169 11.669 31.1246C11.5021 31.2311 11.3151 31.2844 11.108 31.2844C10.9612 31.2844 10.8363 31.2601 10.7333 31.2116C10.6315 31.163 10.5481 31.1021 10.483 31.0287C10.4179 30.9541 10.3681 30.879 10.3338 30.8032H10.3001V31.24H9.55433ZM10.2947 29.8764C10.2947 30.0385 10.3172 30.18 10.3622 30.3007C10.4072 30.4215 10.4723 30.5156 10.5575 30.583C10.6428 30.6493 10.7463 30.6825 10.8683 30.6825C10.9914 30.6825 11.0955 30.6487 11.1808 30.5813C11.266 30.5126 11.3305 30.4179 11.3743 30.2972C11.4193 30.1752 11.4418 30.035 11.4418 29.8764C11.4418 29.7189 11.4199 29.5804 11.3761 29.4609C11.3323 29.3413 11.2678 29.2478 11.1825 29.1803C11.0973 29.1129 10.9925 29.0791 10.8683 29.0791C10.7451 29.0791 10.641 29.1117 10.5558 29.1768C10.4717 29.2419 10.4072 29.3342 10.3622 29.4538C10.3172 29.5733 10.2947 29.7142 10.2947 29.8764ZM13.0979 32.2627C13.002 32.2627 12.9121 32.255 12.828 32.2396C12.7452 32.2254 12.6765 32.2071 12.6221 32.1846L12.7925 31.62C12.8813 31.6472 12.9612 31.662 13.0322 31.6644C13.1044 31.6667 13.1666 31.6501 13.2187 31.6146C13.2719 31.5791 13.3151 31.5188 13.3483 31.4335L13.3927 31.3181L12.4143 28.5127H13.2098L13.7744 30.5156H13.8028L14.3728 28.5127H15.1736L14.1135 31.5347C14.0626 31.6815 13.9934 31.8094 13.9058 31.9183C13.8194 32.0283 13.7099 32.113 13.5773 32.1722C13.4448 32.2325 13.2849 32.2627 13.0979 32.2627ZM0.316051 37.24V33.6036H1.08487V36.6061H2.64382V37.24H0.316051ZM3.91646 37.2915C3.74245 37.2915 3.58739 37.2613 3.45126 37.2009C3.31513 37.1394 3.20742 37.0488 3.12811 36.9293C3.04998 36.8085 3.01092 36.6582 3.01092 36.4783C3.01092 36.3268 3.03874 36.1995 3.09437 36.0965C3.15001 35.9935 3.22576 35.9107 3.32164 35.8479C3.41752 35.7852 3.52643 35.7379 3.64835 35.7059C3.77145 35.6739 3.90048 35.6514 4.03542 35.6384C4.19404 35.6219 4.32188 35.6065 4.41895 35.5923C4.51601 35.5769 4.58644 35.5544 4.63024 35.5248C4.67404 35.4952 4.69593 35.4514 4.69593 35.3934V35.3827C4.69593 35.2703 4.66042 35.1833 4.5894 35.1217C4.51956 35.0602 4.42013 35.0294 4.2911 35.0294C4.15498 35.0294 4.04667 35.0596 3.96618 35.12C3.88568 35.1791 3.83242 35.2537 3.80637 35.3437L3.1068 35.2869C3.14231 35.1211 3.21215 34.9779 3.31632 34.8572C3.42048 34.7353 3.55484 34.6417 3.71937 34.5766C3.88509 34.5104 4.07685 34.4772 4.29466 34.4772C4.44617 34.4772 4.59118 34.495 4.72967 34.5305C4.86935 34.566 4.99305 34.621 5.10076 34.6956C5.20967 34.7702 5.29548 34.8661 5.35822 34.9832C5.42096 35.0992 5.45233 35.2383 5.45233 35.4005V37.24H4.735V36.8618H4.71369C4.66989 36.947 4.6113 37.0222 4.53791 37.0873C4.46452 37.1512 4.37633 37.2015 4.27335 37.2382C4.17037 37.2737 4.0514 37.2915 3.91646 37.2915ZM4.13308 36.7695C4.24435 36.7695 4.3426 36.7476 4.42782 36.7038C4.51305 36.6588 4.57993 36.5984 4.62846 36.5227C4.67699 36.4469 4.70126 36.3611 4.70126 36.2652V35.9758C4.67759 35.9912 4.64503 36.0054 4.6036 36.0184C4.56336 36.0302 4.51779 36.0415 4.46689 36.0521C4.41599 36.0616 4.36509 36.0705 4.31419 36.0788C4.26329 36.0859 4.21712 36.0924 4.17569 36.0983C4.08691 36.1113 4.00938 36.132 3.94309 36.1604C3.87681 36.1889 3.82531 36.2273 3.78862 36.2759C3.75192 36.3232 3.73358 36.3824 3.73358 36.4534C3.73358 36.5564 3.77086 36.6351 3.84544 36.6896C3.92119 36.7428 4.01708 36.7695 4.13308 36.7695ZM6.03915 37.24V34.5127H6.77246V34.9886H6.80087C6.85059 34.8193 6.93404 34.6915 7.05123 34.605C7.16841 34.5175 7.30336 34.4737 7.45605 34.4737C7.49393 34.4737 7.53477 34.476 7.57857 34.4808C7.62237 34.4855 7.66084 34.492 7.69398 34.5003V35.1715C7.65847 35.1608 7.60935 35.1513 7.54661 35.143C7.48387 35.1348 7.42646 35.1306 7.37438 35.1306C7.26311 35.1306 7.16368 35.1549 7.07608 35.2034C6.98967 35.2508 6.92102 35.317 6.87012 35.4023C6.8204 35.4875 6.79554 35.5858 6.79554 35.697V37.24H6.03915ZM10.3542 35.2904L9.66175 35.333C9.64992 35.2738 9.62447 35.2206 9.5854 35.1732C9.54634 35.1247 9.49485 35.0862 9.43093 35.0578C9.36819 35.0282 9.29303 35.0134 9.20543 35.0134C9.08825 35.0134 8.98941 35.0383 8.90891 35.088C8.82842 35.1365 8.78817 35.2016 8.78817 35.2833C8.78817 35.3484 8.81422 35.4035 8.8663 35.4484C8.91838 35.4934 9.00775 35.5295 9.13441 35.5568L9.62802 35.6562C9.89317 35.7106 10.0908 35.7982 10.2211 35.919C10.3513 36.0397 10.4164 36.1983 10.4164 36.3948C10.4164 36.5736 10.3637 36.7304 10.2583 36.8653C10.1542 37.0003 10.0109 37.1056 9.82866 37.1814C9.64755 37.256 9.43862 37.2933 9.20188 37.2933C8.84085 37.2933 8.55321 37.2181 8.33896 37.0678C8.12589 36.9162 8.00101 36.7103 7.96431 36.4499L8.70827 36.4108C8.73076 36.5209 8.78522 36.6049 8.87163 36.6629C8.95804 36.7197 9.06871 36.7482 9.20366 36.7482C9.33623 36.7482 9.44277 36.7227 9.52326 36.6718C9.60494 36.6197 9.64637 36.5528 9.64755 36.4712C9.64637 36.4025 9.61737 36.3463 9.56055 36.3025C9.50373 36.2575 9.41613 36.2232 9.29776 36.1995L8.82546 36.1054C8.55913 36.0521 8.36085 35.9598 8.23065 35.8284C8.10162 35.697 8.03711 35.5295 8.03711 35.3259C8.03711 35.1507 8.08446 34.9998 8.17915 34.8732C8.27504 34.7465 8.40939 34.6488 8.58221 34.5802C8.75621 34.5115 8.95981 34.4772 9.193 34.4772C9.53746 34.4772 9.80853 34.55 10.0062 34.6956C10.2051 34.8412 10.3211 35.0395 10.3542 35.2904ZM0.316051 39.6036H1.2642L2.26562 42.0468H2.30824L3.30966 39.6036H4.25781V43.24H3.51207V40.8732H3.48189L2.54084 43.2222H2.03303L1.09197 40.8643H1.06179V43.24H0.316051V39.6036ZM6.11994 43.2933C5.8394 43.2933 5.59792 43.2364 5.39551 43.1228C5.19428 43.008 5.03921 42.8458 4.93031 42.6363C4.82141 42.4256 4.76696 42.1764 4.76696 41.8888C4.76696 41.6082 4.82141 41.362 4.93031 41.1501C5.03921 40.9383 5.1925 40.7731 5.39018 40.6548C5.58904 40.5364 5.82224 40.4772 6.08975 40.4772C6.26968 40.4772 6.43717 40.5062 6.59224 40.5642C6.74849 40.621 6.88462 40.7068 7.00062 40.8217C7.11781 40.9365 7.20895 41.0809 7.27406 41.2549C7.33916 41.4277 7.37172 41.6301 7.37172 41.8621V42.0699H5.0688V41.6011H6.65971C6.65971 41.4922 6.63604 41.3958 6.58869 41.3117C6.54134 41.2277 6.47565 41.162 6.3916 41.1146C6.30874 41.0661 6.21227 41.0418 6.10218 41.0418C5.98736 41.0418 5.88556 41.0685 5.79679 41.1217C5.70919 41.1738 5.64054 41.2443 5.59082 41.333C5.5411 41.4206 5.51565 41.5183 5.51447 41.626V42.0717C5.51447 42.2066 5.53933 42.3232 5.58904 42.4215C5.63994 42.5197 5.71156 42.5955 5.80389 42.6487C5.89622 42.702 6.00571 42.7286 6.13237 42.7286C6.21641 42.7286 6.29335 42.7168 6.36319 42.6931C6.43303 42.6694 6.49281 42.6339 6.54252 42.5866C6.59224 42.5392 6.63012 42.4812 6.65616 42.4126L7.35574 42.4587C7.32022 42.6268 7.24743 42.7736 7.13734 42.8991C7.02844 43.0234 6.88758 43.1204 6.71475 43.1903C6.54312 43.2589 6.34484 43.2933 6.11994 43.2933ZM7.86532 43.24V40.5127H8.62172V43.24H7.86532ZM8.24529 40.1612C8.13284 40.1612 8.03637 40.1239 7.95588 40.0493C7.87657 39.9735 7.83691 39.883 7.83691 39.7776C7.83691 39.6735 7.87657 39.5841 7.95588 39.5095C8.03637 39.4338 8.13284 39.3959 8.24529 39.3959C8.35775 39.3959 8.45363 39.4338 8.53294 39.5095C8.61343 39.5841 8.65368 39.6735 8.65368 39.7776C8.65368 39.883 8.61343 39.9735 8.53294 40.0493C8.45363 40.1239 8.35775 40.1612 8.24529 40.1612ZM10.4705 43.2933C10.19 43.2933 9.94851 43.2364 9.74609 43.1228C9.54486 43.008 9.3898 42.8458 9.28089 42.6363C9.17199 42.4256 9.11754 42.1764 9.11754 41.8888C9.11754 41.6082 9.17199 41.362 9.28089 41.1501C9.3898 40.9383 9.54309 40.7731 9.74077 40.6548C9.93963 40.5364 10.1728 40.4772 10.4403 40.4772C10.6203 40.4772 10.7878 40.5062 10.9428 40.5642C11.0991 40.621 11.2352 40.7068 11.3512 40.8217C11.4684 40.9365 11.5595 41.0809 11.6246 41.2549C11.6897 41.4277 11.7223 41.6301 11.7223 41.8621V42.0699H9.41939V41.6011H11.0103C11.0103 41.4922 10.9866 41.3958 10.9393 41.3117C10.8919 41.2277 10.8262 41.162 10.7422 41.1146C10.6593 41.0661 10.5629 41.0418 10.4528 41.0418C10.3379 41.0418 10.2362 41.0685 10.1474 41.1217C10.0598 41.1738 9.99112 41.2443 9.94141 41.333C9.89169 41.4206 9.86624 41.5183 9.86506 41.626V42.0717C9.86506 42.2066 9.88991 42.3232 9.93963 42.4215C9.99053 42.5197 10.0621 42.5955 10.1545 42.6487C10.2468 42.702 10.3563 42.7286 10.483 42.7286C10.567 42.7286 10.6439 42.7168 10.7138 42.6931C10.7836 42.6694 10.8434 42.6339 10.8931 42.5866C10.9428 42.5392 10.9807 42.4812 11.0067 42.4126L11.7063 42.4587C11.6708 42.6268 11.598 42.7736 11.4879 42.8991C11.379 43.0234 11.2382 43.1204 11.0653 43.1903C10.8937 43.2589 10.6954 43.2933 10.4705 43.2933ZM12.2159 43.24V40.5127H12.9492V40.9886H12.9776C13.0273 40.8193 13.1108 40.6915 13.228 40.605C13.3452 40.5175 13.4801 40.4737 13.6328 40.4737C13.6707 40.4737 13.7115 40.476 13.7553 40.4808C13.7991 40.4855 13.8376 40.492 13.8707 40.5003V41.1715C13.8352 41.1608 13.7861 41.1513 13.7234 41.143C13.6606 41.1348 13.6032 41.1306 13.5511 41.1306C13.4399 41.1306 13.3404 41.1549 13.2528 41.2034C13.1664 41.2508 13.0978 41.317 13.0469 41.4023C12.9972 41.4875 12.9723 41.5858 12.9723 41.697V43.24H12.2159ZM15.8492 40.5127V41.0809H14.2068V40.5127H15.8492ZM14.5796 39.8593H15.336V42.4019C15.336 42.4718 15.3467 42.5262 15.368 42.5653C15.3893 42.6032 15.4189 42.6298 15.4568 42.6452C15.4958 42.6606 15.5408 42.6683 15.5917 42.6683C15.6272 42.6683 15.6627 42.6653 15.6982 42.6594C15.7338 42.6523 15.761 42.647 15.7799 42.6434L15.8989 43.2063C15.861 43.2181 15.8077 43.2317 15.7391 43.2471C15.6704 43.2637 15.587 43.2737 15.4887 43.2773C15.3064 43.2844 15.1466 43.2601 15.0093 43.2045C14.8732 43.1488 14.7673 43.0624 14.6915 42.9452C14.6157 42.8281 14.5785 42.6801 14.5796 42.5014V39.8593ZM1.53409 49.2933C1.25829 49.2933 1.01977 49.2347 0.818537 49.1175C0.61849 48.9991 0.464015 48.8346 0.355114 48.6239C0.246212 48.412 0.191761 48.1664 0.191761 47.887C0.191761 47.6053 0.246212 47.3591 0.355114 47.1484C0.464015 46.9365 0.61849 46.772 0.818537 46.6548C1.01977 46.5364 1.25829 46.4772 1.53409 46.4772C1.8099 46.4772 2.04782 46.5364 2.24787 46.6548C2.4491 46.772 2.60417 46.9365 2.71307 47.1484C2.82197 47.3591 2.87642 47.6053 2.87642 47.887C2.87642 48.1664 2.82197 48.412 2.71307 48.6239C2.60417 48.8346 2.4491 48.9991 2.24787 49.1175C2.04782 49.2347 1.8099 49.2933 1.53409 49.2933ZM1.53764 48.7073C1.66312 48.7073 1.76787 48.6718 1.85192 48.6008C1.93596 48.5286 1.99929 48.4303 2.0419 48.306C2.0857 48.1818 2.1076 48.0403 2.1076 47.8817C2.1076 47.7231 2.0857 47.5816 2.0419 47.4573C1.99929 47.333 1.93596 47.2348 1.85192 47.1626C1.76787 47.0904 1.66312 47.0543 1.53764 47.0543C1.41098 47.0543 1.30445 47.0904 1.21804 47.1626C1.13281 47.2348 1.0683 47.333 1.0245 47.4573C0.981889 47.5816 0.960582 47.7231 0.960582 47.8817C0.960582 48.0403 0.981889 48.1818 1.0245 48.306C1.0683 48.4303 1.13281 48.5286 1.21804 48.6008C1.30445 48.6718 1.41098 48.7073 1.53764 48.7073ZM3.38246 49.24V45.6036H4.13885V46.9708H4.16193C4.19508 46.8974 4.24302 46.8229 4.30575 46.7471C4.36967 46.6702 4.45253 46.6062 4.55433 46.5553C4.65732 46.5032 4.78516 46.4772 4.93786 46.4772C5.13672 46.4772 5.32019 46.5293 5.48828 46.6335C5.65637 46.7364 5.79072 46.8921 5.89134 47.1004C5.99195 47.3076 6.04226 47.5674 6.04226 47.8799C6.04226 48.1841 5.99313 48.441 5.89489 48.6505C5.79782 48.8588 5.66525 49.0169 5.49716 49.1246C5.33026 49.2311 5.14323 49.2844 4.93608 49.2844C4.7893 49.2844 4.66442 49.2601 4.56143 49.2116C4.45964 49.163 4.37618 49.1021 4.31108 49.0287C4.24598 48.9541 4.19626 48.879 4.16193 48.8032H4.1282V49.24H3.38246ZM4.12287 47.8764C4.12287 48.0385 4.14536 48.18 4.19034 48.3007C4.23532 48.4215 4.30043 48.5156 4.38565 48.583C4.47088 48.6493 4.57446 48.6825 4.69638 48.6825C4.81948 48.6825 4.92365 48.6487 5.00888 48.5813C5.09411 48.5126 5.15862 48.4179 5.20241 48.2972C5.2474 48.1752 5.26989 48.035 5.26989 47.8764C5.26989 47.7189 5.24799 47.5804 5.20419 47.4609C5.16039 47.3413 5.09588 47.2478 5.01065 47.1803C4.92543 47.1129 4.82067 47.0791 4.69638 47.0791C4.57327 47.0791 4.46911 47.1117 4.38388 47.1768C4.29983 47.2419 4.23532 47.3342 4.19034 47.4538C4.14536 47.5733 4.12287 47.7142 4.12287 47.8764ZM7.78986 49.2933C7.50932 49.2933 7.26784 49.2364 7.06543 49.1228C6.8642 49.008 6.70913 48.8458 6.60023 48.6363C6.49133 48.4256 6.43688 48.1764 6.43688 47.8888C6.43688 47.6082 6.49133 47.362 6.60023 47.1501C6.70913 46.9383 6.86242 46.7731 7.0601 46.6548C7.25897 46.5364 7.49216 46.4772 7.75968 46.4772C7.9396 46.4772 8.1071 46.5062 8.26216 46.5642C8.41841 46.621 8.55454 46.7068 8.67054 46.8217C8.78773 46.9365 8.87888 47.0809 8.94398 47.2549C9.00909 47.4277 9.04164 47.6301 9.04164 47.8621V48.0699H6.73873V47.6011H8.32963C8.32963 47.4922 8.30596 47.3958 8.25861 47.3117C8.21126 47.2277 8.14557 47.162 8.06152 47.1146C7.97866 47.0661 7.88219 47.0418 7.77211 47.0418C7.65729 47.0418 7.55549 47.0685 7.46671 47.1217C7.37911 47.1738 7.31046 47.2443 7.26074 47.333C7.21103 47.4206 7.18558 47.5183 7.18439 47.626V48.0717C7.18439 48.2066 7.20925 48.3232 7.25897 48.4215C7.30987 48.5197 7.38148 48.5955 7.47381 48.6487C7.56614 48.702 7.67563 48.7286 7.80229 48.7286C7.88633 48.7286 7.96328 48.7168 8.03311 48.6931C8.10295 48.6694 8.16273 48.6339 8.21245 48.5866C8.26216 48.5392 8.30004 48.4812 8.32608 48.4126L9.02566 48.4587C8.99015 48.6268 8.91735 48.7736 8.80726 48.8991C8.69836 49.0234 8.5575 49.1204 8.38468 49.1903C8.21304 49.2589 8.01477 49.2933 7.78986 49.2933ZM9.53525 49.24V46.5127H10.2686V46.9886H10.297C10.3467 46.8193 10.4301 46.6915 10.5473 46.605C10.6645 46.5175 10.7994 46.4737 10.9521 46.4737C10.99 46.4737 11.0309 46.476 11.0747 46.4808C11.1185 46.4855 11.1569 46.492 11.1901 46.5003V47.1715C11.1546 47.1608 11.1054 47.1513 11.0427 47.143C10.98 47.1348 10.9226 47.1306 10.8705 47.1306C10.7592 47.1306 10.6598 47.1549 10.5722 47.2034C10.4858 47.2508 10.4171 47.317 10.3662 47.4023C10.3165 47.4875 10.2916 47.5858 10.2916 47.697V49.24H9.53525ZM1.54474 55.2933C1.2642 55.2933 1.02273 55.2364 0.820312 55.1228C0.619081 55.008 0.464015 54.8458 0.355114 54.6363C0.246212 54.4256 0.191761 54.1764 0.191761 53.8888C0.191761 53.6082 0.246212 53.362 0.355114 53.1501C0.464015 52.9383 0.617306 52.7731 0.814986 52.6548C1.01385 52.5364 1.24704 52.4772 1.51456 52.4772C1.69448 52.4772 1.86198 52.5062 2.01705 52.5642C2.1733 52.621 2.30942 52.7068 2.42543 52.8217C2.54261 52.9365 2.63376 53.0809 2.69886 53.2549C2.76397 53.4277 2.79652 53.6301 2.79652 53.8621V54.0699H0.493608V53.6011H2.08452C2.08452 53.4922 2.06084 53.3958 2.01349 53.3117C1.96615 53.2277 1.90045 53.162 1.81641 53.1146C1.73355 53.0661 1.63707 53.0418 1.52699 53.0418C1.41217 53.0418 1.31037 53.0685 1.22159 53.1217C1.134 53.1738 1.06534 53.2443 1.01562 53.333C0.965909 53.4206 0.940459 53.5183 0.939276 53.626V54.0717C0.939276 54.2066 0.964134 54.3232 1.01385 54.4215C1.06475 54.5197 1.13636 54.5955 1.22869 54.6487C1.32102 54.702 1.43052 54.7286 1.55717 54.7286C1.64122 54.7286 1.71816 54.7168 1.788 54.6931C1.85784 54.6694 1.91761 54.6339 1.96733 54.5866C2.01705 54.5392 2.05492 54.4812 2.08097 54.4126L2.78054 54.4587C2.74503 54.6268 2.67223 54.7736 2.56214 54.8991C2.45324 55.0234 2.31238 55.1204 2.13956 55.1903C1.96792 55.2589 1.76965 55.2933 1.54474 55.2933ZM4.04652 53.6633V55.24H3.29013V52.5127H4.01101V52.9939H4.04297C4.10334 52.8353 4.20455 52.7098 4.34659 52.6175C4.48864 52.524 4.66087 52.4772 4.86328 52.4772C5.05268 52.4772 5.2178 52.5186 5.35866 52.6015C5.49953 52.6844 5.60902 52.8027 5.68714 52.9566C5.76527 53.1093 5.80433 53.2916 5.80433 53.5035V55.24H5.04794V53.6384C5.04912 53.4715 5.00651 53.3413 4.9201 53.2478C4.83369 53.1531 4.71473 53.1058 4.56321 53.1058C4.46141 53.1058 4.37145 53.1277 4.29332 53.1715C4.21638 53.2153 4.15601 53.2792 4.11222 53.3632C4.0696 53.4461 4.0477 53.5461 4.04652 53.6633ZM8.66966 53.2904L7.97718 53.333C7.96535 53.2738 7.9399 53.2206 7.90083 53.1732C7.86177 53.1247 7.81028 53.0862 7.74636 53.0578C7.68362 53.0282 7.60846 53.0134 7.52086 53.0134C7.40368 53.0134 7.30484 53.0383 7.22434 53.088C7.14385 53.1365 7.1036 53.2016 7.1036 53.2833C7.1036 53.3484 7.12965 53.4035 7.18173 53.4484C7.23381 53.4934 7.32318 53.5295 7.44984 53.5568L7.94345 53.6562C8.2086 53.7106 8.40628 53.7982 8.53649 53.919C8.6667 54.0397 8.7318 54.1983 8.7318 54.3948C8.7318 54.5736 8.67913 54.7304 8.57377 54.8653C8.46961 55.0003 8.32638 55.1056 8.14409 55.1814C7.96298 55.256 7.75405 55.2933 7.51731 55.2933C7.15628 55.2933 6.86864 55.2181 6.65439 55.0678C6.44132 54.9162 6.31644 54.7103 6.27974 54.4499L7.0237 54.4108C7.04619 54.5209 7.10065 54.6049 7.18706 54.6629C7.27347 54.7197 7.38414 54.7482 7.51909 54.7482C7.65166 54.7482 7.7582 54.7227 7.83869 54.6718C7.92037 54.6197 7.9618 54.5528 7.96298 54.4712C7.9618 54.4025 7.93279 54.3463 7.87598 54.3025C7.81916 54.2575 7.73156 54.2232 7.61319 54.1995L7.14089 54.1054C6.87456 54.0521 6.67628 53.9598 6.54608 53.8284C6.41705 53.697 6.35254 53.5295 6.35254 53.3259C6.35254 53.1507 6.39989 52.9998 6.49458 52.8732C6.59047 52.7465 6.72482 52.6488 6.89764 52.5802C7.07164 52.5115 7.27524 52.4772 7.50843 52.4772C7.85289 52.4772 8.12396 52.55 8.32164 52.6956C8.52051 52.8412 8.63651 53.0395 8.66966 53.2904Z" fill="url(#paint7_linear_196_253)"/>
<path d="M1.76847 23.4326V24.0008H0.0852273V23.4326H1.76847ZM0.470526 26.1599V23.2356C0.470526 23.0379 0.508996 22.8739 0.585938 22.7437C0.664062 22.6135 0.770597 22.5159 0.90554 22.4507C1.04048 22.3856 1.19377 22.3531 1.36541 22.3531C1.48142 22.3531 1.58736 22.362 1.68324 22.3797C1.7803 22.3975 1.85251 22.4135 1.89986 22.4277L1.76491 22.9958C1.73532 22.9864 1.69863 22.9775 1.65483 22.9692C1.61222 22.9609 1.56842 22.9568 1.52344 22.9568C1.41217 22.9568 1.33464 22.9828 1.29084 23.0349C1.24704 23.0858 1.22514 23.1574 1.22514 23.2498V26.1599H0.470526ZM2.23056 26.1599V23.4326H2.96387V23.9085H2.99228C3.04199 23.7392 3.12544 23.6114 3.24263 23.525C3.35982 23.4374 3.49476 23.3936 3.64746 23.3936C3.68534 23.3936 3.72618 23.3959 3.76998 23.4007C3.81377 23.4054 3.85224 23.4119 3.88539 23.4202V24.0914C3.84988 24.0807 3.80075 24.0713 3.73801 24.063C3.67528 24.0547 3.61787 24.0505 3.56578 24.0505C3.45452 24.0505 3.35508 24.0748 3.26749 24.1233C3.18108 24.1707 3.11242 24.237 3.06152 24.3222C3.01181 24.4074 2.98695 24.5057 2.98695 24.6169V26.1599H2.23056ZM5.38175 26.2132C5.10594 26.2132 4.86742 26.1546 4.66619 26.0374C4.46615 25.919 4.31167 25.7545 4.20277 25.5438C4.09387 25.3319 4.03942 25.0863 4.03942 24.8069C4.03942 24.5252 4.09387 24.279 4.20277 24.0683C4.31167 23.8564 4.46615 23.6919 4.66619 23.5747C4.86742 23.4563 5.10594 23.3971 5.38175 23.3971C5.65755 23.3971 5.89548 23.4563 6.09553 23.5747C6.29676 23.6919 6.45182 23.8564 6.56072 24.0683C6.66963 24.279 6.72408 24.5252 6.72408 24.8069C6.72408 25.0863 6.66963 25.3319 6.56072 25.5438C6.45182 25.7545 6.29676 25.919 6.09553 26.0374C5.89548 26.1546 5.65755 26.2132 5.38175 26.2132ZM5.3853 25.6272C5.51077 25.6272 5.61553 25.5917 5.69957 25.5207C5.78362 25.4485 5.84695 25.3503 5.88956 25.226C5.93336 25.1017 5.95526 24.9602 5.95526 24.8016C5.95526 24.643 5.93336 24.5015 5.88956 24.3772C5.84695 24.253 5.78362 24.1547 5.69957 24.0825C5.61553 24.0103 5.51077 23.9742 5.3853 23.9742C5.25864 23.9742 5.15211 24.0103 5.0657 24.0825C4.98047 24.1547 4.91596 24.253 4.87216 24.3772C4.82955 24.5015 4.80824 24.643 4.80824 24.8016C4.80824 24.9602 4.82955 25.1017 4.87216 25.226C4.91596 25.3503 4.98047 25.4485 5.0657 25.5207C5.15211 25.5917 5.25864 25.6272 5.3853 25.6272ZM7.21591 26.1599V23.4326H7.93679V23.9138H7.96875C8.02557 23.754 8.12027 23.628 8.25284 23.5356C8.38542 23.4433 8.54403 23.3971 8.72869 23.3971C8.91572 23.3971 9.07493 23.4439 9.20632 23.5374C9.33771 23.6297 9.42531 23.7552 9.46911 23.9138H9.49751C9.55315 23.7576 9.65376 23.6327 9.79936 23.5392C9.94614 23.4445 10.1196 23.3971 10.3196 23.3971C10.5741 23.3971 10.7807 23.4782 10.9393 23.6404C11.0991 23.8014 11.179 24.0298 11.179 24.3258V26.1599H10.4244V24.4749C10.4244 24.3234 10.3841 24.2097 10.3036 24.134C10.2231 24.0582 10.1225 24.0204 10.0018 24.0204C9.86446 24.0204 9.75734 24.0641 9.6804 24.1517C9.60346 24.2382 9.56499 24.3524 9.56499 24.4944V26.1599H8.83168V24.4589C8.83168 24.3252 8.79321 24.2186 8.71626 24.1393C8.64051 24.06 8.54048 24.0204 8.41619 24.0204C8.33215 24.0204 8.25639 24.0417 8.18892 24.0843C8.12263 24.1257 8.06996 24.1843 8.03089 24.2601C7.99183 24.3346 7.9723 24.4222 7.9723 24.5228V26.1599H7.21591ZM1.75249 29.4326V30.0008H0.110085V29.4326H1.75249ZM0.482955 28.7792H1.23935V31.3218C1.23935 31.3917 1.25 31.4461 1.27131 31.4852C1.29261 31.5231 1.32221 31.5497 1.36009 31.5651C1.39915 31.5805 1.44413 31.5882 1.49503 31.5882C1.53054 31.5882 1.56605 31.5852 1.60156 31.5793C1.63707 31.5722 1.6643 31.5669 1.68324 31.5633L1.8022 32.1262C1.76432 32.138 1.71106 32.1516 1.6424 32.167C1.57375 32.1836 1.49029 32.1936 1.39205 32.1972C1.20975 32.2043 1.04995 32.18 0.912642 32.1244C0.776515 32.0688 0.670573 31.9824 0.594815 31.8652C0.519058 31.748 0.481771 31.6 0.482955 31.4213V28.7792ZM3.06019 30.5832V32.1599H2.3038V28.5235H3.03888V29.9138H3.07085C3.1324 29.7528 3.23183 29.6268 3.36914 29.5356C3.50645 29.4433 3.67868 29.3971 3.88583 29.3971C4.07522 29.3971 4.24035 29.4386 4.38121 29.5214C4.52326 29.6031 4.63335 29.7209 4.71147 29.8748C4.79078 30.0275 4.82984 30.2103 4.82866 30.4234V32.1599H4.07227V30.5583C4.07345 30.3903 4.03084 30.2595 3.94442 30.1659C3.8592 30.0724 3.73964 30.0257 3.58576 30.0257C3.48278 30.0257 3.39163 30.0476 3.31232 30.0914C3.2342 30.1352 3.17264 30.1991 3.12766 30.2831C3.08387 30.366 3.06138 30.466 3.06019 30.5832ZM6.66681 32.2132C6.38627 32.2132 6.1448 32.1564 5.94238 32.0427C5.74115 31.9279 5.58609 31.7657 5.47718 31.5562C5.36828 31.3455 5.31383 31.0963 5.31383 30.8087C5.31383 30.5282 5.36828 30.282 5.47718 30.0701C5.58609 29.8582 5.73938 29.6931 5.93706 29.5747C6.13592 29.4563 6.36911 29.3971 6.63663 29.3971C6.81655 29.3971 6.98405 29.4261 7.13912 29.4841C7.29537 29.5409 7.43149 29.6268 7.5475 29.7416C7.66468 29.8564 7.75583 30.0008 7.82093 30.1748C7.88604 30.3476 7.91859 30.5501 7.91859 30.7821V30.9898H5.61568V30.5211H7.20659C7.20659 30.4122 7.18291 30.3157 7.13556 30.2316C7.08822 30.1476 7.02252 30.0819 6.93848 30.0346C6.85562 29.986 6.75914 29.9618 6.64906 29.9618C6.53424 29.9618 6.43244 29.9884 6.34366 30.0417C6.25607 30.0937 6.18741 30.1642 6.1377 30.253C6.08798 30.3405 6.06253 30.4382 6.06135 30.5459V30.9916C6.06135 31.1265 6.0862 31.2431 6.13592 31.3414C6.18682 31.4396 6.25843 31.5154 6.35076 31.5686C6.44309 31.6219 6.55259 31.6485 6.67924 31.6485C6.76329 31.6485 6.84023 31.6367 6.91007 31.613C6.97991 31.5894 7.03968 31.5539 7.0894 31.5065C7.13912 31.4592 7.17699 31.4012 7.20304 31.3325L7.90261 31.3787C7.8671 31.5467 7.7943 31.6935 7.68422 31.819C7.57531 31.9433 7.43445 32.0404 7.26163 32.1102C7.08999 32.1789 6.89172 32.2132 6.66681 32.2132ZM3.3576 34.5235V38.1599H2.69354L1.11151 35.8712H1.08487V38.1599H0.316051V34.5235H0.990767L2.56037 36.8105H2.59233V34.5235H3.3576ZM5.21085 38.2132C4.93504 38.2132 4.69653 38.1546 4.49529 38.0374C4.29525 37.919 4.14077 37.7545 4.03187 37.5438C3.92297 37.3319 3.86852 37.0863 3.86852 36.8069C3.86852 36.5252 3.92297 36.279 4.03187 36.0683C4.14077 35.8564 4.29525 35.6919 4.49529 35.5747C4.69653 35.4563 4.93504 35.3971 5.21085 35.3971C5.48665 35.3971 5.72458 35.4563 5.92463 35.5747C6.12586 35.6919 6.28092 35.8564 6.38983 36.0683C6.49873 36.279 6.55318 36.5252 6.55318 36.8069C6.55318 37.0863 6.49873 37.3319 6.38983 37.5438C6.28092 37.7545 6.12586 37.919 5.92463 38.0374C5.72458 38.1546 5.48665 38.2132 5.21085 38.2132ZM5.2144 37.6272C5.33987 37.6272 5.44463 37.5917 5.52868 37.5207C5.61272 37.4485 5.67605 37.3503 5.71866 37.226C5.76246 37.1017 5.78436 36.9602 5.78436 36.8016C5.78436 36.643 5.76246 36.5015 5.71866 36.3772C5.67605 36.253 5.61272 36.1547 5.52868 36.0825C5.44463 36.0103 5.33987 35.9742 5.2144 35.9742C5.08774 35.9742 4.98121 36.0103 4.8948 36.0825C4.80957 36.1547 4.74506 36.253 4.70126 36.3772C4.65865 36.5015 4.63734 36.643 4.63734 36.8016C4.63734 36.9602 4.65865 37.1017 4.70126 37.226C4.74506 37.3503 4.80957 37.4485 4.8948 37.5207C4.98121 37.5917 5.08774 37.6272 5.2144 37.6272ZM8.79395 36.9987V35.4326H9.55034V38.1599H8.82413V37.6645H8.79572C8.73417 37.8243 8.63178 37.9528 8.48855 38.0498C8.3465 38.1469 8.17309 38.1954 7.96831 38.1954C7.78601 38.1954 7.62562 38.154 7.48713 38.0711C7.34863 37.9883 7.24032 37.8705 7.1622 37.7178C7.08526 37.5651 7.04619 37.3822 7.04501 37.1691V35.4326H7.8014V37.0342C7.80259 37.1952 7.84579 37.3224 7.93102 37.4159C8.01625 37.5095 8.13047 37.5562 8.2737 37.5562C8.36485 37.5562 8.45008 37.5355 8.52939 37.4941C8.60869 37.4515 8.67261 37.3887 8.72115 37.3059C8.77086 37.223 8.79513 37.1206 8.79395 36.9987ZM1.05824 42.5832V44.1599H0.301847V41.4326H1.02273V41.9138H1.05469C1.11506 41.7552 1.21626 41.6297 1.35831 41.5374C1.50036 41.4439 1.67259 41.3971 1.875 41.3971C2.06439 41.3971 2.22952 41.4386 2.37038 41.5214C2.51125 41.6043 2.62074 41.7226 2.69886 41.8765C2.77699 42.0292 2.81605 42.2115 2.81605 42.4234V44.1599H2.05966V42.5583C2.06084 42.3914 2.01823 42.2612 1.93182 42.1677C1.84541 42.073 1.72644 42.0257 1.57493 42.0257C1.47313 42.0257 1.38317 42.0476 1.30504 42.0914C1.2281 42.1352 1.16773 42.1991 1.12393 42.2831C1.08132 42.366 1.05942 42.466 1.05824 42.5832ZM0.316051 50.1599V46.5235H1.75071C2.02652 46.5235 2.26148 46.5762 2.45561 46.6816C2.64974 46.7857 2.7977 46.9307 2.8995 47.1166C3.00249 47.3012 3.05398 47.5143 3.05398 47.7558C3.05398 47.9973 3.00189 48.2103 2.89773 48.395C2.79356 48.5797 2.64264 48.7235 2.44496 48.8265C2.24846 48.9294 2.01054 48.9809 1.73118 48.9809H0.816761V48.3648H1.60689C1.75485 48.3648 1.87678 48.3394 1.97266 48.2885C2.06972 48.2364 2.14193 48.1648 2.18928 48.0736C2.23781 47.9813 2.26207 47.8753 2.26207 47.7558C2.26207 47.6351 2.23781 47.5297 2.18928 47.4397C2.14193 47.3486 2.06972 47.2782 1.97266 47.2284C1.87559 47.1775 1.75249 47.1521 1.60334 47.1521H1.08487V50.1599H0.316051ZM3.53915 50.1599V47.4326H4.27246V47.9085H4.30087C4.35059 47.7392 4.43404 47.6114 4.55123 47.525C4.66841 47.4374 4.80336 47.3936 4.95605 47.3936C4.99393 47.3936 5.03477 47.3959 5.07857 47.4007C5.12237 47.4054 5.16084 47.4119 5.19398 47.4202V48.0914C5.15847 48.0807 5.10935 48.0713 5.04661 48.063C4.98387 48.0547 4.92646 48.0505 4.87438 48.0505C4.76311 48.0505 4.66368 48.0748 4.57608 48.1233C4.48967 48.1707 4.42102 48.237 4.37012 48.3222C4.3204 48.4074 4.29554 48.5057 4.29554 48.6169V50.1599H3.53915ZM6.69034 50.2132C6.41454 50.2132 6.17602 50.1546 5.97479 50.0374C5.77474 49.919 5.62027 49.7545 5.51136 49.5438C5.40246 49.3319 5.34801 49.0863 5.34801 48.8069C5.34801 48.5252 5.40246 48.279 5.51136 48.0683C5.62027 47.8564 5.77474 47.6919 5.97479 47.5747C6.17602 47.4563 6.41454 47.3971 6.69034 47.3971C6.96615 47.3971 7.20407 47.4563 7.40412 47.5747C7.60535 47.6919 7.76042 47.8564 7.86932 48.0683C7.97822 48.279 8.03267 48.5252 8.03267 48.8069C8.03267 49.0863 7.97822 49.3319 7.86932 49.5438C7.76042 49.7545 7.60535 49.919 7.40412 50.0374C7.20407 50.1546 6.96615 50.2132 6.69034 50.2132ZM6.69389 49.6272C6.81937 49.6272 6.92412 49.5917 7.00817 49.5207C7.09221 49.4485 7.15554 49.3503 7.19815 49.226C7.24195 49.1017 7.26385 48.9602 7.26385 48.8016C7.26385 48.643 7.24195 48.5015 7.19815 48.3772C7.15554 48.253 7.09221 48.1547 7.00817 48.0825C6.92412 48.0103 6.81937 47.9742 6.69389 47.9742C6.56723 47.9742 6.4607 48.0103 6.37429 48.0825C6.28906 48.1547 6.22455 48.253 6.18075 48.3772C6.13814 48.5015 6.11683 48.643 6.11683 48.8016C6.11683 48.9602 6.13814 49.1017 6.18075 49.226C6.22455 49.3503 6.28906 49.4485 6.37429 49.5207C6.4607 49.5917 6.56723 49.6272 6.69389 49.6272ZM8.5245 47.4326H9.28089V50.2949C9.28089 50.5056 9.23946 50.676 9.15661 50.8062C9.07375 50.9364 8.95478 51.0317 8.79972 51.0921C8.64583 51.1525 8.46177 51.1826 8.24751 51.1826C8.22147 51.1826 8.19661 51.182 8.17294 51.1809C8.14808 51.1809 8.12204 51.1803 8.09482 51.1791V50.5878C8.11494 50.589 8.13269 50.5896 8.14808 50.5896C8.16229 50.5908 8.17768 50.5914 8.19425 50.5914C8.31617 50.5914 8.4014 50.5653 8.44993 50.5133C8.49964 50.4624 8.5245 50.3854 8.5245 50.2824V47.4326ZM8.90092 47.0811C8.78965 47.0811 8.69377 47.0438 8.61328 46.9692C8.53279 46.8935 8.49254 46.8029 8.49254 46.6976C8.49254 46.5934 8.53279 46.504 8.61328 46.4294C8.69377 46.3537 8.78965 46.3158 8.90092 46.3158C9.01456 46.3158 9.11103 46.3537 9.19034 46.4294C9.27083 46.504 9.31108 46.5934 9.31108 46.6976C9.31108 46.8029 9.27083 46.8935 9.19034 46.9692C9.11103 47.0438 9.01456 47.0811 8.90092 47.0811ZM1.54474 56.2132C1.2642 56.2132 1.02273 56.1564 0.820312 56.0427C0.619081 55.9279 0.464015 55.7657 0.355114 55.5562C0.246212 55.3455 0.191761 55.0963 0.191761 54.8087C0.191761 54.5282 0.246212 54.282 0.355114 54.0701C0.464015 53.8582 0.617306 53.6931 0.814986 53.5747C1.01385 53.4563 1.24704 53.3971 1.51456 53.3971C1.69448 53.3971 1.86198 53.4261 2.01705 53.4841C2.1733 53.5409 2.30942 53.6268 2.42543 53.7416C2.54261 53.8564 2.63376 54.0008 2.69886 54.1748C2.76397 54.3476 2.79652 54.5501 2.79652 54.7821V54.9898H0.493608V54.5211H2.08452C2.08452 54.4122 2.06084 54.3157 2.01349 54.2316C1.96615 54.1476 1.90045 54.0819 1.81641 54.0346C1.73355 53.986 1.63707 53.9618 1.52699 53.9618C1.41217 53.9618 1.31037 53.9884 1.22159 54.0417C1.134 54.0937 1.06534 54.1642 1.01562 54.253C0.965909 54.3405 0.940459 54.4382 0.939276 54.5459V54.9916C0.939276 55.1265 0.964134 55.2431 1.01385 55.3414C1.06475 55.4396 1.13636 55.5154 1.22869 55.5686C1.32102 55.6219 1.43052 55.6485 1.55717 55.6485C1.64122 55.6485 1.71816 55.6367 1.788 55.613C1.85784 55.5894 1.91761 55.5539 1.96733 55.5065C2.01705 55.4592 2.05492 55.4012 2.08097 55.3325L2.78054 55.3787C2.74503 55.5467 2.67223 55.6935 2.56214 55.819C2.45324 55.9433 2.31238 56.0404 2.13956 56.1102C1.96792 56.1789 1.76965 56.2132 1.54474 56.2132ZM4.52237 56.2132C4.24302 56.2132 4.00272 56.154 3.80149 56.0356C3.60144 55.9161 3.44756 55.7503 3.33984 55.5385C3.23331 55.3266 3.18004 55.0827 3.18004 54.8069C3.18004 54.5276 3.2339 54.2825 3.34162 54.0718C3.45052 53.86 3.605 53.6948 3.80504 53.5765C4.00509 53.4569 4.24302 53.3971 4.51882 53.3971C4.75675 53.3971 4.96508 53.4403 5.14382 53.5267C5.32256 53.6132 5.46402 53.7345 5.56818 53.8907C5.67235 54.047 5.72976 54.2305 5.74041 54.4412H5.02663C5.00651 54.305 4.95324 54.1955 4.86683 54.1127C4.78161 54.0286 4.66974 53.9866 4.53125 53.9866C4.41406 53.9866 4.31167 54.0186 4.22408 54.0825C4.13767 54.1452 4.07019 54.237 4.02166 54.3577C3.97313 54.4784 3.94886 54.6246 3.94886 54.7963C3.94886 54.9703 3.97254 55.1182 4.01989 55.2402C4.06842 55.3621 4.13648 55.455 4.22408 55.5189C4.31167 55.5829 4.41406 55.6148 4.53125 55.6148C4.61766 55.6148 4.69519 55.5971 4.76385 55.5615C4.83369 55.526 4.8911 55.4745 4.93608 55.4071C4.98224 55.3384 5.01243 55.2561 5.02663 55.1603H5.74041C5.72857 55.3686 5.67176 55.5521 5.56996 55.7107C5.46934 55.8681 5.33026 55.9912 5.1527 56.08C4.97514 56.1688 4.76503 56.2132 4.52237 56.2132ZM7.67534 53.4326V54.0008H6.03294V53.4326H7.67534ZM6.40581 52.7792H7.1622V55.3218C7.1622 55.3917 7.17285 55.4461 7.19416 55.4852C7.21547 55.5231 7.24506 55.5497 7.28294 55.5651C7.322 55.5805 7.36698 55.5882 7.41788 55.5882C7.45339 55.5882 7.4889 55.5852 7.52441 55.5793C7.55993 55.5722 7.58715 55.5669 7.60609 55.5633L7.72505 56.1262C7.68717 56.138 7.63391 56.1516 7.56525 56.167C7.4966 56.1836 7.41315 56.1936 7.3149 56.1972C7.13261 56.2043 6.9728 56.18 6.83549 56.1244C6.69937 56.0688 6.59342 55.9824 6.51767 55.8652C6.44191 55.748 6.40462 55.6 6.40581 55.4213V52.7792Z" fill="url(#paint8_linear_196_253)"/>
</g>
<defs>
<linearGradient id="paint0_linear_196_253" x1="19.149" y1="7.16187" x2="19.149" y2="17.7725" gradientUnits="userSpaceOnUse">
<stop stop-color="#FFBF00"/>
<stop offset="1" stop-color="#F2A50C"/>
</linearGradient>
<linearGradient id="paint1_linear_196_253" x1="4.87623" y1="7.16382" x2="4.87623" y2="17.7745" gradientUnits="userSpaceOnUse">
<stop stop-color="#FFBF00"/>
<stop offset="1" stop-color="#F2A50C"/>
</linearGradient>
<linearGradient id="paint2_linear_196_253" x1="11.9992" y1="4.51587" x2="11.9992" y2="12.2286" gradientUnits="userSpaceOnUse">
<stop stop-color="#FFBF00"/>
<stop offset="1" stop-color="#F2A50C"/>
</linearGradient>
<linearGradient id="paint3_linear_196_253" x1="6.63974" y1="4.04053" x2="6.63974" y2="7.94869" gradientUnits="userSpaceOnUse">
<stop stop-color="#FFBF00"/>
<stop offset="1" stop-color="#F2A50C"/>
</linearGradient>
<linearGradient id="paint4_linear_196_253" x1="9.52934" y1="0.64624" x2="9.52934" y2="4.55578" gradientUnits="userSpaceOnUse">
<stop stop-color="#FFBF00"/>
<stop offset="1" stop-color="#F2A50C"/>
</linearGradient>
<linearGradient id="paint5_linear_196_253" x1="17.3617" y1="4.03931" x2="17.3617" y2="7.94701" gradientUnits="userSpaceOnUse">
<stop stop-color="#FFBF00"/>
<stop offset="1" stop-color="#F2A50C"/>
</linearGradient>
<linearGradient id="paint6_linear_196_253" x1="14.4708" y1="0.642578" x2="14.4708" y2="4.55212" gradientUnits="userSpaceOnUse">
<stop stop-color="#FFBF00"/>
<stop offset="1" stop-color="#F2A50C"/>
</linearGradient>
<linearGradient id="paint7_linear_196_253" x1="9.12" y1="20.24" x2="9.12" y2="21.344" gradientUnits="userSpaceOnUse">
<stop stop-color="#FFBF00"/>
<stop offset="1" stop-color="#F2A50C"/>
</linearGradient>
<linearGradient id="paint8_linear_196_253" x1="6.48" y1="21.1599" x2="6.48" y2="22.2639" gradientUnits="userSpaceOnUse">
<stop stop-color="#FFBF00"/>
<stop offset="1" stop-color="#F2A50C"/>
</linearGradient>
<clipPath id="clip0_196_253">
<rect width="24" height="23" fill="white"/>
</clipPath>
</defs>
</svg>
