<svg width="32" height="32" viewBox="0 0 23 23" fill="none" xmlns="http://www.w3.org/2000/svg">
<path d="M12.1831 22.3891C18.2026 22.0297 22.7846 16.8367 22.3893 10.8172C22.0299 4.79765 16.837 0.21562 10.8174 0.610932C4.79789 0.970307 0.215864 6.16328 0.611176 12.1828C0.970551 18.1844 6.16352 22.7484 12.1831 22.3891ZM9.05649 9.2539C8.75102 8.66093 9.61352 8.33749 10.0627 7.88828C10.6198 7.29531 11.8237 6.32499 11.6799 5.96562C11.5362 5.57031 10.3143 4.49218 9.64946 4.74374C9.50571 4.74374 8.73305 5.60624 8.55336 5.74999C8.55336 5.44453 8.49946 5.28281 8.49946 4.99531C8.49946 4.79765 8.10414 4.63593 8.14008 4.49218C8.17602 4.15078 9.00258 3.52187 9.20024 3.27031C9.03852 3.16249 8.48149 2.76718 8.33774 2.82109C7.97836 3.01874 7.52915 3.16249 7.13383 3.32421C7.13383 3.18046 7.09789 3.03671 7.07993 2.96484C7.83461 2.56953 8.64321 2.29999 9.48774 2.10234L10.2424 2.38984L10.7995 2.98281L11.3565 3.5039C11.3565 3.5039 11.6979 3.64765 11.8237 3.64765C11.9854 3.61171 12.5245 2.9289 12.5245 2.9289L12.3088 2.40781L12.2729 1.94062C13.7823 2.08437 15.1659 2.53359 16.4237 3.30624C16.226 3.34218 15.9565 3.36015 15.7049 3.44999C15.5971 3.39609 15.0041 3.5039 15.0401 3.75546C15.076 3.95312 16.1002 4.77968 16.5495 5.5164C16.9987 6.27109 18.2565 6.73828 18.4721 7.58281C18.6877 8.55312 18.3284 9.81093 18.5081 10.9789C18.6698 12.1289 19.9276 13.3148 19.9276 13.3148C19.9276 13.3148 20.4846 13.4766 20.9338 13.3687C20.5924 15.0758 19.8377 16.6391 18.6698 17.9687C17.3581 19.4422 15.7049 20.4844 13.8362 20.9336C14.0518 20.2687 14.501 19.6219 14.9323 19.2625C15.2916 18.9211 15.7409 18.3461 15.9026 17.8969C16.0643 17.4297 16.2979 17.0344 16.5674 16.5852C16.9088 15.9922 15.5432 15.1656 15.094 15.0219C14.0877 14.6625 13.3331 14.1594 12.4706 13.6023C11.8237 13.207 9.90102 14.1055 9.18227 13.818C8.21196 13.4586 7.87055 13.1531 7.00805 12.5961C6.10961 12.0031 6.36118 10.7633 6.30727 9.8289C6.97211 9.8289 7.88852 9.5414 8.37368 10.0445C8.51743 10.2062 9.03852 10.907 9.34399 10.6375C9.66743 10.2961 9.1643 9.45156 9.05649 9.2539ZM3.7018 5.82187C3.75571 6.28906 4.00727 6.6664 4.00727 6.98984C4.00727 8.30156 3.89946 9.07421 4.72602 10.1164C5.06743 10.5117 5.17524 11.1227 5.31899 11.6258C5.48071 12.093 6.03774 12.3266 6.46899 12.5961C7.27758 13.1172 8.05024 13.8 8.93071 14.2672C9.48774 14.5726 9.82914 14.7344 9.7393 15.4172C9.63149 15.9383 9.63149 16.2797 9.37993 16.7828C9.32602 16.9445 9.77524 17.843 9.90102 17.9508C10.3502 18.3101 10.7635 18.6695 11.2487 19.0109C11.9674 19.532 11.2487 20.3227 10.9612 21.1312C8.84086 20.9875 6.81039 20.1609 5.15727 18.7234C3.23461 17.0164 2.08461 14.6445 1.92289 12.1109C1.74321 9.79296 2.30024 7.63671 3.7018 5.82187Z" fill="url(#paint0_linear_195_251)"/>
<defs>
<linearGradient id="paint0_linear_195_251" x1="11.5002" y1="0.587158" x2="11.5002" y2="22.4089" gradientUnits="userSpaceOnUse">
<stop stop-color="#FFBF00"/>
<stop offset="1" stop-color="#F2A50C"/>
</linearGradient>
</defs>
</svg>
