<svg width="32" height="35" viewBox="0 0 32 35" fill="none" xmlns="http://www.w3.org/2000/svg">
<path d="M18.6138 4.3083C18.7694 1.7701 17.4211 0.484201 14.2061 0.166901C13.3764 0.0834006 12.0455 0 11.2676 0H9.8502L9.9367 0.534302C10.2824 2.5883 10.7491 3.5402 12.0627 4.9095C13.4801 6.3624 15.2605 7.2641 17.6631 7.7317L18.683 7.93211L17.0581 10.988C15.8309 13.3259 15.3988 14.0106 15.1914 13.9271C13.7394 13.3092 12.8924 13.1255 10.9911 13.0587C9.1588 12.9919 8.8131 13.042 7.534 13.4261C4.2844 14.3947 1.6225 16.9497 0.481701 20.206C-0.036899 21.6922 -0.157899 24.3641 0.222401 25.9672C0.723701 27.9878 1.5879 29.4574 3.2646 31.0605C5.5289 33.2651 7.5513 34.0661 10.7836 34.0661C13.9295 34.0661 16.1593 33.1811 18.3027 31.0772C19.5645 29.8415 20.7053 28.0379 20.9992 26.8356L21.1029 26.3847H19.7892H18.4755L18.0261 27.2531C17.473 28.3051 15.9 29.9416 14.8802 30.5094C11.8035 32.2461 7.7069 31.7786 5.1487 29.3739C3.5239 27.8542 2.6942 25.867 2.7115 23.5459C2.7115 21.1245 3.5584 19.2541 5.408 17.5675C7.05 16.0646 8.8823 15.43 11.1121 15.5803C12.4949 15.6805 13.4801 15.8809 13.9641 16.1815C14.1542 16.2984 13.8431 16.9998 12.3739 19.6716C10.5071 23.0282 10.2305 23.8631 10.7318 24.3474C10.8873 24.4977 12.3566 24.5478 16.263 24.5478H21.5869V23.1117C21.5869 20.4732 20.3769 17.7679 18.3545 15.9143L17.594 15.2296L18.1471 14.1609C18.441 13.5764 18.7867 13.0587 18.8904 12.9919C18.9941 12.9251 21.2412 12.8583 23.8685 12.8583H28.6738L28.9331 12.4576C29.3998 11.7896 29.4516 10.9713 29.054 10.6373C28.7429 10.3702 28.3454 10.3535 24.4562 10.3869C20.7226 10.437 20.2213 10.4036 20.325 10.1865C20.3769 10.0529 20.6016 9.4684 20.809 8.9173C21.0165 8.3496 21.3103 7.74841 21.4831 7.59811C21.8116 7.26411 22.5548 5.8781 23.1425 4.4586C23.3499 3.941 23.7648 3.3231 24.0414 3.0893C24.5426 2.67181 24.5945 2.67181 27.6366 2.67181H27.6367H30.7307L31.0764 2.2543C31.5777 1.6198 31.6987 0.901704 31.3703 0.417404L31.0937 0H27.6712C24.4562 0 24.2142 0.0166034 23.3845 0.400703C22.261 0.901703 21.8461 1.43611 20.6707 3.85751C19.7546 5.74451 19.7028 5.81131 19.2361 5.72781C16.8162 5.36041 15.4161 4.7258 14.1888 3.4233C13.6875 2.9056 13.29 2.40461 13.29 2.32111C13.29 2.12081 14.016 2.1374 14.9839 2.3712C15.6408 2.5215 16.0729 2.8221 17.1791 3.8742L18.562 5.1767L18.6138 4.3083Z" fill="url(#paint0_linear_213_168)"/>
<defs>
<linearGradient id="paint0_linear_213_168" x1="-29.2315" y1="-67.2979" x2="70.7685" y2="32.7021" gradientUnits="userSpaceOnUse">
<stop stop-color="#FFBF00"/>
<stop offset="1" stop-color="#F2A50C"/>
</linearGradient>
</defs>
</svg>
